<?xml version="1.0" standalone="no"?>
<!DOCTYPE svg PUBLIC "-//W3C//DTD SVG 1.1//EN" "http://www.w3.org/Graphics/SVG/1.1/DTD/svg11.dtd" >
<svg xmlns="http://www.w3.org/2000/svg" xmlns:xlink="http://www.w3.org/1999/xlink" version="1.1">
<metadata></metadata>
<defs>
<font id="roundomedium" horiz-adv-x="1245" >
<font-face units-per-em="2048" ascent="1536" descent="-512" />
<missing-glyph horiz-adv-x="415" />
<glyph unicode="&#xfb01;" horiz-adv-x="1177" d="M49 915v170h158v13q0 77 19.5 137.5t51 99t76.5 63.5t92.5 35.5t100.5 10.5q40 0 110 -12v-160q-47 12 -90 12q-168 0 -168 -172v-27h619v-1085h-191v915h-428v-915h-192v915h-158zM780 1350q0 52 38.5 83t101.5 31t100 -31t37 -83q0 -51 -37 -82t-100 -31t-101.5 31 t-38.5 82z" />
<glyph unicode="&#xfb02;" horiz-adv-x="1171" d="M49 915v170h158v2q0 91 30.5 160.5t82.5 110t116 60.5t137 20q77 0 149 -16.5t116 -37.5l180 56v-1440h-191v1235q-111 49 -223 49q-205 0 -205 -186v-13h240v-170h-240v-915h-192v915h-158z" />
<glyph horiz-adv-x="0" />
<glyph horiz-adv-x="682" />
<glyph horiz-adv-x="0" />
<glyph horiz-adv-x="0" />
<glyph unicode="&#xd;" horiz-adv-x="415" />
<glyph unicode=" "  horiz-adv-x="415" />
<glyph unicode="&#x09;" horiz-adv-x="415" />
<glyph unicode="&#xa0;" horiz-adv-x="415" />
<glyph unicode="!" horiz-adv-x="563" d="M147 113q0 55 40 95t94 40q55 0 95 -40t40 -95t-39.5 -94t-95.5 -39q-54 0 -94 39t-40 94zM156 1409h252q0 -182 -20.5 -512.5t-20.5 -447.5h-172q0 117 -19.5 447.5t-19.5 512.5z" />
<glyph unicode="&#x22;" horiz-adv-x="655" d="M92 1409h176l-20 -426h-139zM387 1409h176l-20 -426h-140z" />
<glyph unicode="#" horiz-adv-x="1320" d="M39 358l31 144h215l63 319h-219l29 144h221l70 346h165l-69 -346h342l69 346h164l-69 -346h231l-29 -144h-233l-64 -319h238l-29 -144h-237l-74 -358h-164l74 358h-342l-74 -358h-166l74 358h-217zM451 502h342l63 319h-342z" />
<glyph unicode="$" horiz-adv-x="1220" d="M68 1030q0 118 60.5 207t160.5 136t227 54v172h184v-178q214 -26 351 -125v-219q-95 65 -228 111.5t-264 46.5q-133 0 -205.5 -52t-72.5 -139q0 -33 8.5 -60t29 -48t41 -36.5t58 -31.5t66.5 -26t79 -25l158 -47q80 -25 133.5 -45.5t111 -54.5t91 -74t55 -99.5 t21.5 -134.5q0 -170 -118.5 -269t-314.5 -113v-175h-184v179q-126 14 -235.5 54t-182.5 91v209q104 -73 254 -123.5t291 -50.5q283 0 283 188q0 38 -12.5 67.5t-32.5 51t-56.5 41t-74.5 34t-97 32.5l-188 55q-69 19 -121 38.5t-106.5 52.5t-89.5 73t-57.5 99.5t-22.5 133.5z " />
<glyph unicode="%" horiz-adv-x="1585" d="M61 1077q0 -156 93 -253t235 -97q141 0 233.5 97t92.5 253q0 158 -92.5 255.5t-235.5 97.5q-140 0 -233 -98t-93 -255zM207 1079q0 97 50 156t130 59q81 0 130.5 -59.5t49.5 -155.5q0 -97 -49.5 -157t-130.5 -60q-80 0 -130 60t-50 157zM258 0l897 1409h176l-893 -1409 h-180zM879 332q0 -158 92.5 -255t234.5 -97t234 97t92 255t-92.5 254t-235.5 96q-140 0 -232.5 -96.5t-92.5 -253.5zM1024 334q0 96 50.5 154.5t129.5 58.5q81 0 130.5 -58.5t49.5 -154.5q0 -97 -49.5 -157t-130.5 -60q-79 0 -129.5 60.5t-50.5 156.5z" />
<glyph unicode="&#x26;" horiz-adv-x="1617" d="M92 399q0 147 90 253.5t236 160.5q-107 146 -107 299q0 175 122 279t315 104q98 0 188.5 -22.5t150.5 -55.5v-213q-67 41 -153 68.5t-170 27.5q-112 0 -178 -57t-66 -151q0 -83 47 -157.5t152 -180.5l733 -754h-250l-186 190q-90 -97 -212.5 -153.5t-262.5 -56.5 q-202 0 -325.5 115.5t-123.5 303.5zM293 414q0 -113 76 -182.5t200 -69.5q95 0 183 41t147 104l-315 320q-9 9 -28 28.5t-28 28.5q-102 -31 -168.5 -102.5t-66.5 -167.5zM1061 649v160h493v-160h-493z" />
<glyph unicode="'" horiz-adv-x="360" d="M92 1409h176l-20 -426h-139z" />
<glyph unicode="(" horiz-adv-x="612" d="M82 655q0 -113 23.5 -222.5t59.5 -195t85 -165.5t93.5 -134.5t92.5 -101.5h148q-35 46 -53 70.5t-57.5 83.5t-63 103.5t-55 115t-49.5 135t-31 146.5t-13 165q0 82 13 164t31 146.5t49.5 135t55 115.5t62.5 103.5t57.5 83.5t53.5 70h-148q-61 -59 -117 -134t-112.5 -178 t-90.5 -235t-34 -271z" />
<glyph unicode=")" horiz-adv-x="612" d="M31 -164h145q48 47 92.5 101.5t94 134.5t85.5 165.5t60 195t24 222.5q0 112 -23.5 221.5t-60 195t-86 166t-94 135t-92.5 100.5h-145q33 -43 52.5 -70t57.5 -84t62 -103t55 -115.5t49 -134.5t30.5 -147t12.5 -164q0 -83 -12.5 -165t-30.5 -147t-49 -134.5t-55 -115.5 t-62 -103t-57.5 -83.5t-52.5 -70.5z" />
<glyph unicode="*" horiz-adv-x="905" d="M82 1145l47 149l272 -118l-26 294h155l-28 -294l274 116l47 -149l-288 -62l194 -225l-127 -92l-149 256l-154 -254l-125 90l199 223z" />
<glyph unicode="+" horiz-adv-x="1044" d="M102 618v175h330v346h182v-346h328v-175h-328v-346h-182v346h-330z" />
<glyph unicode="," horiz-adv-x="354" d="M-18 -242l116 475h207l-166 -475h-157z" />
<glyph unicode="-" horiz-adv-x="630" d="M70 461v166h491v-166h-491z" />
<glyph unicode="." horiz-adv-x="387" d="M59 113q0 55 40 95t94 40q55 0 95 -40t40 -95t-39.5 -94t-95.5 -39q-54 0 -94 39t-40 94z" />
<glyph unicode="/" horiz-adv-x="917" d="M31 -41l688 1557h170l-688 -1557h-170z" />
<glyph unicode="0" horiz-adv-x="1435" d="M143 705q0 -183 45.5 -324.5t125.5 -227.5t182 -129.5t221 -43.5q120 0 222.5 43.5t182 129.5t125 227.5t45.5 324.5q0 182 -45.5 323.5t-125 227.5t-182 130t-222.5 44q-95 0 -179.5 -27t-157 -84.5t-125 -141.5t-82.5 -205t-30 -267zM350 705q0 259 100 396.5 t267 137.5t267.5 -137.5t100.5 -396.5q0 -260 -100.5 -397.5t-267.5 -137.5t-267 137t-100 398z" />
<glyph unicode="1" horiz-adv-x="675" d="M47 1231l70 178h385v-1409h-197v1231h-258z" />
<glyph unicode="2" horiz-adv-x="1159" d="M72 0v150l549 538q125 121 176 194t51 158q0 94 -64 150.5t-180 56.5q-138 0 -263.5 -64.5t-219.5 -150.5v209q35 30 79.5 58.5t108.5 60t146 51t166 19.5q194 0 312 -103t118 -276q0 -58 -17 -113.5t-39.5 -97t-67.5 -93t-77.5 -83t-91.5 -86.5l-428 -398h737v-180h-995 z" />
<glyph unicode="3" horiz-adv-x="1153" d="M59 121q82 -60 203 -100.5t266 -40.5q131 0 236 34.5t172.5 94t103 138t35.5 167.5q0 185 -125.5 296t-337.5 111h-123l529 404v184h-920v-180h652l-502 -428v-127h305q152 0 236.5 -66.5t84.5 -183.5q0 -118 -94.5 -191t-271.5 -73q-134 0 -254.5 49.5t-194.5 114.5 v-203z" />
<glyph unicode="4" horiz-adv-x="1355" d="M55 303v150l785 956h196v-928h271v-178h-271v-303h-196v303h-785zM283 481h557v682z" />
<glyph unicode="5" horiz-adv-x="1220" d="M113 137v203q87 -72 222 -126t277 -54q146 0 238 63.5t92 192.5q0 73 -28.5 126t-81 83.5t-118 44.5t-147.5 14h-405l76 725h823v-180h-649l-43 -365h249q115 0 209 -26.5t166 -79.5t112 -140.5t40 -201.5q0 -85 -26.5 -156.5t-74 -123t-112.5 -87t-142.5 -52.5 t-164.5 -17q-162 0 -294.5 47.5t-217.5 109.5z" />
<glyph unicode="6" horiz-adv-x="1271" d="M96 555q0 115 37.5 231t95.5 208t133 176t145.5 141.5t137.5 97.5h283q-67 -40 -142.5 -97.5t-160.5 -135t-160 -175.5t-119 -196q150 135 373 135q205 0 338 -125.5t133 -337.5q0 -225 -150 -361t-393 -136q-251 0 -401 151t-150 424zM299 549q0 -190 98 -289.5 t256 -99.5q150 0 243 84t93 229q0 144 -87.5 222.5t-225.5 78.5q-214 0 -367 -139q-10 -48 -10 -86z" />
<glyph unicode="7" horiz-adv-x="1091" d="M39 1229v180h1014v-164l-660 -1245h-225l670 1229h-799z" />
<glyph unicode="8" horiz-adv-x="1292" d="M94 395q0 124 70 220.5t203 148.5q-99 45 -151 123.5t-52 171.5q0 162 130.5 266.5t350.5 104.5q222 0 353.5 -105.5t131.5 -269.5q0 -93 -52 -170.5t-150 -120.5q131 -52 200.5 -147.5t69.5 -217.5q0 -181 -148.5 -300t-404.5 -119q-255 0 -403 118t-148 297zM293 414 q0 -121 98 -192.5t254 -71.5q158 0 256 71.5t98 194.5q0 126 -98 199t-256 73q-157 0 -254.5 -74.5t-97.5 -199.5zM356 1049q0 -102 80 -163t209 -61t210 59.5t81 159.5t-80.5 159t-210.5 59q-129 0 -209 -57.5t-80 -155.5z" />
<glyph unicode="9" horiz-adv-x="1275" d="M86 932q0 225 150 361.5t393 136.5q251 0 401 -151.5t150 -424.5q0 -115 -37.5 -231t-95.5 -208t-133 -176t-145.5 -141.5t-137.5 -97.5h-283q68 40 144 98t161 136t160 176t119 196q-152 -137 -375 -137q-206 0 -338.5 125.5t-132.5 337.5zM287 936q0 -144 87.5 -222.5 t225.5 -78.5q210 0 369 141q8 36 8 84q0 190 -99 289.5t-257 99.5q-149 0 -241.5 -84t-92.5 -229z" />
<glyph unicode=":" horiz-adv-x="387" d="M59 113q0 55 40 95t94 40q55 0 95 -40t40 -95t-39.5 -94t-95.5 -39q-54 0 -94 39t-40 94zM59 831q0 55 40 95.5t94 40.5q55 0 95 -40t40 -96q0 -55 -39.5 -94t-95.5 -39q-54 0 -94 39t-40 94z" />
<glyph unicode=";" horiz-adv-x="389" d="M-18 -242l116 475h207l-166 -475h-157zM61 831q0 55 40 95.5t94 40.5q55 0 95 -40t40 -96q0 -55 -39.5 -94t-95.5 -39q-54 0 -94 39t-40 94z" />
<glyph unicode="&#x3c;" horiz-adv-x="1044" d="M102 625v163l840 363v-188l-631 -256l631 -258v-189z" />
<glyph unicode="=" horiz-adv-x="1044" d="M102 432v176h840v-176h-840zM102 803v174h840v-174h-840z" />
<glyph unicode="&#x3e;" horiz-adv-x="1044" d="M102 229v191l631 287l-631 284v193l840 -396v-163z" />
<glyph unicode="?" horiz-adv-x="1075" d="M70 1022v219q36 29 79 57t109 60.5t150.5 52t173.5 19.5q187 0 301 -92.5t114 -260.5q0 -98 -50.5 -169.5t-139.5 -133.5l-250 -174v-141h-166v198l246 181q76 54 113.5 100t37.5 111q0 86 -63 137t-172 51q-130 0 -260.5 -66t-222.5 -149zM350 113q0 55 39.5 95t93.5 40 q55 0 95 -40t40 -95t-39.5 -94t-95.5 -39q-54 0 -93.5 39t-39.5 94z" />
<glyph unicode="@" horiz-adv-x="1527" d="M98 582q0 168 58.5 308t159.5 232.5t235.5 143.5t286.5 51q272 0 432 -153t160 -419v-477h-166v129q-183 -147 -383 -147q-152 0 -239 77t-87 203q0 141 120.5 223.5t313.5 82.5q143 0 260 -37q-7 159 -118.5 251.5t-292.5 92.5q-156 0 -281 -62.5t-201.5 -191 t-76.5 -305.5q0 -143 45 -257t125.5 -187.5t189.5 -112.5t238 -39q258 0 434 135v-184q-185 -121 -434 -121q-227 0 -402 88t-276 262.5t-101 413.5zM735 541q0 -76 55 -112t140 -36q149 0 319 107v174q-113 37 -227 37q-143 0 -215 -44.5t-72 -125.5z" />
<glyph unicode="A" horiz-adv-x="1462" d="M8 0l592 1409h262l594 -1409h-225l-172 418h-660l-172 -418h-219zM473 596h514l-256 623z" />
<glyph unicode="B" horiz-adv-x="1394" d="M168 0v1409h600q97 0 177.5 -19.5t143 -60.5t97.5 -109.5t35 -160.5q0 -132 -83 -213.5t-202 -97.5q178 -23 275.5 -119.5t97.5 -249.5q0 -186 -132 -282.5t-364 -96.5h-645zM371 190h424q134 0 213 54.5t79 175.5q0 115 -82.5 172t-220.5 57h-413v-459zM371 819h368 q121 0 191.5 51.5t70.5 151.5q0 197 -251 197h-379v-400z" />
<glyph unicode="C" horiz-adv-x="1363" d="M96 702q0 157 56 293t153.5 231t233.5 149.5t292 54.5q258 0 474 -130v-210q-212 149 -465 149q-232 0 -381.5 -149.5t-149.5 -387.5q0 -237 149.5 -385.5t381.5 -148.5q253 0 465 149v-211q-214 -129 -474 -129q-208 0 -375.5 91.5t-263.5 258t-96 375.5z" />
<glyph unicode="D" horiz-adv-x="1513" d="M168 0v1409h500q218 0 388 -88t264.5 -249.5t94.5 -369.5q0 -206 -94.5 -366t-264.5 -248t-388 -88h-500zM371 190h297q244 0 395 140t151 372q0 234 -151 375.5t-395 141.5h-297v-1029z" />
<glyph unicode="E" horiz-adv-x="1280" d="M168 0v1409h1020v-190h-817v-412h714v-189h-714v-428h817v-190h-1020z" />
<glyph unicode="F" horiz-adv-x="1243" d="M168 0v1409h1010v-190h-807v-449h704v-190h-704v-580h-203z" />
<glyph unicode="G" horiz-adv-x="1454" d="M96 702q0 211 97.5 377.5t269 258.5t385.5 92q270 0 483 -130v-210q-212 149 -473 149q-245 0 -397 -148t-152 -389q0 -239 152 -386.5t395 -147.5q144 0 274 47v391h-442v168h643v-668q-211 -129 -473 -129q-219 0 -392.5 92t-271.5 257.5t-98 375.5z" />
<glyph unicode="H" horiz-adv-x="1509" d="M168 0v1409h203v-598h768v598h202v-1409h-202v621h-768v-621h-203z" />
<glyph unicode="I" horiz-adv-x="538" d="M168 0v1409h203v-1409h-203z" />
<glyph unicode="J" horiz-adv-x="1095" d="M31 129q194 -152 438 -152q218 0 345.5 118.5t127.5 336.5v977h-203v-973q0 -139 -74 -202.5t-198 -63.5q-120 0 -236.5 48.5t-199.5 125.5v-215z" />
<glyph unicode="K" horiz-adv-x="1329" d="M168 0v1409h203v-606h282l396 606h229l-459 -676l494 -733h-240l-407 623h-295v-623h-203z" />
<glyph unicode="L" horiz-adv-x="1187" d="M168 0v1409h203v-1219h776v-190h-979z" />
<glyph unicode="M" horiz-adv-x="1953" d="M168 0v1409h274l535 -1210l534 1210h275v-1409h-203v1083l-493 -1083h-226l-493 1083v-1083h-203z" />
<glyph unicode="N" horiz-adv-x="1486" d="M154 0v1409h200l766 -1067v1067h203v-1409h-190l-777 1057v-1057h-202z" />
<glyph unicode="O" horiz-adv-x="1628" d="M96 702q0 -208 94 -373.5t258 -257t367 -91.5t366.5 91.5t257 256.5t93.5 374q0 210 -93.5 377t-257 259t-366.5 92t-367 -92t-258 -259t-94 -377zM309 702q0 232 143.5 378.5t362.5 146.5t362.5 -146.5t143.5 -378.5q0 -231 -143.5 -375.5t-362.5 -144.5t-362.5 144.5 t-143.5 375.5z" />
<glyph unicode="P" horiz-adv-x="1337" d="M168 0v1409h573q242 0 386.5 -119.5t144.5 -349.5q0 -220 -145.5 -340.5t-385.5 -120.5h-370v-479h-203zM371 668h356q153 0 242.5 68.5t89.5 203.5q0 143 -88.5 211t-243.5 68h-356v-551z" />
<glyph unicode="Q" horiz-adv-x="1628" d="M96 702q0 210 94 377t258 259t367 92t366.5 -92t257 -259t93.5 -377q0 -274 -160 -471l254 -231h-237l-134 121q-186 -141 -440 -141q-203 0 -367 91.5t-258 257t-94 373.5zM309 702q0 -231 143.5 -375.5t362.5 -144.5q161 0 285 82l-416 379h238l295 -270 q104 136 104 329q0 232 -143.5 378.5t-362.5 146.5t-362.5 -146.5t-143.5 -378.5z" />
<glyph unicode="R" horiz-adv-x="1382" d="M168 0v1409h598q246 0 383 -108t137 -326q0 -191 -129.5 -298.5t-343.5 -107.5h-4l496 -569h-254l-469 569h-211v-569h-203zM371 729h389q150 0 232.5 60.5t82.5 183.5q0 246 -315 246h-389v-490z" />
<glyph unicode="S" horiz-adv-x="1230" d="M88 1032q0 126 68.5 218t180 137t249.5 45q157 0 282 -39t203 -93v-219q-94 64 -227 111t-264 47q-132 0 -205.5 -51.5t-73.5 -138.5q0 -39 15 -71t36 -53t63 -41.5t75 -32.5t94 -32l153 -47q57 -18 97.5 -32t87 -34.5t78 -42t62.5 -51.5t49 -65t29 -81t11 -101 q0 -183 -138.5 -284t-359.5 -101q-160 0 -302.5 44t-235.5 107v211q105 -74 255.5 -125t291.5 -51q144 0 213 49.5t69 138.5t-64 136.5t-210 93.5l-185 55q-70 20 -120.5 39t-106 52t-90 72t-57.5 98t-23 132z" />
<glyph unicode="T" horiz-adv-x="1183" d="M18 1219v190h1145v-190h-471v-1219h-203v1219h-471z" />
<glyph unicode="U" horiz-adv-x="1478" d="M154 584v825h211v-827q0 -191 93.5 -296.5t280.5 -105.5q188 0 281.5 105.5t93.5 296.5v827h211v-825q0 -137 -34.5 -246t-104.5 -190t-183 -124.5t-264 -43.5t-264 43.5t-182.5 124.5t-104 190t-34.5 246z" />
<glyph unicode="V" horiz-adv-x="1452" d="M16 1409h234l477 -1204l479 1204h232l-590 -1409h-246z" />
<glyph unicode="W" horiz-adv-x="2086" d="M41 1409h240l272 -1190l375 1190h233l375 -1188l270 1188h240l-375 -1409h-264l-363 1165l-362 -1165h-264z" />
<glyph unicode="X" horiz-adv-x="1316" d="M27 1409h233l406 -586l393 586h231l-491 -698l489 -711h-229l-408 598l-395 -598h-227l489 711z" />
<glyph unicode="Y" horiz-adv-x="1312" d="M6 1409h230l423 -676l420 676h230l-551 -860v-549h-203v547z" />
<glyph unicode="Z" horiz-adv-x="1353" d="M76 0v168l889 1051h-828v190h1090v-168l-893 -1051h944v-190h-1202z" />
<glyph unicode="[" horiz-adv-x="634" d="M178 -164v1637h406v-160h-226v-1315h226v-162h-406z" />
<glyph unicode="\" horiz-adv-x="917" d="M31 1516h168l690 -1557h-172z" />
<glyph unicode="]" horiz-adv-x="624" d="M59 -2h228v1315h-228v160h406v-1637h-406v162z" />
<glyph unicode="^" horiz-adv-x="970" d="M39 567l364 842h166l363 -842h-191l-254 631l-258 -631h-190z" />
<glyph unicode="_" horiz-adv-x="866" d="M-12 -41h891v-137h-891v137z" />
<glyph unicode="`" horiz-adv-x="628" d="M96 1548h234l200 -319h-178z" />
<glyph unicode="a" horiz-adv-x="1110" d="M86 270q0 144 126 237t333 93q133 0 239 -39v98q0 130 -76.5 193t-195.5 63q-121 0 -230 -50t-184 -126v199q63 65 182 116.5t257 51.5q92 0 169 -24.5t139 -75.5t97 -139t35 -205v-662h-180v143q-66 -71 -160 -117t-207 -46q-163 0 -253.5 77t-90.5 213zM266 279 q0 -76 54 -113t141 -37q171 0 323 127v184q-94 27 -192 27q-158 0 -242 -50.5t-84 -137.5z" />
<glyph unicode="b" horiz-adv-x="1230" d="M143 66v1343l193 31v-445q155 111 338 111q99 0 183.5 -35.5t147.5 -102.5t98.5 -170.5t35.5 -232.5q0 -145 -45 -259t-123 -184t-178 -106t-215 -36q-126 0 -226.5 23t-208.5 63zM336 188q119 -36 233 -36q169 0 270 99.5t101 303.5q0 178 -88.5 276.5t-230.5 98.5 q-150 0 -285 -88v-654z" />
<glyph unicode="c" horiz-adv-x="1083" d="M92 543q0 167 77 296.5t210.5 199t298.5 69.5q198 0 323 -84v-193q-132 95 -317 95q-176 0 -287.5 -104.5t-111.5 -278.5q0 -170 112 -275.5t285 -105.5q186 0 319 96v-192q-128 -86 -325 -86q-165 0 -298 71.5t-209.5 200.5t-76.5 291z" />
<glyph unicode="d" horiz-adv-x="1230" d="M92 514q0 145 47.5 260t130 186.5t186.5 108.5t222 37q99 0 217 -27v330l192 31v-1440h-180v96q-142 -116 -338 -116q-97 0 -182 33.5t-151.5 98t-105 168t-38.5 234.5zM289 526q0 -178 89.5 -276t242.5 -98q147 0 274 88v659q-107 35 -207 35q-116 0 -204 -43 t-141.5 -136.5t-53.5 -228.5z" />
<glyph unicode="e" horiz-adv-x="1173" d="M92 543q0 262 141.5 413.5t372.5 151.5q222 0 344.5 -140.5t122.5 -394.5v-90h-786q10 -159 112.5 -240t276.5 -81q105 0 208.5 24.5t166.5 59.5v-170q-58 -42 -169 -69t-225 -27q-256 0 -410.5 146.5t-154.5 416.5zM285 614h600q-3 157 -76 242.5t-213 85.5 q-136 0 -220 -87t-91 -241z" />
<glyph unicode="f" horiz-adv-x="757" d="M49 915v170h158v2q0 175 100.5 265t255.5 90q133 0 228 -64v-161q-36 28 -91 46.5t-114 18.5q-86 0 -136.5 -50.5t-50.5 -141.5v-5h289v-170h-289v-915h-192v915h-158z" />
<glyph unicode="g" horiz-adv-x="1220" d="M92 547q0 135 46 243t125.5 176t183 104t221.5 36q119 0 215.5 -24.5t195.5 -65.5v-846q0 -134 -40 -234.5t-111.5 -160.5t-162.5 -89.5t-200 -29.5q-228 0 -413 113v196q186 -129 395 -129q167 0 253.5 79.5t86.5 229.5v48q-151 -115 -332 -115q-208 0 -335.5 125.5 t-127.5 343.5zM289 569q0 -155 85.5 -236t227.5 -81q153 0 285 94v547q-105 41 -221 41q-169 0 -273 -95.5t-104 -269.5z" />
<glyph unicode="h" d="M143 0v1409l193 31v-482q184 148 397 148q181 0 279 -105.5t98 -304.5v-696h-192v653q0 132 -67 200.5t-189 68.5q-159 0 -326 -99v-823h-193z" />
<glyph unicode="i" horiz-adv-x="489" d="M106 1350q0 52 38.5 83t101.5 31t100 -31t37 -83q0 -51 -37 -82t-100 -31t-101.5 31t-38.5 82zM147 0v1085h193v-1085h-193z" />
<glyph unicode="j" horiz-adv-x="481" d="M-25 -188q88 30 126 78.5t38 134.5v1060h193v-1067q0 -154 -81 -243t-218 -119zM98 1350q0 52 38 82t102 30q63 0 100 -30t37 -82q0 -53 -37 -84t-100 -31t-101.5 31.5t-38.5 83.5z" />
<glyph unicode="k" horiz-adv-x="1124" d="M143 0v1409l193 31v-756h199l333 401h224l-422 -485l422 -600h-222l-344 504h-190v-504h-193z" />
<glyph unicode="l" horiz-adv-x="477" d="M143 0v1409l193 31v-1440h-193z" />
<glyph unicode="m" horiz-adv-x="1937" d="M143 0v1085h181v-137q183 158 389 158q229 0 313 -176q197 176 422 176q170 0 262 -103.5t92 -297.5v-705h-190v662q0 127 -63 193.5t-175 66.5q-145 0 -313 -101q8 -44 8 -106v-715h-192v662q0 127 -62.5 193.5t-173.5 66.5q-139 0 -305 -101v-821h-193z" />
<glyph unicode="n" d="M143 0v1085h181v-137q191 158 409 158q181 0 279 -105.5t98 -304.5v-696h-192v653q0 132 -67 200.5t-189 68.5q-159 0 -326 -99v-823h-193z" />
<glyph unicode="o" horiz-adv-x="1310" d="M92 543q0 -240 160 -401.5t403 -161.5t403.5 161.5t160.5 401.5q0 243 -160 403t-404 160t-403.5 -160t-159.5 -403zM283 543q0 167 106 275t266 108q162 0 267.5 -108t105.5 -275q0 -166 -106 -274.5t-267 -108.5q-160 0 -266 109.5t-106 273.5z" />
<glyph unicode="p" horiz-adv-x="1230" d="M143 -324v1409h181v-96q143 117 338 117q97 0 182 -33.5t151.5 -98t105 -168.5t38.5 -235q0 -145 -48 -260t-130 -186t-186.5 -108t-223.5 -37q-116 0 -215 26v-330h-193zM336 186q104 -34 207 -34q178 0 287.5 103t109.5 304q0 177 -90 276t-242 99q-144 0 -272 -90 v-658z" />
<glyph unicode="q" horiz-adv-x="1241" d="M92 520q0 145 45 259t123 184.5t178 106.5t215 36q129 0 232 -23t213 -63v-1344h-193v414q-152 -110 -348 -110q-99 0 -183.5 35.5t-147.5 102t-98.5 170t-35.5 232.5zM289 530q0 -177 89.5 -275.5t231.5 -98.5q156 0 295 88v653q-126 37 -243 37q-168 0 -270.5 -102.5 t-102.5 -301.5z" />
<glyph unicode="r" horiz-adv-x="851" d="M143 0v1085h181v-155q74 74 168 125t194 51q67 0 131 -33v-203q-84 52 -188 52q-138 0 -293 -115v-807h-193z" />
<glyph unicode="s" horiz-adv-x="989" d="M80 793q0 138 109 226.5t294 88.5q111 0 218.5 -29.5t168.5 -70.5v-193q-63 48 -175.5 84.5t-221.5 36.5q-91 0 -149 -35.5t-58 -101.5q0 -29 11.5 -52t28.5 -39t49.5 -31.5t62 -25.5t78.5 -24l133 -39q140 -39 215.5 -111t75.5 -192q0 -151 -107 -232.5t-293 -81.5 q-121 0 -241 34t-189 77v188q84 -53 202.5 -91t235.5 -38q209 0 209 140q0 65 -51 97t-170 64l-137 41q-65 17 -115.5 40t-94 59t-66.5 89.5t-23 121.5z" />
<glyph unicode="t" horiz-adv-x="856" d="M41 915v50l313 325h45v-205h383v-170h-383v-587q0 -174 176 -174q123 0 216 59v-166q-101 -67 -263 -67q-69 0 -123 15t-100.5 50t-72 101t-25.5 161v608h-166z" />
<glyph unicode="u" d="M135 389v696h193v-653q0 -132 67 -200t189 -68q159 0 325 100v821h193v-1085h-180v137q-190 -157 -412 -157q-180 0 -277.5 105.5t-97.5 303.5z" />
<glyph unicode="v" horiz-adv-x="1144" d="M16 1085h209l350 -915l347 915h208l-446 -1085h-225z" />
<glyph unicode="w" horiz-adv-x="1751" d="M37 1085h209l237 -903l283 903h219l283 -903l239 903h207l-332 -1085h-225l-280 868l-285 -868h-223z" />
<glyph unicode="x" horiz-adv-x="1089" d="M18 0l388 549l-386 536h222l297 -430l297 430h219l-383 -534l387 -551h-221l-299 449l-301 -449h-220z" />
<glyph unicode="y" horiz-adv-x="1161" d="M33 1085h215l354 -839l344 839h213l-512 -1163q-115 -266 -342 -266q-79 0 -144.5 28t-105.5 64v191q39 -41 102 -74t138 -33q61 0 107 31.5t73 87.5l37 80z" />
<glyph unicode="z" horiz-adv-x="1118" d="M82 0v139l645 766h-604v180h874v-139l-649 -766h690v-180h-956z" />
<glyph unicode="{" horiz-adv-x="649" d="M31 584v143l45 10q36 8 59 16t46.5 23.5t34.5 40.5t11 60v395q0 95 61 148t156 53q84 0 160 -37v-162q-60 33 -110 33q-37 0 -61.5 -21t-24.5 -65v-357q0 -84 -52.5 -138t-126.5 -71q74 -17 126.5 -71t52.5 -138v-358q0 -43 24.5 -63.5t61.5 -22.5q50 2 110 35v-162 q-75 -37 -160 -39q-95 2 -156 55t-61 146v397q0 35 -11 60t-34.5 40t-46.5 23t-59 16z" />
<glyph unicode="|" horiz-adv-x="542" d="M178 -324v1733h187v-1733h-187z" />
<glyph unicode="}" horiz-adv-x="649" d="M45 37q60 -33 111 -35q37 2 61.5 22.5t24.5 63.5v358q0 84 52 138t126 71q-74 17 -126 71t-52 138v357q0 44 -24.5 65t-61.5 21q-50 0 -111 -33v162q76 37 160 37q95 0 156 -53t61 -148v-395q0 -35 11 -60t34.5 -40.5t46.5 -23.5t59 -16l45 -10v-143l-45 -11 q-36 -8 -59 -16t-46.5 -23t-34.5 -40t-11 -60v-397q0 -93 -61 -146t-156 -55q-85 2 -160 39v162z" />
<glyph unicode="~" horiz-adv-x="1044" d="M102 580v182q90 117 215 117q58 0 118 -26.5t103 -57.5t100.5 -57.5t111.5 -26.5q102 0 192 104v-182q-88 -101 -209 -101q-48 0 -95.5 17.5t-87.5 42t-79 49t-84.5 42t-89.5 17.5q-117 0 -195 -120z" />
<glyph unicode="&#xa1;" horiz-adv-x="563" d="M147 973q0 55 40 94t94 39q56 0 95.5 -39t39.5 -94t-40 -95t-95 -40q-54 0 -94 40t-40 95zM156 -324q0 182 19.5 513t19.5 448h172q0 -117 20.5 -448t20.5 -513h-252z" />
<glyph unicode="&#xa2;" horiz-adv-x="1056" d="M92 543q0 219 128 368.5t335 186.5v180h174v-172q157 -12 270 -92v-183q-132 95 -317 95q-176 0 -287.5 -104.5t-111.5 -278.5q0 -170 112 -275.5t285 -105.5q186 0 319 96v-182q-111 -79 -270 -94v-172h-174v180q-205 37 -334 188t-129 365z" />
<glyph unicode="&#xa3;" horiz-adv-x="1196" d="M61 612v144h172q-55 142 -55 266q0 177 125.5 292.5t343.5 115.5q256 0 481 -173v-219q-236 199 -460 199q-138 0 -206.5 -66.5t-68.5 -171.5q0 -102 56 -243h448v-144h-395q33 -101 33 -168q0 -81 -41 -138.5t-115 -115.5h764v-190h-1051v150q248 131 248 278 q0 69 -47 184h-232z" />
<glyph unicode="&#xa4;" horiz-adv-x="1169" d="M66 287l139 135q-70 114 -70 244q0 129 70 243l-139 135l124 127l136 -131q119 82 258 82q141 0 258 -84l137 133l123 -127l-139 -137q65 -111 65 -241q0 -133 -67 -242l141 -137l-123 -127l-137 133q-114 -84 -258 -84t-258 84l-136 -133zM309 666q0 -118 79 -201.5 t196 -83.5q114 0 192 83.5t78 201.5q0 119 -77.5 202.5t-192.5 83.5q-117 0 -196 -83t-79 -203z" />
<glyph unicode="&#xa5;" horiz-adv-x="1320" d="M10 1409h246l408 -588l405 588h244l-525 -709h476v-143h-502v-145h502v-146h-502v-266h-201v266h-504v146h504v145h-504v143h478z" />
<glyph unicode="&#xa6;" horiz-adv-x="542" d="M178 -324v705h187v-705h-187zM178 705v704h187v-704h-187z" />
<glyph unicode="&#xa7;" horiz-adv-x="1050" d="M100 811q0 124 80 201q-59 69 -59 176q0 137 105.5 222t297.5 85q110 0 217.5 -30t169.5 -70v-195q-63 49 -175 86t-222 37q-96 0 -151.5 -35t-55.5 -102q0 -68 52 -101.5t178 -68.5l135 -39q289 -78 289 -315q0 -124 -80 -201q59 -72 59 -176q0 -142 -109 -223.5 t-303 -81.5q-111 0 -230 34t-183 76v193q67 -50 190.5 -90.5t233.5 -40.5q213 0 213 135q0 36 -14 62t-47 45.5t-68 32.5t-95 30l-139 41q-145 40 -217 114t-72 199zM262 811q0 -73 48.5 -108.5t166.5 -69.5l162 -45q57 -13 121 -41q17 20 28 54t11 65q0 70 -51 106.5 t-152 65.5l-174 49q-79 22 -123 41q-15 -22 -26 -56t-11 -61z" />
<glyph unicode="&#xa8;" horiz-adv-x="782" d="M96 1382q0 45 33 78t78 33t77.5 -33t32.5 -78q0 -46 -32 -78t-78 -32t-78.5 32t-32.5 78zM465 1382q0 45 32 78t76 33q45 0 78 -33t33 -78q0 -46 -32.5 -78t-78.5 -32q-44 0 -76 32t-32 78z" />
<glyph unicode="&#xa9;" horiz-adv-x="1794" d="M100 705q0 -162 61.5 -309t167 -254t254 -170.5t314.5 -63.5q219 0 402 107.5t288 290.5t105 399t-105 399t-288 290t-402 107q-133 0 -255.5 -40.5t-220 -114t-170.5 -171.5t-112 -219t-39 -251zM233 705q0 135 51 257.5t139 211.5t211.5 141.5t262.5 52.5 q138 0 261.5 -52.5t211.5 -141.5t139.5 -211.5t51.5 -257.5q0 -181 -86.5 -334t-239.5 -242.5t-338 -89.5q-139 0 -262.5 53t-211.5 143t-139 212.5t-51 257.5zM475 705q0 -200 134.5 -328.5t336.5 -128.5q155 0 264 69v160q-111 -76 -258 -76q-136 0 -223.5 84.5 t-87.5 219.5q0 137 87 219t224 82q151 0 258 -76v164q-108 65 -262 65q-204 0 -338.5 -126.5t-134.5 -327.5z" />
<glyph unicode="&#xaa;" horiz-adv-x="571" d="M96 1096q0 59 50.5 95t134.5 36q53 0 96 -15v23q0 51 -30 76.5t-77 25.5q-95 0 -161 -73v98q28 26 76.5 47t105.5 21q81 0 132.5 -44t51.5 -137v-264h-92v59q-65 -65 -147 -65q-67 0 -103.5 31t-36.5 86zM188 1098q0 -45 66 -45q64 0 123 49v51q-45 10 -72 10 q-56 0 -86.5 -17.5t-30.5 -47.5z" />
<glyph unicode="&#xab;" horiz-adv-x="1050" d="M76 459l409 -228v181l-260 131l260 133v178l-409 -225v-170zM545 459l409 -228v181l-260 131l260 133v178l-409 -225v-170z" />
<glyph unicode="&#xad;" horiz-adv-x="630" d="M70 461v166h491v-166h-491z" />
<glyph unicode="&#xae;" horiz-adv-x="929" d="M106 1106q0 155 104.5 256.5t254.5 101.5t254 -101.5t104 -256.5q0 -154 -104 -256t-254 -102t-254.5 102.5t-104.5 255.5zM186 1106q0 -124 79.5 -202.5t199.5 -78.5q122 0 200 78t78 203t-78 202.5t-200 77.5q-120 0 -199.5 -78t-79.5 -202zM342 954v308h145 q57 0 89 -25.5t32 -75.5q0 -72 -71 -92l79 -115h-92l-67 109h-37v-109h-78zM420 1126h63q45 0 45 33q0 35 -45 35h-63v-68z" />
<glyph unicode="&#xaf;" horiz-adv-x="776" d="M96 1315v147h584v-147h-584z" />
<glyph unicode="&#xb0;" horiz-adv-x="909" d="M152 1137q0 -130 80 -211.5t206 -81.5t206.5 81.5t80.5 211.5t-80.5 211.5t-206.5 81.5t-206 -81.5t-80 -211.5zM274 1137q0 77 45.5 126.5t118.5 49.5t118.5 -49.5t45.5 -126.5t-45.5 -126.5t-118.5 -49.5t-118.5 49.5t-45.5 126.5z" />
<glyph unicode="&#xb1;" horiz-adv-x="1044" d="M102 227v174h330v283h-330v174h330v326h182v-326h328v-174h-328v-283h328v-174h-840z" />
<glyph unicode="&#xb2;" horiz-adv-x="630" d="M82 657v95l240 231q46 42 68 73.5t22 65.5q0 36 -25 59t-78 23q-57 0 -124 -33t-97 -65v137q42 34 110 59t134 25q108 0 162.5 -53t54.5 -133q0 -124 -141 -228l-154 -141h311v-115h-483z" />
<glyph unicode="&#xb3;" horiz-adv-x="620" d="M82 702v136q83 -74 205 -74q56 0 87.5 30t31.5 74q0 49 -37.5 76t-100.5 27h-100v65l199 164h-269v113h424v-103l-207 -161h31q89 0 143 -54.5t54 -134.5q0 -93 -64.5 -154t-179.5 -61q-124 0 -217 57z" />
<glyph unicode="&#xb4;" horiz-adv-x="628" d="M96 1229l201 319h233l-254 -319h-180z" />
<glyph unicode="&#xb5;" horiz-adv-x="1253" d="M143 -324v1409h193v-653q0 -132 67 -200t189 -68q155 0 326 104v817h192v-1085h-180v137q-190 -157 -410 -157q-165 0 -241 106l69 -410h-205z" />
<glyph unicode="&#xb6;" horiz-adv-x="915" d="M72 915q0 119 42 214t114.5 155.5t167.5 92.5t204 32h141v-1161q0 -153 -81 -242t-218 -119l-57 156q87 28 125.5 77t38.5 136v201q-14 -2 -49 -2q-192 0 -310 122.5t-118 337.5z" />
<glyph unicode="&#xb7;" horiz-adv-x="507" d="M135 623q0 48 34.5 83t84.5 35q49 0 84 -35t35 -83q0 -49 -34.5 -84t-84.5 -35q-51 0 -85 34.5t-34 84.5z" />
<glyph unicode="&#xb8;" horiz-adv-x="514" d="M96 -307l189 307h131l-158 -373z" />
<glyph unicode="&#xb9;" horiz-adv-x="581" d="M121 1174l55 139h232v-656h-144v517h-143z" />
<glyph unicode="&#xba;" horiz-adv-x="645" d="M96 1204q0 -96 65 -160.5t161 -64.5q98 0 161.5 64.5t63.5 160.5q0 97 -63.5 161.5t-161.5 64.5q-97 0 -161.5 -64.5t-64.5 -161.5zM195 1204q0 59 36 97t91 38q57 0 93 -38t36 -97t-36 -96t-93 -37q-56 0 -91.5 37.5t-35.5 95.5z" />
<glyph unicode="&#xbb;" horiz-adv-x="1050" d="M96 231l410 228v170l-410 225v-178l260 -133l-260 -131v-181zM565 231l410 228v170l-410 225v-178l260 -133l-260 -131v-181z" />
<glyph unicode="&#xbc;" horiz-adv-x="1507" d="M121 1174l55 139h232v-656h-144v517h-143zM176 0l897 1409h150l-893 -1409h-154zM827 137v111l347 407h131v-407h90v-111h-90v-137h-131v137h-347zM950 248h224v254z" />
<glyph unicode="&#xbd;" horiz-adv-x="1454" d="M121 1174l55 139h232v-656h-144v517h-143zM147 0l897 1409h150l-893 -1409h-154zM858 0v94l240 232q46 42 68 73.5t22 65.5q0 36 -25 59t-78 23q-57 0 -124 -33t-97 -65v137q42 34 110 59t134 25q108 0 162.5 -53.5t54.5 -133.5q0 -123 -141 -227l-154 -141h311v-115 h-483z" />
<glyph unicode="&#xbe;" horiz-adv-x="1546" d="M121 702v136q83 -74 205 -74q56 0 87 30t31 74q0 49 -37 76t-100 27h-100v65l199 164h-269v113h424v-103l-207 -161h31q89 0 143 -54.5t54 -134.5q0 -93 -64.5 -154t-179.5 -61q-124 0 -217 57zM238 0l897 1409h149l-893 -1409h-153zM866 137v111l346 407h131v-407h91 v-111h-91v-137h-131v137h-346zM989 248h223v254z" />
<glyph unicode="&#xbf;" horiz-adv-x="1050" d="M78 8q0 98 50.5 169.5t139.5 133.5l250 174v142h166v-199l-244 -180q-76 -53 -114.5 -100.5t-38.5 -112.5q0 -86 63 -136.5t172 -50.5q130 0 261 66t223 149v-219q-35 -29 -78.5 -56.5t-109.5 -60t-150.5 -52t-173.5 -19.5q-187 0 -301.5 92.5t-114.5 259.5zM457 973 q0 55 39.5 94t95.5 39q54 0 93.5 -39t39.5 -94t-39.5 -95t-93.5 -40q-56 0 -95.5 40t-39.5 95z" />
<glyph unicode="&#xc0;" horiz-adv-x="1462" d="M8 0l592 1409h262l594 -1409h-225l-172 418h-660l-172 -418h-219zM401 1790h234l201 -258h-179zM473 596h514l-256 623z" />
<glyph unicode="&#xc1;" horiz-adv-x="1462" d="M8 0l592 1409h262l594 -1409h-225l-172 418h-660l-172 -418h-219zM473 596h514l-256 623zM627 1532l200 258h234l-254 -258h-180z" />
<glyph unicode="&#xc2;" horiz-adv-x="1462" d="M8 0l592 1409h262l594 -1409h-225l-172 418h-660l-172 -418h-219zM395 1532l246 258h180l244 -258h-184l-150 149l-149 -149h-187zM473 596h514l-256 623z" />
<glyph unicode="&#xc3;" horiz-adv-x="1462" d="M8 0l592 1409h262l594 -1409h-225l-172 418h-660l-172 -418h-219zM416 1536v133q77 111 174 111q38 0 79.5 -17.5t72 -38t68.5 -38t71 -17.5q95 0 168 117v-137q-74 -107 -172 -107q-37 0 -78.5 17.5t-72.5 38t-70 38t-72 17.5q-91 0 -168 -117zM473 596h514l-256 623z " />
<glyph unicode="&#xc4;" horiz-adv-x="1462" d="M8 0l592 1409h262l594 -1409h-225l-172 418h-660l-172 -418h-219zM436 1659q0 45 32 73.5t79 28.5t78.5 -28.5t31.5 -73.5q0 -44 -32 -72t-78 -28q-47 0 -79 28t-32 72zM473 596h514l-256 623zM805 1659q0 45 31.5 73.5t76.5 28.5q47 0 79 -28.5t32 -73.5q0 -44 -32 -72 t-79 -28q-45 0 -76.5 28.5t-31.5 71.5z" />
<glyph unicode="&#xc5;" horiz-adv-x="1462" d="M8 0l572 1358q-82 69 -82 174q0 94 67.5 160.5t165.5 66.5q100 0 168 -66t68 -161q0 -108 -82 -174l571 -1358h-225l-172 418h-660l-172 -418h-219zM473 596h514l-256 623zM612 1532q0 -51 36.5 -86t84.5 -35q50 0 85.5 34.5t35.5 86.5t-35.5 86.5t-85.5 34.5 q-48 0 -84.5 -35t-36.5 -86z" />
<glyph unicode="&#xc6;" horiz-adv-x="2179" d="M4 0l957 1409h1128v-190h-817v-412h715v-191h-715v-426h817v-190h-1020v463h-510l-309 -463h-246zM680 641h389v582z" />
<glyph unicode="&#xc7;" horiz-adv-x="1363" d="M96 702q0 157 56 293t153.5 231t233.5 149.5t292 54.5q258 0 474 -130v-210q-212 149 -465 149q-232 0 -381.5 -149.5t-149.5 -387.5q0 -237 149.5 -385.5t381.5 -148.5q253 0 465 149v-211q-166 -99 -351 -122l-151 -357l-162 66l174 284q-204 4 -368 96.5t-257.5 257 t-93.5 371.5z" />
<glyph unicode="&#xc8;" horiz-adv-x="1280" d="M168 0v1409h1020v-190h-817v-412h714v-189h-714v-428h817v-190h-1020zM348 1790h234l200 -258h-178z" />
<glyph unicode="&#xc9;" horiz-adv-x="1280" d="M168 0v1409h1020v-190h-817v-412h714v-189h-714v-428h817v-190h-1020zM573 1532l201 258h234l-254 -258h-181z" />
<glyph unicode="&#xca;" horiz-adv-x="1280" d="M168 0v1409h1020v-190h-817v-412h714v-189h-714v-428h817v-190h-1020zM342 1532l246 258h180l244 -258h-185l-149 149l-150 -149h-186z" />
<glyph unicode="&#xcb;" horiz-adv-x="1280" d="M168 0v1409h1020v-190h-817v-412h714v-189h-714v-428h817v-190h-1020zM383 1659q0 45 32 73.5t79 28.5t78.5 -28.5t31.5 -73.5q0 -44 -32 -72t-78 -28q-47 0 -79 28t-32 72zM752 1659q0 45 31.5 73.5t76.5 28.5q47 0 79 -28.5t32 -73.5q0 -44 -32 -72t-79 -28 q-45 0 -76.5 28.5t-31.5 71.5z" />
<glyph unicode="&#xcc;" horiz-adv-x="538" d="M-59 1790h233l201 -258h-178zM168 0v1409h203v-1409h-203z" />
<glyph unicode="&#xcd;" horiz-adv-x="538" d="M166 1532l201 258h233l-254 -258h-180zM168 0v1409h203v-1409h-203z" />
<glyph unicode="&#xce;" horiz-adv-x="538" d="M-66 1532h187l149 149l150 -149h184l-244 258h-180zM168 0v1409h203v-1409h-203z" />
<glyph unicode="&#xcf;" horiz-adv-x="538" d="M-25 1659q0 45 32 73.5t79 28.5t79 -28.5t32 -73.5q0 -44 -32 -72t-79 -28t-79 28t-32 72zM168 0v1409h203v-1409h-203zM344 1659q0 45 32 73.5t77 28.5q47 0 78.5 -28.5t31.5 -73.5q0 -44 -32 -72t-78 -28q-45 0 -77 28.5t-32 71.5z" />
<glyph unicode="&#xd0;" horiz-adv-x="1527" d="M18 621v167h166v621h498q219 0 389.5 -88t265.5 -249.5t95 -369.5q0 -206 -95 -366t-265.5 -248t-389.5 -88h-498v621h-166zM385 190h297q246 0 396.5 140t150.5 372q0 234 -151 375.5t-396 141.5h-297v-431h471v-167h-471v-431z" />
<glyph unicode="&#xd1;" horiz-adv-x="1486" d="M154 0v1409h200l766 -1067v1067h203v-1409h-190l-777 1057v-1057h-202zM422 1536v133q77 111 174 111q38 0 79.5 -17.5t72 -38t68.5 -38t71 -17.5q95 0 168 117v-137q-74 -107 -172 -107q-37 0 -78.5 17.5t-72.5 38t-70 38t-72 17.5q-91 0 -168 -117z" />
<glyph unicode="&#xd2;" horiz-adv-x="1628" d="M96 702q0 -208 94 -373.5t258 -257t367 -91.5t366.5 91.5t257 256.5t93.5 374q0 210 -93.5 377t-257 259t-366.5 92t-367 -92t-258 -259t-94 -377zM309 702q0 232 143.5 378.5t362.5 146.5t362.5 -146.5t143.5 -378.5q0 -231 -143.5 -375.5t-362.5 -144.5t-362.5 144.5 t-143.5 375.5zM483 1790h234l201 -258h-179z" />
<glyph unicode="&#xd3;" horiz-adv-x="1628" d="M96 702q0 -208 94 -373.5t258 -257t367 -91.5t366.5 91.5t257 256.5t93.5 374q0 210 -93.5 377t-257 259t-366.5 92t-367 -92t-258 -259t-94 -377zM309 702q0 232 143.5 378.5t362.5 146.5t362.5 -146.5t143.5 -378.5q0 -231 -143.5 -375.5t-362.5 -144.5t-362.5 144.5 t-143.5 375.5zM709 1532l200 258h234l-254 -258h-180z" />
<glyph unicode="&#xd4;" horiz-adv-x="1628" d="M96 702q0 -208 94 -373.5t258 -257t367 -91.5t366.5 91.5t257 256.5t93.5 374q0 210 -93.5 377t-257 259t-366.5 92t-367 -92t-258 -259t-94 -377zM309 702q0 232 143.5 378.5t362.5 146.5t362.5 -146.5t143.5 -378.5q0 -231 -143.5 -375.5t-362.5 -144.5t-362.5 144.5 t-143.5 375.5zM477 1532h187l149 149l150 -149h184l-244 258h-180z" />
<glyph unicode="&#xd5;" horiz-adv-x="1628" d="M96 702q0 -208 94 -373.5t258 -257t367 -91.5t366.5 91.5t257 256.5t93.5 374q0 210 -93.5 377t-257 259t-366.5 92t-367 -92t-258 -259t-94 -377zM309 702q0 232 143.5 378.5t362.5 146.5t362.5 -146.5t143.5 -378.5q0 -231 -143.5 -375.5t-362.5 -144.5t-362.5 144.5 t-143.5 375.5zM498 1536v133q77 111 174 111q48 0 100 -28t101.5 -55.5t89.5 -27.5q94 0 167 117v-137q-74 -107 -172 -107q-47 0 -99.5 28t-102.5 55.5t-90 27.5q-91 0 -168 -117z" />
<glyph unicode="&#xd6;" horiz-adv-x="1628" d="M96 702q0 -208 94 -373.5t258 -257t367 -91.5t366.5 91.5t257 256.5t93.5 374q0 210 -93.5 377t-257 259t-366.5 92t-367 -92t-258 -259t-94 -377zM309 702q0 232 143.5 378.5t362.5 146.5t362.5 -146.5t143.5 -378.5q0 -231 -143.5 -375.5t-362.5 -144.5t-362.5 144.5 t-143.5 375.5zM520 1659q0 45 32 73.5t79 28.5t78.5 -28.5t31.5 -73.5q0 -44 -32 -72t-78 -28q-47 0 -79 28t-32 72zM889 1659q0 45 31.5 73.5t76.5 28.5q47 0 79 -28.5t32 -73.5q0 -44 -32 -72t-79 -28q-45 0 -76.5 28.5t-31.5 71.5z" />
<glyph unicode="&#xd7;" horiz-adv-x="1042" d="M141 451l254 254l-250 249l127 129l250 -249l252 251l129 -127l-254 -251l250 -250l-129 -129l-250 250l-252 -252z" />
<glyph unicode="&#xd8;" horiz-adv-x="1767" d="M37 0l268 260q-139 188 -139 442q0 210 94 377t258 259t367 92q270 0 463 -160l143 139h242l-271 -260q140 -193 140 -447q0 -208 -94 -373.5t-257.5 -257t-365.5 -91.5q-269 0 -465 157l-141 -137h-242zM369 702q0 -169 82 -301l753 729q-131 107 -319 107 q-224 0 -370 -149t-146 -386zM563 276q135 -104 322 -104q222 0 368 147.5t146 382.5q0 172 -82 304z" />
<glyph unicode="&#xd9;" horiz-adv-x="1478" d="M154 584v825h211v-827q0 -191 93.5 -296.5t280.5 -105.5q188 0 281.5 105.5t93.5 296.5v827h211v-825q0 -137 -34.5 -246t-104.5 -190t-183 -124.5t-264 -43.5t-264 43.5t-182.5 124.5t-104 190t-34.5 246zM410 1790h233l201 -258h-178z" />
<glyph unicode="&#xda;" horiz-adv-x="1478" d="M154 584v825h211v-827q0 -191 93.5 -296.5t280.5 -105.5q188 0 281.5 105.5t93.5 296.5v827h211v-825q0 -137 -34.5 -246t-104.5 -190t-183 -124.5t-264 -43.5t-264 43.5t-182.5 124.5t-104 190t-34.5 246zM635 1532l201 258h233l-254 -258h-180z" />
<glyph unicode="&#xdb;" horiz-adv-x="1478" d="M154 584v825h211v-827q0 -191 93.5 -296.5t280.5 -105.5q188 0 281.5 105.5t93.5 296.5v827h211v-825q0 -137 -34.5 -246t-104.5 -190t-183 -124.5t-264 -43.5t-264 43.5t-182.5 124.5t-104 190t-34.5 246zM403 1532h187l149 149l150 -149h184l-244 258h-180z" />
<glyph unicode="&#xdc;" horiz-adv-x="1478" d="M154 584v825h211v-827q0 -191 93.5 -296.5t280.5 -105.5q188 0 281.5 105.5t93.5 296.5v827h211v-825q0 -137 -34.5 -246t-104.5 -190t-183 -124.5t-264 -43.5t-264 43.5t-182.5 124.5t-104 190t-34.5 246zM444 1659q0 45 32 73.5t79 28.5t79 -28.5t32 -73.5 q0 -44 -32 -72t-79 -28t-79 28t-32 72zM813 1659q0 45 32 73.5t77 28.5q47 0 78.5 -28.5t31.5 -73.5q0 -44 -32 -72t-78 -28q-45 0 -77 28.5t-32 71.5z" />
<glyph unicode="&#xdd;" horiz-adv-x="1312" d="M6 1409h230l423 -676l420 676h230l-551 -860v-549h-203v547zM551 1532l201 258h233l-254 -258h-180z" />
<glyph unicode="&#xde;" horiz-adv-x="1337" d="M168 0v1409h203v-217h350q252 0 401.5 -125t149.5 -365q0 -154 -70.5 -264t-193.5 -164.5t-287 -54.5h-350v-219h-203zM371 410h334q163 0 258.5 73t95.5 219q0 154 -94 226.5t-260 72.5h-334v-591z" />
<glyph unicode="&#xdf;" horiz-adv-x="1376" d="M49 905v180h199q40 161 169 253t324 92q187 0 300.5 -98.5t113.5 -250.5q0 -122 -86 -229l-61 -76q-25 -31 -37 -47.5t-21.5 -37t-9.5 -38.5q0 -34 27.5 -60t89.5 -63l76 -45q161 -98 161 -243q0 -122 -85 -192t-236 -70q-98 0 -194.5 26t-166.5 64v174q68 -43 170 -76 t185 -33q143 0 143 105q0 41 -30.5 72t-104.5 73l-68 37q-76 43 -115.5 87.5t-39.5 113.5q0 33 12.5 66.5t27 56.5t42.5 61l65 86q66 93 66 172q0 81 -60.5 134.5t-175.5 53.5q-147 0 -226 -81t-79 -228v-944h-193v905h-182z" />
<glyph unicode="&#xe0;" horiz-adv-x="1110" d="M86 270q0 144 126 237t333 93q133 0 239 -39v98q0 130 -76.5 193t-195.5 63q-121 0 -230 -50t-184 -126v199q63 65 182 116.5t257 51.5q92 0 169 -24.5t139 -75.5t97 -139t35 -205v-662h-180v143q-66 -71 -160 -117t-207 -46q-163 0 -253.5 77t-90.5 213zM201 1548h233 l201 -319h-178zM266 279q0 -76 54 -113t141 -37q171 0 323 127v184q-94 27 -192 27q-158 0 -242 -50.5t-84 -137.5z" />
<glyph unicode="&#xe1;" horiz-adv-x="1110" d="M86 270q0 144 126 237t333 93q133 0 239 -39v98q0 130 -76.5 193t-195.5 63q-121 0 -230 -50t-184 -126v199q63 65 182 116.5t257 51.5q92 0 169 -24.5t139 -75.5t97 -139t35 -205v-662h-180v143q-66 -71 -160 -117t-207 -46q-163 0 -253.5 77t-90.5 213zM266 279 q0 -76 54 -113t141 -37q171 0 323 127v184q-94 27 -192 27q-158 0 -242 -50.5t-84 -137.5zM428 1229l201 319h233l-254 -319h-180z" />
<glyph unicode="&#xe2;" horiz-adv-x="1110" d="M86 270q0 144 126 237t333 93q133 0 239 -39v98q0 130 -76.5 193t-195.5 63q-121 0 -230 -50t-184 -126v199q63 65 182 116.5t257 51.5q92 0 169 -24.5t139 -75.5t97 -139t35 -205v-662h-180v143q-66 -71 -160 -117t-207 -46q-163 0 -253.5 77t-90.5 213zM197 1229 l245 319h181l243 -319h-184l-150 201l-149 -201h-186zM266 279q0 -76 54 -113t141 -37q171 0 323 127v184q-94 27 -192 27q-158 0 -242 -50.5t-84 -137.5z" />
<glyph unicode="&#xe3;" horiz-adv-x="1110" d="M86 270q0 144 126 237t333 93q133 0 239 -39v98q0 130 -76.5 193t-195.5 63q-121 0 -230 -50t-184 -126v199q63 65 182 116.5t257 51.5q92 0 169 -24.5t139 -75.5t97 -139t35 -205v-662h-180v143q-66 -71 -160 -117t-207 -46q-163 0 -253.5 77t-90.5 213zM215 1249v148 q77 110 174 110q38 0 79.5 -17.5t72 -38.5t68.5 -38.5t71 -17.5q95 0 168 116v-149q-75 -109 -172 -109q-37 0 -78.5 17.5t-72.5 39t-70 39t-72 17.5q-91 0 -168 -117zM266 279q0 -76 54 -113t141 -37q171 0 323 127v184q-94 27 -192 27q-158 0 -242 -50.5t-84 -137.5z" />
<glyph unicode="&#xe4;" horiz-adv-x="1110" d="M86 270q0 144 126 237t333 93q133 0 239 -39v98q0 130 -76.5 193t-195.5 63q-121 0 -230 -50t-184 -126v199q63 65 182 116.5t257 51.5q92 0 169 -24.5t139 -75.5t97 -139t35 -205v-662h-180v143q-66 -71 -160 -117t-207 -46q-163 0 -253.5 77t-90.5 213zM238 1382 q0 45 32.5 78t77.5 33t78 -33t33 -78q0 -46 -32.5 -78t-78.5 -32t-78 32t-32 78zM266 279q0 -76 54 -113t141 -37q171 0 323 127v184q-94 27 -192 27q-158 0 -242 -50.5t-84 -137.5zM606 1382q0 44 32.5 77.5t76.5 33.5q45 0 77.5 -33t32.5 -78q0 -46 -32 -78t-78 -32 q-45 0 -77 32t-32 78z" />
<glyph unicode="&#xe5;" horiz-adv-x="1110" d="M86 270q0 144 126 237t333 93q133 0 239 -39v98q0 130 -76.5 193t-195.5 63q-121 0 -230 -50t-184 -126v199q63 65 182 116.5t257 51.5q92 0 169 -24.5t139 -75.5t97 -139t35 -205v-662h-180v143q-66 -71 -160 -117t-207 -46q-163 0 -253.5 77t-90.5 213zM266 279 q0 -76 54 -113t141 -37q171 0 323 127v184q-94 27 -192 27q-158 0 -242 -50.5t-84 -137.5zM305 1423q0 96 68.5 162t167.5 66t167 -66t68 -162q0 -94 -68 -160.5t-167 -66.5t-167.5 66.5t-68.5 160.5zM422 1423q0 -52 35.5 -86t85.5 -34t84.5 34t34.5 86t-34.5 86.5 t-84.5 34.5t-85.5 -34.5t-35.5 -86.5z" />
<glyph unicode="&#xe6;" horiz-adv-x="1865" d="M86 274q0 144 121 235t330 91q138 0 247 -37v96q0 131 -75 193.5t-199 62.5q-118 0 -219.5 -49.5t-175.5 -128.5v199q63 67 175 118.5t249 51.5q258 0 368 -170q143 172 391 172q222 0 344.5 -140.5t122.5 -394.5v-90h-786q10 -159 112.5 -240t276.5 -81 q105 0 208.5 24.5t166.5 59.5v-170q-58 -42 -169 -69t-224 -27q-152 0 -271 52.5t-192 153.5q-74 -92 -190 -149t-259 -57q-167 0 -259.5 80.5t-92.5 213.5zM266 283q0 -78 55.5 -116t147.5 -38q217 0 365 154q-32 74 -43 155q-101 29 -199 29q-164 0 -245 -49t-81 -135z M977 614h600q-3 157 -76 242.5t-213 85.5q-136 0 -220 -87t-91 -241z" />
<glyph unicode="&#xe7;" horiz-adv-x="1083" d="M92 543q0 167 77 296.5t210.5 199t298.5 69.5q198 0 323 -84v-193q-132 95 -317 95q-176 0 -287.5 -104.5t-111.5 -278.5q0 -170 112 -275.5t285 -105.5q186 0 319 96v-192q-92 -63 -239 -82l-152 -357l-161 66l176 289q-231 17 -382 173t-151 388z" />
<glyph unicode="&#xe8;" horiz-adv-x="1173" d="M92 543q0 262 141.5 413.5t372.5 151.5q222 0 344.5 -140.5t122.5 -394.5v-90h-786q10 -159 112.5 -240t276.5 -81q105 0 208.5 24.5t166.5 59.5v-170q-58 -42 -169 -69t-225 -27q-256 0 -410.5 146.5t-154.5 416.5zM254 1548h233l201 -319h-178zM285 614h600 q-3 157 -76 242.5t-213 85.5q-136 0 -220 -87t-91 -241z" />
<glyph unicode="&#xe9;" horiz-adv-x="1173" d="M92 543q0 262 141.5 413.5t372.5 151.5q222 0 344.5 -140.5t122.5 -394.5v-90h-786q10 -159 112.5 -240t276.5 -81q105 0 208.5 24.5t166.5 59.5v-170q-58 -42 -169 -69t-225 -27q-256 0 -410.5 146.5t-154.5 416.5zM285 614h600q-3 157 -76 242.5t-213 85.5 q-136 0 -220 -87t-91 -241zM479 1229l201 319h233l-254 -319h-180z" />
<glyph unicode="&#xea;" horiz-adv-x="1173" d="M92 543q0 262 141.5 413.5t372.5 151.5q222 0 344.5 -140.5t122.5 -394.5v-90h-786q10 -159 112.5 -240t276.5 -81q105 0 208.5 24.5t166.5 59.5v-170q-58 -42 -169 -69t-225 -27q-256 0 -410.5 146.5t-154.5 416.5zM248 1229l246 319h180l244 -319h-185l-149 201 l-150 -201h-186zM285 614h600q-3 157 -76 242.5t-213 85.5q-136 0 -220 -87t-91 -241z" />
<glyph unicode="&#xeb;" horiz-adv-x="1173" d="M92 543q0 262 141.5 413.5t372.5 151.5q222 0 344.5 -140.5t122.5 -394.5v-90h-786q10 -159 112.5 -240t276.5 -81q105 0 208.5 24.5t166.5 59.5v-170q-58 -42 -169 -69t-225 -27q-256 0 -410.5 146.5t-154.5 416.5zM285 614h600q-3 157 -76 242.5t-213 85.5 q-136 0 -220 -87t-91 -241zM289 1382q0 45 32.5 78t77.5 33t78 -33t33 -78q0 -46 -32.5 -78t-78.5 -32t-78 32t-32 78zM657 1382q0 44 32.5 77.5t76.5 33.5q45 0 78 -33t33 -78q0 -46 -32.5 -78t-78.5 -32q-44 0 -76.5 32t-32.5 78z" />
<glyph unicode="&#xec;" horiz-adv-x="477" d="M-90 1548h233l201 -319h-178zM143 0v1085h193v-1085h-193z" />
<glyph unicode="&#xed;" horiz-adv-x="477" d="M135 1229l201 319h233l-254 -319h-180zM143 0v1085h193v-1085h-193z" />
<glyph unicode="&#xee;" horiz-adv-x="477" d="M-96 1229h186l150 201l149 -201h184l-243 319h-180zM143 0v1085h193v-1085h-193z" />
<glyph unicode="&#xef;" horiz-adv-x="477" d="M-55 1382q0 45 32.5 78t77.5 33t78 -33t33 -78q0 -46 -32.5 -78t-78.5 -32t-78 32t-32 78zM143 0v1085h193v-1085h-193zM313 1382q0 44 32.5 77.5t76.5 33.5q45 0 77.5 -33t32.5 -78q0 -46 -32 -78t-78 -32q-44 0 -76.5 32t-32.5 78z" />
<glyph unicode="&#xf0;" horiz-adv-x="1286" d="M92 469q0 196 133.5 318t337.5 122q231 0 383 -145q-71 192 -262 383l-248 -131h-186l366 194q-131 120 -262 199h283q70 -42 149 -109l203 109h187l-322 -172q143 -140 236.5 -318t93.5 -374q0 -269 -150 -417t-401 -148q-243 0 -392 131.5t-149 357.5zM303 469 q0 -137 90.5 -218t233.5 -81q154 0 250 97t96 282q0 32 -6 59q-149 135 -353 135q-136 0 -223.5 -74t-87.5 -200z" />
<glyph unicode="&#xf1;" d="M143 0v1085h181v-137q191 158 409 158q181 0 279 -105.5t98 -304.5v-696h-192v653q0 132 -67 200.5t-189 68.5q-159 0 -326 -99v-823h-193zM311 1249v148q77 110 174 110q38 0 79.5 -17.5t72 -38.5t68.5 -38.5t71 -17.5q95 0 168 116v-149q-75 -109 -172 -109 q-37 0 -78.5 17.5t-72.5 39t-70 39t-72 17.5q-91 0 -168 -117z" />
<glyph unicode="&#xf2;" horiz-adv-x="1310" d="M92 543q0 -240 160 -401.5t403 -161.5t403.5 161.5t160.5 401.5q0 243 -160 403t-404 160t-403.5 -160t-159.5 -403zM283 543q0 167 106 275t266 108q162 0 267.5 -108t105.5 -275q0 -166 -106 -274.5t-267 -108.5q-160 0 -266 109.5t-106 273.5zM326 1548h233l201 -319 h-178z" />
<glyph unicode="&#xf3;" horiz-adv-x="1310" d="M92 543q0 -240 160 -401.5t403 -161.5t403.5 161.5t160.5 401.5q0 243 -160 403t-404 160t-403.5 -160t-159.5 -403zM283 543q0 167 106 275t266 108q162 0 267.5 -108t105.5 -275q0 -166 -106 -274.5t-267 -108.5q-160 0 -266 109.5t-106 273.5zM551 1229l201 319h233 l-254 -319h-180z" />
<glyph unicode="&#xf4;" horiz-adv-x="1310" d="M92 543q0 -240 160 -401.5t403 -161.5t403.5 161.5t160.5 401.5q0 243 -160 403t-404 160t-403.5 -160t-159.5 -403zM283 543q0 167 106 275t266 108q162 0 267.5 -108t105.5 -275q0 -166 -106 -274.5t-267 -108.5q-160 0 -266 109.5t-106 273.5zM319 1229h187l149 201 l150 -201h184l-244 319h-180z" />
<glyph unicode="&#xf5;" horiz-adv-x="1310" d="M92 543q0 -240 160 -401.5t403 -161.5t403.5 161.5t160.5 401.5q0 243 -160 403t-404 160t-403.5 -160t-159.5 -403zM283 543q0 167 106 275t266 108q162 0 267.5 -108t105.5 -275q0 -166 -106 -274.5t-267 -108.5q-160 0 -266 109.5t-106 273.5zM338 1249v148 q77 110 174 110q38 0 79.5 -17.5t72 -38.5t68.5 -38.5t71 -17.5q95 0 168 116v-149q-75 -109 -172 -109q-37 0 -78.5 17.5t-72.5 39t-70 39t-72 17.5q-91 0 -168 -117z" />
<glyph unicode="&#xf6;" horiz-adv-x="1310" d="M92 543q0 -240 160 -401.5t403 -161.5t403.5 161.5t160.5 401.5q0 243 -160 403t-404 160t-403.5 -160t-159.5 -403zM283 543q0 167 106 275t266 108q162 0 267.5 -108t105.5 -275q0 -166 -106 -274.5t-267 -108.5q-160 0 -266 109.5t-106 273.5zM360 1382q0 45 33 78 t78 33t78 -33t33 -78q0 -46 -32.5 -78t-78.5 -32t-78.5 32t-32.5 78zM729 1382q0 44 32.5 77.5t76.5 33.5q45 0 77.5 -33t32.5 -78q0 -46 -32 -78t-78 -32q-44 0 -76.5 32t-32.5 78z" />
<glyph unicode="&#xf7;" horiz-adv-x="1044" d="M102 618v175h840v-175h-840zM385 317q0 56 39 96t94 40t95 -40t40 -96q0 -54 -40 -93.5t-95 -39.5t-94 39.5t-39 93.5zM385 1090q0 56 39 95.5t94 39.5q56 0 95.5 -39.5t39.5 -95.5q0 -54 -40 -94t-95 -40t-94 40t-39 94z" />
<glyph unicode="&#xf8;" horiz-adv-x="1329" d="M33 0l188 184q-121 153 -121 359q0 243 160.5 403t403.5 160q212 0 368 -127l107 106h157l-188 -184q121 -149 121 -358q0 -158 -72 -286.5t-202 -202.5t-291 -74q-214 0 -365 126l-109 -106h-157zM293 543q0 -127 65 -224l539 529q-100 78 -233 78q-160 0 -265.5 -108 t-105.5 -275zM432 238q100 -78 232 -78q161 0 266.5 108.5t105.5 274.5q0 129 -63 223z" />
<glyph unicode="&#xf9;" d="M135 389v696h193v-653q0 -132 67 -200t189 -68q159 0 325 100v821h193v-1085h-180v137q-190 -157 -412 -157q-180 0 -277.5 105.5t-97.5 303.5zM289 1548h233l201 -319h-178z" />
<glyph unicode="&#xfa;" d="M135 389v696h193v-653q0 -132 67 -200t189 -68q159 0 325 100v821h193v-1085h-180v137q-190 -157 -412 -157q-180 0 -277.5 105.5t-97.5 303.5zM514 1229l201 319h233l-254 -319h-180z" />
<glyph unicode="&#xfb;" d="M135 389v696h193v-653q0 -132 67 -200t189 -68q159 0 325 100v821h193v-1085h-180v137q-190 -157 -412 -157q-180 0 -277.5 105.5t-97.5 303.5zM283 1229l245 319h181l243 -319h-184l-150 201l-149 -201h-186z" />
<glyph unicode="&#xfc;" d="M135 389v696h193v-653q0 -132 67 -200t189 -68q159 0 325 100v821h193v-1085h-180v137q-190 -157 -412 -157q-180 0 -277.5 105.5t-97.5 303.5zM324 1382q0 45 32.5 78t77.5 33t78 -33t33 -78q0 -46 -32.5 -78t-78.5 -32t-78 32t-32 78zM692 1382q0 44 32.5 77.5 t76.5 33.5q45 0 77.5 -33t32.5 -78q0 -46 -32 -78t-78 -32q-45 0 -77 32t-32 78z" />
<glyph unicode="&#xfd;" horiz-adv-x="1161" d="M33 1085h215l354 -839l344 839h213l-512 -1163q-115 -266 -342 -266q-79 0 -144.5 28t-105.5 64v191q39 -41 102 -74t138 -33q61 0 107 31.5t73 87.5l37 80zM492 1229l200 319h234l-254 -319h-180z" />
<glyph unicode="&#xfe;" horiz-adv-x="1230" d="M143 -324v1733l193 31v-443q142 109 326 109q97 0 182 -33.5t151.5 -98t105 -168.5t38.5 -235q0 -145 -48 -260t-130 -186t-186.5 -108t-223.5 -37q-116 0 -215 26v-330h-193zM336 186q104 -34 207 -34q178 0 287.5 103t109.5 304q0 177 -90 276t-242 99q-144 0 -272 -90 v-658z" />
<glyph unicode="&#xff;" horiz-adv-x="1161" d="M33 1085h215l354 -839l344 839h213l-512 -1163q-115 -266 -342 -266q-79 0 -144.5 28t-105.5 64v191q39 -41 102 -74t138 -33q61 0 107 31.5t73 87.5l37 80zM301 1382q0 45 33 78t78 33t77.5 -33t32.5 -78q0 -46 -32 -78t-78 -32t-78.5 32t-32.5 78zM670 1382q0 45 32 78 t76 33q45 0 78 -33t33 -78q0 -46 -32.5 -78t-78.5 -32q-44 0 -76 32t-32 78z" />
<glyph unicode="&#x152;" horiz-adv-x="2318" d="M96 702q0 210 94 377t258 259t367 92q95 0 180 -21h1231v-190h-891q161 -168 191 -412h598v-191h-596q-27 -255 -193 -426h891v-190h-1231q-81 -20 -180 -20q-203 0 -367 91.5t-258 257t-94 373.5zM299 702q0 -117 39.5 -216.5t108.5 -168t164 -107t204 -38.5t204 38.5 t164 107t108.5 168t39.5 216.5q0 237 -147 386t-369 149q-224 0 -370 -149t-146 -386z" />
<glyph unicode="&#x153;" horiz-adv-x="2109" d="M92 543q0 159 74 288.5t202.5 202t286.5 72.5q140 0 259.5 -59.5t197.5 -163.5q66 109 176.5 167t251.5 58q223 0 346 -140.5t123 -394.5v-90h-788q10 -159 112.5 -240t278.5 -81q103 0 207.5 24.5t167.5 59.5v-170q-60 -43 -170.5 -69.5t-225.5 -26.5q-159 0 -282.5 58 t-194.5 171q-76 -107 -196 -168t-263 -61q-239 0 -401 162t-162 401zM283 543q0 -164 107.5 -273.5t264.5 -109.5q150 0 255.5 98t115.5 250v35v35q-10 153 -115.5 250.5t-255.5 97.5q-158 0 -265 -108.5t-107 -274.5zM1219 614h602q-3 156 -77 242t-214 86q-136 0 -220 -87 t-91 -241z" />
<glyph unicode="&#x178;" horiz-adv-x="1312" d="M6 1409h230l423 -676l420 676h230l-551 -860v-549h-203v547zM362 1659q0 45 32 73.5t79 28.5t79 -28.5t32 -73.5q0 -44 -32 -72t-79 -28t-79 28t-32 72zM731 1659q0 45 32 73.5t77 28.5q47 0 78.5 -28.5t31.5 -73.5q0 -44 -32 -72t-78 -28q-45 0 -77 28.5t-32 71.5z" />
<glyph unicode="&#x2c6;" horiz-adv-x="864" d="M96 1229h187l149 201l150 -201h184l-244 319h-180z" />
<glyph unicode="&#x2dc;" horiz-adv-x="825" d="M96 1249v148q77 110 174 110q38 0 79.5 -17.5t72 -38.5t68.5 -38.5t71 -17.5q95 0 168 116v-149q-75 -109 -172 -109q-37 0 -78.5 17.5t-72.5 39t-70 39t-72 17.5q-91 0 -168 -117z" />
<glyph unicode="&#x2000;" horiz-adv-x="895" />
<glyph unicode="&#x2001;" horiz-adv-x="1790" />
<glyph unicode="&#x2002;" horiz-adv-x="895" />
<glyph unicode="&#x2003;" horiz-adv-x="1790" />
<glyph unicode="&#x2004;" horiz-adv-x="596" />
<glyph unicode="&#x2005;" horiz-adv-x="447" />
<glyph unicode="&#x2006;" horiz-adv-x="298" />
<glyph unicode="&#x2007;" horiz-adv-x="298" />
<glyph unicode="&#x2008;" horiz-adv-x="223" />
<glyph unicode="&#x2009;" horiz-adv-x="358" />
<glyph unicode="&#x200a;" horiz-adv-x="99" />
<glyph unicode="&#x2010;" horiz-adv-x="630" d="M70 461v166h491v-166h-491z" />
<glyph unicode="&#x2011;" horiz-adv-x="630" d="M70 461v166h491v-166h-491z" />
<glyph unicode="&#x2012;" horiz-adv-x="630" d="M70 461v166h491v-166h-491z" />
<glyph unicode="&#x2013;" horiz-adv-x="1001" d="M70 461v166h860v-166h-860z" />
<glyph unicode="&#x2014;" horiz-adv-x="1624" d="M70 461v166h1484v-166h-1484z" />
<glyph unicode="&#x2018;" horiz-adv-x="395" d="M49 987l135 422h142l-82 -422h-195z" />
<glyph unicode="&#x2019;" horiz-adv-x="395" d="M70 987l82 422h192l-133 -422h-141z" />
<glyph unicode="&#x201a;" horiz-adv-x="395" d="M70 -246l82 422h192l-133 -422h-141z" />
<glyph unicode="&#x201c;" horiz-adv-x="720" d="M49 987l135 422h142l-82 -422h-195zM375 987l135 422h139l-80 -422h-194z" />
<glyph unicode="&#x201d;" horiz-adv-x="720" d="M70 987l82 422h192l-133 -422h-141zM395 987l82 422h193l-133 -422h-142z" />
<glyph unicode="&#x201e;" horiz-adv-x="720" d="M70 -246l82 422h192l-133 -422h-141zM395 -246l82 422h193l-133 -422h-142z" />
<glyph unicode="&#x2022;" horiz-adv-x="724" d="M96 705q0 113 77 189.5t189 76.5q113 0 191 -77t78 -189t-78 -189.5t-191 -77.5q-112 0 -189 77t-77 190z" />
<glyph unicode="&#x2026;" horiz-adv-x="1343" d="M59 113q0 55 40 95t94 40q55 0 95 -40t40 -95t-39.5 -94t-95.5 -39q-54 0 -94 39t-40 94zM539 113q0 56 39 95.5t94 39.5t94 -39.5t39 -95.5q0 -55 -38.5 -94t-94.5 -39t-94.5 39t-38.5 94zM1016 113q0 56 39 95.5t94 39.5t95 -40t40 -95t-39.5 -94t-95.5 -39 q-55 0 -94 39t-39 94z" />
<glyph unicode="&#x202f;" horiz-adv-x="358" />
<glyph unicode="&#x2039;" horiz-adv-x="581" d="M76 459l409 -228v181l-260 131l260 133v178l-409 -225v-170z" />
<glyph unicode="&#x203a;" horiz-adv-x="581" d="M96 231l410 228v170l-410 225v-178l260 -133l-260 -131v-181z" />
<glyph unicode="&#x205f;" horiz-adv-x="447" />
<glyph unicode="&#x20ac;" horiz-adv-x="1433" d="M18 498v143h189q-2 20 -2 61q0 28 4 82h-191v146h213q61 236 240.5 368t425.5 132q140 0 244 -35t198 -95v-210q-195 149 -434 149q-161 0 -281 -79.5t-173 -229.5h516v-146h-547q-4 -54 -4 -82q0 -41 2 -61h549v-143h-523q48 -159 171 -244.5t290 -85.5q135 0 238.5 38 t195.5 101v-211q-98 -57 -199.5 -88t-242.5 -31q-252 0 -433 137.5t-237 383.5h-209z" />
<glyph unicode="&#x2122;" horiz-adv-x="931" d="M106 1253v70h295v-70h-108v-237h-76v237h-111zM459 1016v307h100l84 -229l82 229h100v-307h-73v198l-70 -198h-80l-70 198v-198h-73z" />
<glyph unicode="&#x25fc;" horiz-adv-x="1085" d="M0 0v1085h1085v-1085h-1085z" />
<glyph unicode="&#xfb03;" horiz-adv-x="1798" d="M49 915v170h158v2q0 89 28 158.5t77.5 111.5t111 63.5t133.5 21.5q88 0 156 -31v-160q-64 31 -135 31q-85 0 -132 -50t-47 -142v-5h428v13q0 77 19.5 137.5t51 99t76.5 63.5t92.5 35.5t100.5 10.5q41 0 111 -12v-160q-46 12 -90 12q-170 0 -170 -172v-27h620v-1085h-190 v915h-430v-915h-191v915h-428v-915h-192v915h-158zM1401 1350q0 52 37 83t100 31q64 0 101.5 -30.5t37.5 -83.5q0 -51 -37.5 -82t-101.5 -31q-63 0 -100 31t-37 82z" />
<glyph unicode="&#xfb04;" horiz-adv-x="1792" d="M49 915v170h158v2q0 89 28 158.5t77.5 111.5t111 63.5t133.5 21.5q88 0 156 -31v-160q-64 31 -135 31q-85 0 -132 -50t-47 -142v-5h428v2q0 91 30.5 160.5t83 110t116.5 60.5t137 20q149 0 264 -54l180 56v-1440h-190v1235q-111 49 -223 49q-207 0 -207 -186v-13h239 v-170h-239v-915h-191v915h-428v-915h-192v915h-158z" />
</font>
</defs>
</svg>
