<?xml version="1.0" standalone="no"?>
<!DOCTYPE svg PUBLIC "-//W3C//DTD SVG 1.1//EN" "http://www.w3.org/Graphics/SVG/1.1/DTD/svg11.dtd" >
<svg xmlns="http://www.w3.org/2000/svg" xmlns:xlink="http://www.w3.org/1999/xlink" version="1.1">
<metadata></metadata>
<defs>
<font id="roundosemibold" horiz-adv-x="1523" >
<font-face units-per-em="2048" ascent="1536" descent="-512" />
<missing-glyph horiz-adv-x="399" />
<glyph unicode="&#xfb01;" horiz-adv-x="1241" d="M35 854v231h149q3 99 35.5 172.5t86 114.5t117 60.5t136.5 19.5q39 0 113 -12v-213q-36 10 -80 10q-143 0 -143 -145v-7h657v-1085h-264v854h-393v-854h-265v854h-149zM793 1352q0 66 47.5 102.5t132.5 36.5t131.5 -36.5t46.5 -102.5t-47 -104t-131 -38t-132 38t-48 104z " />
<glyph unicode="&#xfb02;" horiz-adv-x="1230" d="M35 854v231h149q4 90 38 160.5t90.5 113.5t126.5 65t149 22q81 0 152.5 -16t113.5 -37l252 53v-1446h-264v1192q-99 47 -205 47q-86 0 -135 -35t-53 -119h215v-231h-215v-854h-265v854h-149z" />
<glyph horiz-adv-x="0" />
<glyph horiz-adv-x="682" />
<glyph horiz-adv-x="0" />
<glyph horiz-adv-x="0" />
<glyph unicode="&#xd;" horiz-adv-x="399" />
<glyph unicode=" "  horiz-adv-x="399" />
<glyph unicode="&#x09;" horiz-adv-x="399" />
<glyph unicode="&#xa0;" horiz-adv-x="399" />
<glyph unicode="!" horiz-adv-x="600" d="M127 1409h346q0 -211 -25.5 -520.5t-25.5 -423.5h-244q0 114 -25.5 423.5t-25.5 520.5zM131 143q0 71 50 121.5t120 50.5q71 0 121.5 -50.5t50.5 -121.5q0 -70 -50.5 -120t-121.5 -50t-120.5 49.5t-49.5 120.5z" />
<glyph unicode="&#x22;" horiz-adv-x="747" d="M86 1409h242l-27 -455h-195zM420 1409h242l-27 -455h-193z" />
<glyph unicode="#" horiz-adv-x="1372" d="M41 338l39 192h203l53 267h-203l37 192h205l65 324h222l-66 -324h285l65 324h221l-65 -324h231l-39 -192h-231l-53 -267h233l-39 -192h-235l-68 -338h-221l68 338h-285l-68 -338h-221l68 338h-201zM504 530h284l54 267h-285z" />
<glyph unicode="$" horiz-adv-x="1259" d="M59 1004q0 179 124 288.5t319 130.5v181h256v-189q195 -28 338 -117v-299q-103 66 -246 114t-272 48q-105 0 -163.5 -36t-58.5 -101q0 -30 12.5 -54t31.5 -40t54.5 -31.5t67.5 -26t86 -24.5l158 -45q78 -21 131.5 -40.5t113.5 -53.5t96.5 -75.5t60.5 -105.5t24 -145 q0 -172 -118 -276t-316 -125v-183h-256v187q-241 35 -393 139v289q105 -75 265 -128t300 -53q123 0 177 35.5t54 102.5q0 65 -54.5 99t-180.5 69l-187 49q-74 18 -130 38t-114 54t-95.5 76t-61 105.5t-23.5 142.5z" />
<glyph unicode="%" horiz-adv-x="1652" d="M39 1061q0 -162 98.5 -265.5t249.5 -103.5t248.5 103.5t97.5 265.5q0 164 -97.5 266.5t-250.5 102.5q-150 0 -248 -103t-98 -266zM236 1063q0 83 41 133.5t108 50.5q69 0 110.5 -51.5t41.5 -132.5q0 -83 -41.5 -136t-110.5 -53q-67 0 -108 53t-41 136zM268 0l879 1409 h237l-874 -1409h-242zM924 348q0 -162 98.5 -265t249.5 -103t248.5 103t97.5 265t-97.5 265.5t-250.5 103.5q-150 0 -248 -103.5t-98 -265.5zM1120 348q0 85 41 136t109 51q69 0 110 -52t41 -135t-40.5 -134.5t-110.5 -51.5q-67 0 -108.5 52t-41.5 134z" />
<glyph unicode="&#x26;" horiz-adv-x="1640" d="M76 397q0 143 85 247.5t222 160.5q-86 132 -86 270q0 172 124.5 278.5t328.5 106.5q109 0 209 -25t159 -57v-297q-70 46 -164 78.5t-180 32.5q-87 0 -136.5 -40t-49.5 -110q0 -59 39.5 -118.5t132.5 -153.5l756 -770h-353l-172 172q-91 -93 -211 -142.5t-256 -49.5 q-200 0 -324 113t-124 304zM354 420q0 -86 59.5 -137.5t153.5 -51.5q72 0 142 27t122 74l-262 262l-39 39q-74 -29 -125 -85.5t-51 -127.5zM1081 600v215h498v-215h-498z" />
<glyph unicode="'" horiz-adv-x="413" d="M86 1409h242l-27 -455h-195z" />
<glyph unicode="(" horiz-adv-x="671" d="M72 627q0 -119 25 -234t64 -204t91 -170.5t100 -136.5t97 -99h198q-109 148 -159 235q-169 296 -169 609q0 115 24 228.5t55 194.5t81 169.5t80.5 132.5t75.5 105q8 11 12 16h-198q-49 -44 -97 -99t-100 -137t-91 -171.5t-64 -204.5t-25 -234z" />
<glyph unicode=")" horiz-adv-x="671" d="M25 -217h198q64 56 124 132t120.5 182t97.5 244.5t37 285.5t-37 286t-97.5 245t-121 182.5t-123.5 132.5h-198q37 -49 53 -70.5t57.5 -84.5t64.5 -107t57 -118.5t51.5 -141t31.5 -152.5t14 -172t-14 -172.5t-31.5 -151.5t-52 -140.5t-56.5 -118.5t-65 -107t-57.5 -83.5 t-52.5 -70.5z" />
<glyph unicode="*" horiz-adv-x="894" d="M72 1128l59 185l252 -117l-33 274h197l-35 -276l254 115l59 -185l-272 -51l186 -207l-157 -114l-136 243l-137 -239l-155 112l188 203z" />
<glyph unicode="+" horiz-adv-x="1056" d="M80 586v239h323v334h250v-334h324v-239h-324v-334h-250v334h-323z" />
<glyph unicode="," horiz-adv-x="428" d="M-12 -236l118 535h277l-176 -535h-219z" />
<glyph unicode="-" horiz-adv-x="661" d="M76 430v225h508v-225h-508z" />
<glyph unicode="." horiz-adv-x="475" d="M66 143q0 71 50 121.5t120 50.5t121 -50.5t51 -121.5q0 -70 -50.5 -120t-121.5 -50q-70 0 -120 49.5t-50 120.5z" />
<glyph unicode="/" horiz-adv-x="964" d="M25 -20l684 1478h231l-680 -1478h-235z" />
<glyph unicode="0" horiz-adv-x="1447" d="M133 705q0 -183 46 -324t128 -227.5t187 -130t229 -43.5q99 0 186 27t162 84.5t129 141.5t84.5 204.5t30.5 267.5q0 182 -46.5 323.5t-128.5 227.5t-187.5 130t-229.5 44t-229.5 -44t-187 -130.5t-127.5 -227.5t-46 -323zM420 705q0 226 80 343t223 117q144 0 224.5 -117 t80.5 -343t-80.5 -344.5t-224.5 -118.5q-142 0 -222.5 118.5t-80.5 344.5z" />
<glyph unicode="1" horiz-adv-x="720" d="M33 1165l88 244h448v-1409h-272v1165h-264z" />
<glyph unicode="2" horiz-adv-x="1189" d="M66 0v207l542 532q106 105 149.5 166t43.5 125q0 69 -51 108.5t-142 39.5q-127 0 -256.5 -62.5t-230.5 -148.5v284q85 67 221.5 123t290.5 56q204 0 327 -106.5t123 -279.5q0 -58 -17 -113t-38.5 -94t-67 -89t-74.5 -77.5t-89 -80.5l-377 -342h684v-248h-1038z" />
<glyph unicode="3" horiz-adv-x="1200" d="M61 123q86 -60 215.5 -101.5t284.5 -41.5q137 0 248 35t182 96t108.5 140.5t37.5 170.5q0 187 -128.5 294t-334.5 107h-86l483 330v256h-977v-248h606l-436 -362v-174h320q131 0 202.5 -47t71.5 -140q0 -97 -84.5 -154t-245.5 -57q-135 0 -263 52.5t-204 117.5v-274z" />
<glyph unicode="4" horiz-adv-x="1382" d="M53 281v198l752 930h272v-885h254v-243h-254v-281h-272v281h-752zM362 524h443v553z" />
<glyph unicode="5" horiz-adv-x="1243" d="M106 129v277q84 -70 225.5 -124.5t286.5 -54.5q129 0 206 50.5t77 148.5q0 58 -22.5 98.5t-66 63.5t-98 33t-126.5 10h-447l80 778h883v-248h-643l-33 -284h240q239 0 375.5 -114t136.5 -337q0 -206 -149 -326t-392 -120q-167 0 -305.5 44t-227.5 105z" />
<glyph unicode="6" horiz-adv-x="1269" d="M78 561q0 115 35 228.5t90 204.5t127.5 174t141 140.5t136.5 100.5h387q-68 -44 -141 -99t-155.5 -128t-158 -161t-124.5 -175q141 102 325 102q210 0 339.5 -127t129.5 -336q0 -225 -155.5 -365t-409.5 -140q-264 0 -415.5 156t-151.5 425zM358 553q0 -157 82 -241.5 t215 -84.5q124 0 200.5 67.5t76.5 184.5q0 119 -69.5 181.5t-188.5 62.5q-163 0 -309 -98q-7 -40 -7 -72z" />
<glyph unicode="7" horiz-adv-x="1126" d="M41 1161v248h1044v-225l-614 -1184h-309l629 1161h-750z" />
<glyph unicode="8" horiz-adv-x="1327" d="M88 403q0 119 63 212t187 151q-89 45 -134.5 120.5t-45.5 160.5q0 165 138 275t366 110q232 0 368.5 -111t136.5 -279q0 -83 -45 -156.5t-131 -119.5q122 -57 185 -148t63 -208q0 -187 -155 -307.5t-422 -120.5q-264 0 -419 119t-155 302zM360 430q0 -72 43.5 -123 t110 -73.5t148.5 -22.5q129 0 217 58t88 167q0 111 -87 169.5t-216 58.5t-216.5 -61t-87.5 -173zM424 1030q0 -87 67.5 -135.5t172.5 -48.5q104 0 171.5 47t67.5 133q0 82 -68 128t-173 46t-171.5 -43.5t-66.5 -126.5z" />
<glyph unicode="9" horiz-adv-x="1284" d="M74 924q0 226 155 366t410 140q263 0 414 -156.5t151 -425.5q0 -115 -35 -228.5t-90 -204.5t-127 -174t-141 -140.5t-137 -100.5h-385q154 99 318.5 249.5t258.5 313.5q-136 -102 -323 -102q-210 0 -339.5 127t-129.5 336zM350 930q0 -119 69.5 -181.5t188.5 -62.5 q169 0 312 98q6 38 6 72q0 157 -82 241.5t-217 84.5q-122 0 -199.5 -68t-77.5 -184z" />
<glyph unicode=":" horiz-adv-x="475" d="M66 143q0 71 50 121.5t120 50.5t121 -50.5t51 -121.5q0 -70 -50.5 -120t-121.5 -50q-70 0 -120 49.5t-50 120.5zM66 819q0 71 50 120.5t120 49.5q71 0 121.5 -50t50.5 -120t-50.5 -120t-121.5 -50q-70 0 -120 49.5t-50 120.5z" />
<glyph unicode=";" horiz-adv-x="475" d="M-12 -236l118 535h277l-176 -535h-219zM68 819q0 71 50 120.5t120 49.5q71 0 121.5 -50t50.5 -120t-50.5 -120t-121.5 -50q-70 0 -120 49.5t-50 120.5z" />
<glyph unicode="&#x3c;" horiz-adv-x="1056" d="M80 590v233l897 373v-258l-612 -231l612 -234v-258z" />
<glyph unicode="=" horiz-adv-x="1056" d="M80 379v239h897v-239h-897zM80 793v237h897v-237h-897z" />
<glyph unicode="&#x3e;" horiz-adv-x="1056" d="M80 201v258l614 248l-614 245v258l897 -387v-233z" />
<glyph unicode="?" horiz-adv-x="1075" d="M76 950v301q239 179 520 179q191 0 305.5 -93.5t114.5 -257.5q0 -161 -166 -288l-248 -191v-119h-223v193l229 194q41 33 62 53t39 50.5t18 62.5q0 61 -46.5 94t-125.5 33q-117 0 -248.5 -63.5t-230.5 -147.5zM328 143q0 71 50 121.5t120 50.5t121 -50.5t51 -121.5 q0 -70 -50.5 -120t-121.5 -50q-70 0 -120 49.5t-50 120.5z" />
<glyph unicode="@" horiz-adv-x="1540" d="M80 565q0 175 63 319t170 237t245 143.5t290 50.5q282 0 448 -155.5t166 -436.5v-453h-229v113q-57 -51 -148 -91t-198 -40q-150 0 -238 77.5t-88 207.5q0 98 58 168t150 102.5t208 32.5q134 0 235 -37q-13 128 -112 200t-252 72q-103 0 -195 -30.5t-166 -90.5 t-117.5 -160t-43.5 -227q0 -109 29 -198.5t80.5 -152.5t123 -106.5t156 -64t180.5 -20.5q233 0 401 110v-244q-179 -98 -401 -98q-140 0 -263 31t-224.5 94.5t-174.5 154.5t-113 216.5t-40 275.5zM809 553q0 -56 45 -83.5t111 -27.5q60 0 131 21t118 49v129q-109 33 -200 33 q-205 0 -205 -121z" />
<glyph unicode="A" d="M0 0l575 1409h373l576 -1409h-310l-141 360h-624l-144 -360h-305zM547 608h428l-213 539z" />
<glyph unicode="B" horiz-adv-x="1425" d="M145 0v1409h652q100 0 183.5 -20.5t149 -62.5t102 -111.5t36.5 -161.5q0 -72 -26.5 -131t-70 -95.5t-95 -57t-105.5 -24.5q182 -22 282.5 -120t100.5 -250q0 -180 -132.5 -277.5t-369.5 -97.5h-707zM424 262h397q223 0 223 176q0 88 -61.5 132t-165.5 44h-393v-352z M424 846h340q96 0 147.5 38t51.5 113q0 150 -193 150h-346v-301z" />
<glyph unicode="C" horiz-adv-x="1345" d="M78 702q0 211 97 377.5t267.5 258.5t382.5 92q146 0 253 -31t206 -88v-289q-201 145 -442 145q-207 0 -338 -128t-131 -337t130.5 -335.5t338.5 -126.5q243 0 442 143v-287q-100 -58 -207 -89.5t-252 -31.5q-159 0 -297 54t-237 148.5t-156 230.5t-57 294z" />
<glyph unicode="D" horiz-adv-x="1497" d="M145 0v1409h537q213 0 381 -89t262 -250.5t94 -367.5q0 -204 -94 -364.5t-262 -249t-381 -88.5h-537zM424 262h258q203 0 331 120.5t128 319.5q0 201 -128 323t-331 122h-258v-885z" />
<glyph unicode="E" horiz-adv-x="1296" d="M145 0v1409h1072v-262h-793v-305h690v-262h-690v-318h793v-262h-1072z" />
<glyph unicode="F" horiz-adv-x="1259" d="M145 0v1409h1055v-262h-776v-342h674v-262h-674v-543h-279z" />
<glyph unicode="G" horiz-adv-x="1421" d="M78 702q0 210 99.5 377t274 259t390.5 92q272 0 473 -119v-289q-200 145 -459 145q-216 0 -349.5 -127.5t-133.5 -337.5t132.5 -336t348.5 -126q90 0 182 20v305h-370v230h649v-699q-98 -58 -206 -89.5t-253 -31.5q-223 0 -400.5 92t-277.5 258t-100 377z" />
<glyph unicode="H" horiz-adv-x="1513" d="M145 0v1409h279v-565h666v565h278v-1409h-278v582h-666v-582h-279z" />
<glyph unicode="I" horiz-adv-x="569" d="M145 0v1409h279v-1409h-279z" />
<glyph unicode="J" horiz-adv-x="1107" d="M25 127q207 -152 446 -152t371.5 128t132.5 350v956h-279v-948q0 -115 -62 -168t-169 -53q-115 0 -231 47t-209 131v-291z" />
<glyph unicode="K" horiz-adv-x="1382" d="M145 0v1409h279v-582h238l360 582h317l-446 -672l477 -737h-332l-360 582h-254v-582h-279z" />
<glyph unicode="L" horiz-adv-x="1193" d="M145 0v1409h279v-1147h729v-262h-1008z" />
<glyph unicode="M" horiz-adv-x="1949" d="M145 0v1409h383l447 -1141l446 1141h383v-1409h-278v963l-396 -963h-311l-395 963v-963h-279z" />
<glyph unicode="N" horiz-adv-x="1488" d="M127 0v1409h279l661 -940v940h279v-1409h-265l-675 926v-926h-279z" />
<glyph unicode="O" horiz-adv-x="1603" d="M78 702q0 -209 94 -374t259.5 -256.5t371.5 -91.5q205 0 369.5 91.5t258 256.5t93.5 374q0 158 -54.5 294t-150 231t-229.5 149t-287 54q-206 0 -371.5 -92t-259.5 -258.5t-94 -377.5zM373 702q0 200 121.5 324.5t308.5 124.5q185 0 305.5 -124.5t120.5 -324.5 q0 -199 -120.5 -321.5t-305.5 -122.5q-186 0 -308 123t-122 321z" />
<glyph unicode="P" horiz-adv-x="1355" d="M145 0v1409h600q256 0 407 -125t151 -364q0 -231 -152.5 -358.5t-405.5 -127.5h-321v-434h-279zM424 698h299q133 0 209 55t76 167q0 227 -285 227h-299v-449z" />
<glyph unicode="Q" horiz-adv-x="1603" d="M78 702q0 211 94 377.5t259.5 258.5t371.5 92q153 0 287 -54t229.5 -149t150 -231t54.5 -294q0 -263 -148 -454l256 -248h-317l-101 98q-179 -118 -411 -118q-206 0 -371.5 91.5t-259.5 256.5t-94 374zM373 702q0 -198 122 -321t308 -123q106 0 198 45l-362 350h317 l207 -200q66 107 66 249q0 200 -120.5 324.5t-305.5 124.5q-187 0 -308.5 -124.5t-121.5 -324.5z" />
<glyph unicode="R" horiz-adv-x="1400" d="M145 0v1409h633q256 0 401.5 -115t145.5 -344q0 -184 -117.5 -295t-308.5 -123l449 -532h-351l-411 530h-162v-530h-279zM424 745h346q125 0 193.5 49.5t68.5 151.5q0 201 -262 201h-346v-402z" />
<glyph unicode="S" horiz-adv-x="1265" d="M72 1008q0 133 72.5 231t190.5 146.5t265 48.5q296 0 510 -131v-299q-101 67 -244.5 114t-273.5 47q-105 0 -163 -36t-58 -101q0 -29 12.5 -52.5t31 -40t55 -32t68 -26t85.5 -25.5l151 -43q56 -17 94.5 -29.5t87 -33.5t80.5 -42.5t66 -53t53.5 -68t32 -86t12.5 -107.5 q0 -130 -70 -223.5t-189.5 -139.5t-274.5 -46q-169 0 -315 44.5t-234 104.5v289q105 -75 265 -127.5t298 -52.5q233 0 233 133q0 29 -11.5 52t-28.5 39t-50.5 31.5t-63.5 26t-81 25.5l-180 49q-62 17 -109 33t-99 40t-88.5 55t-67.5 71.5t-46.5 94.5t-15.5 120z" />
<glyph unicode="T" horiz-adv-x="1208" d="M20 1147v262h1170v-262h-447v-1147h-278v1147h-445z" />
<glyph unicode="U" horiz-adv-x="1472" d="M131 584v825h295v-829q0 -322 309 -322q312 0 312 322v829h294v-825q0 -137 -35.5 -246.5t-108 -190t-189.5 -124t-273 -43.5q-305 0 -454.5 161t-149.5 443z" />
<glyph unicode="V" horiz-adv-x="1509" d="M12 1409h330l414 -1126l415 1126h326l-571 -1409h-344z" />
<glyph unicode="W" horiz-adv-x="2101" d="M35 1409h336l207 -1114l313 1114h321l312 -1114l207 1114h335l-352 -1409h-373l-290 1071l-291 -1071h-373z" />
<glyph unicode="X" horiz-adv-x="1374" d="M18 1409h322l356 -545l342 545h318l-477 -704l475 -705h-320l-356 547l-340 -547h-318l476 707z" />
<glyph unicode="Y" horiz-adv-x="1392" d="M2 1409h320l378 -637l373 637h318l-553 -891v-518h-281v516z" />
<glyph unicode="Z" horiz-adv-x="1355" d="M74 0v231l798 916h-747v262h1112v-231l-803 -916h848v-262h-1208z" />
<glyph unicode="[" horiz-adv-x="667" d="M160 -217v1690h463v-218h-215v-1255h215v-217h-463z" />
<glyph unicode="\" horiz-adv-x="964" d="M25 1458h231l684 -1478h-233z" />
<glyph unicode="]" horiz-adv-x="653" d="M61 0h215v1255h-215v218h463v-1690h-463v217z" />
<glyph unicode="^" horiz-adv-x="1083" d="M51 514l375 895h231l375 -895h-258l-231 612l-234 -612h-258z" />
<glyph unicode="_" horiz-adv-x="901" d="M-6 -41h913v-178h-913v178z" />
<glyph unicode="`" horiz-adv-x="671" d="M78 1548h313l201 -319h-242z" />
<glyph unicode="a" horiz-adv-x="1114" d="M68 281q0 148 125 238.5t319 90.5q133 0 225 -39v56q0 110 -65 163.5t-172 53.5q-116 0 -228.5 -48.5t-185.5 -121.5v270q62 62 185 112t264 50q78 0 146 -16t127 -51.5t101 -89t66 -132.5t24 -178v-639h-245v121q-56 -61 -142.5 -101t-191.5 -40q-164 0 -258 79t-94 222 zM311 295q0 -115 158 -115q70 0 142.5 23t125.5 59v150q-74 22 -166 22q-123 0 -191.5 -36.5t-68.5 -102.5z" />
<glyph unicode="b" horiz-adv-x="1234" d="M121 72v1337l264 37v-432q139 92 311 92q96 0 179 -33.5t147 -98.5t100.5 -169.5t36.5 -237.5q0 -120 -32 -219t-87 -166t-130 -113.5t-159 -67.5t-176 -21q-93 0 -185.5 16.5t-141 31.5t-127.5 44zM385 242q95 -27 176 -27q71 0 127.5 17t102.5 54.5t71 104.5t25 160 q0 155 -77 234t-194 79q-123 0 -231 -55v-567z" />
<glyph unicode="c" horiz-adv-x="1079" d="M76 543q0 164 77 293t210.5 199.5t298.5 70.5q218 0 348 -90v-262q-151 104 -338 104q-149 0 -239.5 -85t-90.5 -230q0 -141 91 -228.5t237 -87.5q189 0 340 107v-262q-137 -92 -351 -92q-123 0 -231.5 42.5t-185.5 117t-121.5 179t-44.5 224.5z" />
<glyph unicode="d" horiz-adv-x="1234" d="M76 516q0 120 34 219t92 167t136 114.5t164.5 68t179.5 21.5q82 0 168 -14v317l264 37v-1446h-248v80q-126 -100 -311 -100q-72 0 -139.5 19t-129.5 61t-108.5 103t-74 152t-27.5 201zM348 535q0 -156 78 -238t209 -82q115 0 215 57v576q-79 22 -154 22 q-72 0 -132.5 -18.5t-110 -56.5t-77.5 -104.5t-28 -155.5z" />
<glyph unicode="e" horiz-adv-x="1165" d="M76 543q0 258 144.5 410.5t383.5 152.5q226 0 350.5 -136t124.5 -380v-123h-735q27 -240 340 -240q106 0 207.5 26t171.5 64v-231q-58 -45 -173 -75.5t-237 -30.5q-263 0 -420 148t-157 415zM342 637h479q-2 115 -59.5 180.5t-173.5 65.5q-111 0 -174.5 -66.5 t-71.5 -179.5z" />
<glyph unicode="f" horiz-adv-x="786" d="M35 854v231h149q5 119 59.5 202t142 122t200.5 39q74 0 133.5 -18t93.5 -41v-215q-31 25 -85 42t-110 17q-70 0 -116 -37.5t-53 -110.5h270v-231h-270v-854h-265v854h-149z" />
<glyph unicode="g" horiz-adv-x="1218" d="M76 555q0 109 32.5 201t88 155.5t130.5 108t160 65.5t177 21q90 0 178 -16t140.5 -33.5t119.5 -44.5v-807q0 -117 -28.5 -210t-78 -156t-119.5 -104.5t-149 -60t-170 -18.5q-121 0 -228.5 31t-183.5 77v267q176 -127 383 -127q310 0 310 262v29q-133 -97 -306 -97 q-201 0 -328.5 123.5t-127.5 333.5zM348 590q0 -128 71.5 -191t186.5 -63q119 0 232 63v443q-98 28 -176 28q-138 0 -226 -73t-88 -207z" />
<glyph unicode="h" horiz-adv-x="1255" d="M121 0v1409l264 37v-479q174 139 385 139q186 0 278.5 -108.5t92.5 -301.5v-696h-264v629q0 106 -55.5 163.5t-164.5 57.5q-136 0 -272 -68v-782h-264z" />
<glyph unicode="i" horiz-adv-x="524" d="M82 1352q0 66 48 102.5t132 36.5q85 0 132.5 -36.5t47.5 -102.5t-48 -104t-132 -38q-83 0 -131.5 38t-48.5 104zM129 0v1085h264v-1085h-264z" />
<glyph unicode="j" horiz-adv-x="512" d="M-63 -131q100 27 141 74t41 141v1001h262v-1015q0 -184 -101.5 -286.5t-273.5 -127.5zM72 1352q0 64 48.5 101.5t131.5 37.5q84 0 131 -37t47 -102q0 -66 -47 -104t-131 -38q-83 0 -131.5 38t-48.5 104z" />
<glyph unicode="k" horiz-adv-x="1183" d="M121 0v1409l264 37v-746h172l301 385h303l-418 -495l420 -590h-303l-307 455h-168v-455h-264z" />
<glyph unicode="l" horiz-adv-x="507" d="M121 0v1409l264 37v-1446h-264z" />
<glyph unicode="m" horiz-adv-x="1927" d="M121 0v1085h248v-133q170 154 381 154q225 0 305 -174q182 174 409 174q176 0 262 -106.5t86 -299.5v-700h-262v633q0 105 -50 161t-150 56q-122 0 -254 -70q4 -46 4 -75v-705h-264v633q0 105 -49.5 161t-149.5 56q-122 0 -252 -68v-782h-264z" />
<glyph unicode="n" horiz-adv-x="1255" d="M121 0v1085h248v-133q75 66 178.5 110t222.5 44q186 0 278.5 -108.5t92.5 -301.5v-696h-264v629q0 106 -55.5 163.5t-164.5 57.5q-136 0 -272 -68v-782h-264z" />
<glyph unicode="o" horiz-adv-x="1300" d="M76 543q0 -158 74 -286.5t205.5 -202.5t293.5 -74q163 0 295.5 74t206.5 202.5t74 286.5q0 245 -163 404t-413 159q-248 0 -410.5 -159t-162.5 -404zM340 543q0 139 88.5 227t220.5 88q134 0 224 -88t90 -227q0 -137 -90.5 -226.5t-223.5 -89.5q-132 0 -220.5 89.5 t-88.5 226.5z" />
<glyph unicode="p" horiz-adv-x="1234" d="M121 -324v1409h248v-79q126 100 311 100q91 0 174 -31.5t152.5 -94t111 -169t41.5 -242.5q0 -120 -34 -219t-92 -166.5t-136 -114t-164.5 -68t-179.5 -21.5q-82 0 -168 14v-318h-264zM385 238q82 -23 154 -23t132.5 18.5t110 57t77.5 105t28 155.5q0 155 -79.5 237 t-211.5 82q-111 0 -211 -57v-575z" />
<glyph unicode="q" horiz-adv-x="1239" d="M76 518q0 120 32 219t87 166.5t130 114t158.5 67.5t175.5 21q94 0 187.5 -16.5t144 -32t127.5 -43.5v-1338h-264v394q-146 -90 -315 -90q-96 0 -179 33.5t-147 98t-100.5 169t-36.5 237.5zM348 535q0 -153 77 -233.5t193 -80.5q124 0 236 55v568q-95 26 -180 26 q-145 0 -235.5 -82.5t-90.5 -252.5z" />
<glyph unicode="r" horiz-adv-x="868" d="M121 0v1085h248v-141q70 68 163.5 115t192.5 47q60 0 115 -25v-280q-83 49 -203 49t-252 -74v-776h-264z" />
<glyph unicode="s" horiz-adv-x="1001" d="M63 770q0 150 116.5 243t316.5 93q114 0 227.5 -29t171.5 -67v-260q-63 47 -182 84.5t-232 37.5q-72 0 -117 -23t-45 -67q0 -22 10.5 -39t25 -28.5t46.5 -24t56.5 -19.5t74.5 -20l107 -30q301 -76 301 -312q0 -162 -115 -248t-313 -86q-117 0 -238 32.5t-186 70.5v254 q88 -52 206 -88.5t232 -36.5q85 0 125.5 21.5t40.5 72.5q0 47 -44.5 71t-155.5 52l-107 27q-56 13 -101.5 29.5t-87.5 43t-70.5 60t-45.5 81t-17 105.5z" />
<glyph unicode="t" horiz-adv-x="882" d="M31 854v66l368 368h60v-203h362v-231h-362v-492q0 -78 39 -111.5t114 -33.5q119 0 211 49v-221q-112 -68 -282 -68q-77 0 -136.5 17t-108.5 55.5t-75 109t-26 169.5v526h-164z" />
<glyph unicode="u" horiz-adv-x="1255" d="M115 389v696h264v-628q0 -107 54.5 -164t164.5 -57q142 0 272 67v782h263v-1085h-246v135q-74 -67 -177.5 -111t-224.5 -44q-187 0 -278.5 107.5t-91.5 301.5z" />
<glyph unicode="v" horiz-adv-x="1196" d="M12 1085h287l303 -856l299 856h283l-430 -1085h-312z" />
<glyph unicode="w" horiz-adv-x="1785" d="M29 1085h286l185 -839l243 839h304l239 -839l189 839h284l-313 -1085h-309l-244 795l-242 -795h-311z" />
<glyph unicode="x" horiz-adv-x="1163" d="M12 0l379 543l-379 542h301l260 -397l258 397h297l-376 -540l381 -545h-302l-260 406l-262 -406h-297z" />
<glyph unicode="y" horiz-adv-x="1191" d="M20 1085h295l312 -747l291 747h292l-497 -1138q-124 -291 -387 -291q-86 0 -158.5 29.5t-120.5 70.5v250q43 -41 111.5 -74.5t152.5 -33.5q58 0 102 25.5t68 70.5l25 51z" />
<glyph unicode="z" horiz-adv-x="1138" d="M76 0v197l575 641h-534v247h905v-196l-580 -641h621v-248h-987z" />
<glyph unicode="{" horiz-adv-x="712" d="M25 532v191l65 16q76 19 112 47.5t36 83.5v379q0 101 70.5 162.5t176.5 61.5q96 0 185 -41v-220q-57 33 -107 33q-34 0 -56 -18t-22 -58v-317q0 -82 -57 -140t-152 -85q95 -24 152 -82.5t57 -141.5v-319q0 -37 22 -55.5t56 -20.5q44 2 107 35v-219q-94 -39 -185 -41 q-107 2 -177 62.5t-70 160.5v379q0 56 -36 84t-112 47z" />
<glyph unicode="|" horiz-adv-x="575" d="M160 -324v1733h256v-1733h-256z" />
<glyph unicode="}" horiz-adv-x="712" d="M43 43q59 -33 107 -35q34 2 55.5 20.5t21.5 55.5v319q0 84 56.5 142t152.5 82q-96 27 -152.5 85t-56.5 140v317q0 76 -77 76q-54 0 -107 -33v220q89 41 184 41q105 0 175.5 -61.5t70.5 -162.5v-379q0 -55 36.5 -83.5t113.5 -47.5l63 -16v-191l-63 -16q-78 -19 -114 -47 t-36 -84v-379q0 -100 -70 -160.5t-176 -62.5q-90 2 -184 41v219z" />
<glyph unicode="~" horiz-adv-x="1056" d="M80 545v243q96 127 231 127q50 0 100.5 -18.5t93.5 -45t85.5 -53t92 -45t97.5 -18.5q56 0 101.5 27.5t95.5 89.5v-244q-90 -112 -225 -112q-60 0 -125 28t-113 61t-111.5 61t-121.5 28q-123 0 -201 -129z" />
<glyph unicode="&#xa1;" horiz-adv-x="600" d="M127 -324q0 211 25.5 521t25.5 424h244q0 -114 25.5 -424t25.5 -521h-346zM131 942q0 70 49.5 120t120.5 50t121.5 -50t50.5 -120t-50.5 -121t-121.5 -51q-70 0 -120 50.5t-50 121.5z" />
<glyph unicode="&#xa2;" horiz-adv-x="1038" d="M76 543q0 213 123.5 362t324.5 189v190h240v-186q130 -20 242 -97v-247q-148 104 -336 104q-150 0 -240 -85t-90 -230q0 -141 90.5 -228.5t237.5 -87.5q190 0 338 107v-248q-108 -75 -242 -98v-187h-240v191q-200 42 -324 192.5t-124 358.5z" />
<glyph unicode="&#xa3;" horiz-adv-x="1230" d="M51 598v193h158q-39 115 -39 219q0 184 130 302t351 118q256 0 490 -160v-299q-247 190 -461 190q-102 0 -155.5 -49.5t-53.5 -136.5q0 -72 33 -184h438v-193h-379q17 -66 17 -115q0 -66 -26.5 -117t-76.5 -104h684v-262h-1063v207q94 48 153.5 112t59.5 140 q0 57 -30 139h-230z" />
<glyph unicode="&#xa4;" horiz-adv-x="1193" d="M53 317l133 134q-63 108 -63 235q0 128 63 236l-133 133l168 170l133 -129q109 67 242 67q135 0 244 -67l133 129l170 -170l-135 -133q61 -109 61 -236q0 -126 -61 -235l135 -134l-170 -170l-133 132q-114 -68 -244 -68q-131 0 -242 68l-133 -132zM356 686 q0 -99 70 -171.5t170 -72.5q99 0 169.5 72.5t70.5 171.5q0 102 -70.5 175t-169.5 73q-101 0 -170.5 -73t-69.5 -175z" />
<glyph unicode="&#xa5;" horiz-adv-x="1396" d="M4 1409h342l356 -537l353 537h338l-516 -696h460v-193h-497v-112h497v-193h-497v-215h-281v215h-500v193h500v112h-500v193h459z" />
<glyph unicode="&#xa6;" horiz-adv-x="575" d="M160 -324v705h256v-705h-256zM160 705v704h256v-704h-256z" />
<glyph unicode="&#xa7;" horiz-adv-x="1052" d="M80 793q0 112 65 186q-45 67 -45 160q0 145 113.5 233t318.5 88q112 0 226 -30t172 -68v-260q-62 48 -181.5 85.5t-232.5 37.5q-75 0 -117.5 -22.5t-42.5 -67.5q0 -50 46.5 -74.5t164.5 -54.5l109 -31q301 -76 301 -328q0 -113 -66 -188q45 -64 45 -158 q0 -148 -115.5 -234.5t-320.5 -86.5q-113 0 -231.5 32t-177.5 70v260q62 -49 186.5 -88t239.5 -39q163 0 163 88q0 51 -46 75.5t-162 55.5l-111 31q-301 74 -301 328zM297 793q0 -59 41 -87t147 -55l150 -39q78 -20 113 -34q12 38 12 75q0 54 -44.5 82t-131.5 51l-164 41 q-71 18 -113 35q-10 -42 -10 -69z" />
<glyph unicode="&#xa8;" horiz-adv-x="827" d="M78 1378q0 57 40.5 98.5t98.5 41.5t99.5 -41.5t41.5 -98.5q0 -58 -41 -98.5t-100 -40.5t-99 40.5t-40 98.5zM469 1378q0 57 40.5 98.5t98.5 41.5q57 0 98.5 -41.5t41.5 -98.5q0 -58 -41.5 -98.5t-98.5 -40.5q-58 0 -98.5 40.5t-40.5 98.5z" />
<glyph unicode="&#xa9;" horiz-adv-x="1839" d="M106 702q0 -221 105.5 -407t292.5 -296t414 -110q170 0 321.5 64.5t259 174t170 259.5t62.5 315q0 166 -62.5 316t-170 259.5t-259 174t-321.5 64.5q-227 0 -414 -109.5t-292.5 -296t-105.5 -408.5zM279 702q0 176 82 323t229 234t328 87q182 0 330 -87t230.5 -234 t82.5 -323q0 -175 -82.5 -322t-230.5 -233t-330 -86q-181 0 -328 86.5t-229 233t-82 321.5zM485 702q0 -198 136 -328t342 -130q176 0 286 73v218q-130 -86 -278 -86q-117 0 -189.5 69.5t-72.5 183.5q0 117 72 185.5t192 68.5q154 0 276 -86v222q-112 71 -284 71 q-206 0 -343 -129.5t-137 -331.5z" />
<glyph unicode="&#xaa;" horiz-adv-x="550" d="M78 1100q0 59 50 95t128 36q55 0 90 -14v6q0 44 -26 65t-70 21q-45 0 -88 -19t-72 -49v123q27 25 79.5 45.5t111.5 20.5q86 0 139 -47t53 -144v-252h-121v47q-51 -55 -133 -55q-67 0 -104 31.5t-37 89.5zM197 1104q0 -35 51 -35q28 0 55.5 10t42.5 23v43q-32 8 -59 8 q-42 0 -66 -13t-24 -36z" />
<glyph unicode="&#xab;" horiz-adv-x="1153" d="M68 430l469 -258v242l-267 131l267 129v241l-469 -258v-227zM594 430l469 -258v242l-266 131l266 129v241l-469 -258v-227z" />
<glyph unicode="&#xad;" horiz-adv-x="661" d="M76 430v225h508v-225h-508z" />
<glyph unicode="&#xae;" horiz-adv-x="923" d="M94 1114q0 161 106.5 265t260.5 104q156 0 262 -103.5t106 -265.5q0 -161 -106 -265t-262 -104q-153 0 -260 104.5t-107 264.5zM188 1114q0 -127 76 -201.5t197 -74.5q124 0 200 74t76 202q0 130 -75.5 204.5t-200.5 74.5q-121 0 -197 -75t-76 -204zM332 967v307h151 q59 0 93 -26t34 -77q0 -72 -71 -92l77 -112h-102l-63 104h-31v-104h-88zM420 1139h55q45 0 45 28q0 33 -45 33h-55v-61z" />
<glyph unicode="&#xaf;" horiz-adv-x="772" d="M78 1292v195h616v-195h-616z" />
<glyph unicode="&#xb0;" horiz-adv-x="837" d="M115 1128q0 -137 82.5 -219t214.5 -82t213.5 82t81.5 219q0 138 -81.5 220t-213.5 82t-214.5 -82t-82.5 -220zM270 1128q0 70 39 111t103 41t101.5 -40.5t37.5 -111.5q0 -69 -37 -109t-102 -42q-63 0 -102.5 41t-39.5 110z" />
<glyph unicode="&#xb1;" horiz-adv-x="1056" d="M80 186v240h323v256h-323v240h323v301h250v-301h324v-240h-324v-256h324v-240h-897z" />
<glyph unicode="&#xb2;" horiz-adv-x="628" d="M72 657v119l227 205q42 37 61 64t19 55q0 31 -21.5 50t-62.5 19q-56 0 -121 -32t-96 -64v176q45 34 113.5 57t136.5 23q113 0 171 -57.5t58 -145.5q0 -136 -147 -229l-113 -90h266v-150h-491z" />
<glyph unicode="&#xb3;" horiz-adv-x="614" d="M72 700v170q29 -28 83.5 -49.5t118.5 -21.5q42 0 67.5 21t25.5 54q0 39 -34.5 60.5t-84.5 21.5h-103v78l181 135h-246v144h444v-131l-190 -131h22q84 0 136.5 -54t52.5 -135q0 -97 -67 -158t-185 -61q-128 0 -221 57z" />
<glyph unicode="&#xb4;" horiz-adv-x="671" d="M78 1229l201 319h313l-270 -319h-244z" />
<glyph unicode="&#xb5;" horiz-adv-x="1261" d="M121 -324v1409h264v-628q0 -106 55 -163.5t164 -57.5q135 0 273 69v780h264v-1085h-248v133q-75 -66 -177.5 -109.5t-223.5 -43.5q-120 0 -185 59l94 -363h-280z" />
<glyph unicode="&#xb6;" horiz-adv-x="921" d="M55 915q0 98 29 180t79 139.5t117.5 97t144 58.5t159.5 19h186v-1102q0 -184 -102 -287t-273 -126l-69 212q98 27 139 74t41 139v150q-14 -2 -47 -2q-178 0 -291 121t-113 327z" />
<glyph unicode="&#xb7;" horiz-adv-x="671" d="M182 666q0 63 44.5 109t107.5 46q64 0 109.5 -46t45.5 -109q0 -64 -45 -109t-110 -45q-63 0 -107.5 45t-44.5 109z" />
<glyph unicode="&#xb8;" horiz-adv-x="526" d="M78 -303l196 303h175l-156 -387z" />
<glyph unicode="&#xb9;" horiz-adv-x="552" d="M90 1128l70 185h280v-656h-190v471h-160z" />
<glyph unicode="&#xba;" horiz-adv-x="614" d="M78 1204q0 -96 65.5 -160.5t163.5 -64.5q99 0 164.5 64.5t65.5 160.5q0 98 -65 162t-165 64q-99 0 -164 -64t-65 -162zM205 1204q0 47 29.5 77t72.5 30q45 0 75 -30t30 -77q0 -46 -30 -76t-75 -30q-43 0 -72.5 30.5t-29.5 75.5z" />
<glyph unicode="&#xbb;" horiz-adv-x="1153" d="M88 172l469 258v227l-469 258v-241l266 -129l-266 -131v-242zM614 172l469 258v227l-469 258v-241l269 -129l-269 -131v-242z" />
<glyph unicode="&#xbc;" d="M113 1128l69 185h281v-656h-191v471h-159zM182 0l879 1409h203l-877 -1409h-205zM829 129v141l334 385h172v-385h82v-141h-82v-129h-168v129h-338zM983 270h184v201z" />
<glyph unicode="&#xbd;" horiz-adv-x="1445" d="M113 1128l69 185h281v-656h-191v471h-159zM139 0l879 1409h203l-877 -1409h-205zM844 0v119l227 205q43 38 61.5 64t18.5 54q0 31 -21.5 50.5t-62.5 19.5q-56 0 -121 -32t-96 -64v176q45 34 113.5 57t136.5 23q113 0 171 -57.5t58 -145.5q0 -136 -147 -229l-113 -90h266 v-150h-491z" />
<glyph unicode="&#xbe;" horiz-adv-x="1542" d="M113 700v170q29 -28 83.5 -49.5t118.5 -21.5q42 0 67.5 21t25.5 54q0 39 -34.5 60.5t-84.5 21.5h-103v78l181 135h-246v144h444v-131l-190 -131h22q84 0 136.5 -54t52.5 -135q0 -97 -67 -158t-185 -61q-128 0 -221 57zM215 0l879 1409h202l-876 -1409h-205zM848 129v141 l334 385h172v-385h82v-141h-82v-129h-168v129h-338zM1001 270h185v201z" />
<glyph unicode="&#xbf;" horiz-adv-x="1036" d="M59 6q0 162 166 289l248 190v119h223v-192l-229 -195q-60 -48 -89.5 -85t-29.5 -83q0 -60 46 -92.5t126 -32.5q117 0 248.5 63.5t230.5 147.5v-301q-237 -178 -520 -178q-191 0 -305.5 93t-114.5 257zM406 942q0 70 50.5 120t121.5 50q70 0 120 -50t50 -120 q0 -71 -50 -121.5t-120 -50.5t-121 51t-51 121z" />
<glyph unicode="&#xc0;" d="M0 0l575 1409h373l576 -1409h-310l-141 360h-624l-144 -360h-305zM387 1790h313l201 -260h-242zM547 608h428l-213 539z" />
<glyph unicode="&#xc1;" d="M0 0l575 1409h373l576 -1409h-310l-141 360h-624l-144 -360h-305zM547 608h428l-213 539zM623 1530l200 260h314l-271 -260h-243z" />
<glyph unicode="&#xc2;" d="M0 0l575 1409h373l576 -1409h-310l-141 360h-624l-144 -360h-305zM399 1532l242 258h242l241 -258h-252l-110 121l-111 -121h-252zM547 608h428l-213 539z" />
<glyph unicode="&#xc3;" d="M0 0l575 1409h373l576 -1409h-310l-141 360h-624l-144 -360h-305zM420 1511v160q86 125 194 125q44 0 99 -27t108 -54t94 -27q94 0 189 122v-159q-86 -125 -193 -125q-44 0 -99.5 27t-109 54t-94.5 27q-39 0 -77 -21t-61 -44.5t-50 -57.5zM547 608h428l-213 539z" />
<glyph unicode="&#xc4;" d="M0 0l575 1409h373l576 -1409h-310l-141 360h-624l-144 -360h-305zM426 1657q0 58 39.5 92.5t99.5 34.5q61 0 101.5 -34.5t40.5 -92.5q0 -56 -41 -89.5t-101 -33.5t-99.5 33.5t-39.5 89.5zM547 608h428l-213 539zM817 1657q0 58 39.5 92.5t99.5 34.5q59 0 99.5 -34.5 t40.5 -92.5q0 -55 -40.5 -89t-99.5 -34q-60 0 -99.5 33.5t-39.5 89.5z" />
<glyph unicode="&#xc5;" d="M0 0l561 1372q-47 62 -47 141q0 100 72.5 171t177.5 71q104 0 176 -71t72 -171q0 -78 -47 -141l559 -1372h-310l-141 360h-624l-144 -360h-305zM547 608h428l-213 539zM662 1513q0 -44 30.5 -74t73.5 -30q42 0 71 30t29 74q0 45 -29 76t-71 31q-43 0 -73.5 -31t-30.5 -76 z" />
<glyph unicode="&#xc6;" horiz-adv-x="2222" d="M2 0l905 1409h1235v-262h-792v-305h690v-262h-690v-318h792v-262h-1071v397h-479l-248 -397h-342zM745 645h326v522z" />
<glyph unicode="&#xc7;" horiz-adv-x="1345" d="M78 702q0 211 97 377.5t267.5 258.5t382.5 92q146 0 253 -31t206 -88v-289q-201 145 -442 145q-207 0 -338 -128t-131 -337t130.5 -335.5t338.5 -126.5q243 0 442 143v-287q-164 -94 -334 -114l-149 -369l-215 84l182 280q-148 9 -276 66.5t-219 152t-143 225t-52 281.5z " />
<glyph unicode="&#xc8;" horiz-adv-x="1296" d="M145 0v1409h1072v-262h-793v-305h690v-262h-690v-318h793v-262h-1072zM305 1790h313l201 -260h-241z" />
<glyph unicode="&#xc9;" horiz-adv-x="1296" d="M145 0v1409h1072v-262h-793v-305h690v-262h-690v-318h793v-262h-1072zM541 1530l200 260h314l-271 -260h-243z" />
<glyph unicode="&#xca;" horiz-adv-x="1296" d="M145 0v1409h1072v-262h-793v-305h690v-262h-690v-318h793v-262h-1072zM317 1532l242 258h242l241 -258h-251l-111 121l-111 -121h-252z" />
<glyph unicode="&#xcb;" horiz-adv-x="1296" d="M145 0v1409h1072v-262h-793v-305h690v-262h-690v-318h793v-262h-1072zM346 1657q0 58 39.5 92.5t99.5 34.5q61 0 101.5 -34.5t40.5 -92.5q0 -56 -41 -89.5t-101 -33.5t-99.5 33.5t-39.5 89.5zM737 1657q0 58 40 92.5t100 34.5q59 0 99 -34.5t40 -92.5q0 -55 -40 -89 t-99 -34q-60 0 -100 33.5t-40 89.5z" />
<glyph unicode="&#xcc;" horiz-adv-x="569" d="M-90 1790h313l201 -260h-242zM145 0v1409h279v-1409h-279z" />
<glyph unicode="&#xcd;" horiz-adv-x="569" d="M145 0v1409h279v-1409h-279zM145 1530l201 260h313l-270 -260h-244z" />
<glyph unicode="&#xce;" horiz-adv-x="569" d="M-78 1532h252l111 121l110 -121h252l-241 258h-242zM145 0v1409h279v-1409h-279z" />
<glyph unicode="&#xcf;" horiz-adv-x="569" d="M-51 1657q0 58 39.5 92.5t99.5 34.5t100.5 -34.5t40.5 -92.5q0 -56 -40.5 -89.5t-100.5 -33.5t-99.5 33.5t-39.5 89.5zM145 0v1409h279v-1409h-279zM340 1657q0 58 39.5 92.5t99.5 34.5q59 0 99 -34.5t40 -92.5q0 -55 -40 -89t-99 -34q-60 0 -99.5 33.5t-39.5 89.5z" />
<glyph unicode="&#xd0;" horiz-adv-x="1525" d="M20 588v233h154v588h537q213 0 381 -89t262 -250.5t94 -367.5q0 -204 -94 -364.5t-262 -249t-381 -88.5h-537v588h-154zM453 262h258q203 0 330.5 120.5t127.5 319.5q0 201 -127.5 323t-330.5 122h-258v-326h424v-233h-424v-326z" />
<glyph unicode="&#xd1;" horiz-adv-x="1488" d="M127 0v1409h279l661 -940v940h279v-1409h-265l-675 926v-926h-279zM393 1511v160q86 125 195 125q44 0 99 -27t108 -54t94 -27q93 0 188 122v-159q-86 -125 -192 -125q-44 0 -99.5 27t-109 54t-94.5 27q-93 0 -189 -123z" />
<glyph unicode="&#xd2;" horiz-adv-x="1603" d="M78 702q0 -209 94 -374t259.5 -256.5t371.5 -91.5q205 0 369.5 91.5t258 256.5t93.5 374q0 158 -54.5 294t-150 231t-229.5 149t-287 54q-206 0 -371.5 -92t-259.5 -258.5t-94 -377.5zM373 702q0 200 121.5 324.5t308.5 124.5q185 0 305.5 -124.5t120.5 -324.5 q0 -199 -120.5 -321.5t-305.5 -122.5q-186 0 -308 123t-122 321zM426 1790h313l201 -260h-242z" />
<glyph unicode="&#xd3;" horiz-adv-x="1603" d="M78 702q0 -209 94 -374t259.5 -256.5t371.5 -91.5q205 0 369.5 91.5t258 256.5t93.5 374q0 158 -54.5 294t-150 231t-229.5 149t-287 54q-206 0 -371.5 -92t-259.5 -258.5t-94 -377.5zM373 702q0 200 121.5 324.5t308.5 124.5q185 0 305.5 -124.5t120.5 -324.5 q0 -199 -120.5 -321.5t-305.5 -122.5q-186 0 -308 123t-122 321zM662 1530l200 260h314l-271 -260h-243z" />
<glyph unicode="&#xd4;" horiz-adv-x="1603" d="M78 702q0 -209 94 -374t259.5 -256.5t371.5 -91.5q205 0 369.5 91.5t258 256.5t93.5 374q0 158 -54.5 294t-150 231t-229.5 149t-287 54q-206 0 -371.5 -92t-259.5 -258.5t-94 -377.5zM373 702q0 200 121.5 324.5t308.5 124.5q185 0 305.5 -124.5t120.5 -324.5 q0 -199 -120.5 -321.5t-305.5 -122.5q-186 0 -308 123t-122 321zM438 1532h252l111 121l110 -121h252l-241 258h-242z" />
<glyph unicode="&#xd5;" horiz-adv-x="1603" d="M78 702q0 -209 94 -374t259.5 -256.5t371.5 -91.5q205 0 369.5 91.5t258 256.5t93.5 374q0 158 -54.5 294t-150 231t-229.5 149t-287 54q-206 0 -371.5 -92t-259.5 -258.5t-94 -377.5zM373 702q0 200 121.5 324.5t308.5 124.5q185 0 305.5 -124.5t120.5 -324.5 q0 -199 -120.5 -321.5t-305.5 -122.5q-186 0 -308 123t-122 321zM459 1511v160q86 125 194 125q44 0 99 -27t108 -54t94 -27q94 0 189 122v-159q-86 -125 -193 -125q-44 0 -99.5 27t-109 54t-94.5 27q-39 0 -77 -21t-61 -44.5t-50 -57.5z" />
<glyph unicode="&#xd6;" horiz-adv-x="1603" d="M78 702q0 -209 94 -374t259.5 -256.5t371.5 -91.5q205 0 369.5 91.5t258 256.5t93.5 374q0 158 -54.5 294t-150 231t-229.5 149t-287 54q-206 0 -371.5 -92t-259.5 -258.5t-94 -377.5zM373 702q0 200 121.5 324.5t308.5 124.5q185 0 305.5 -124.5t120.5 -324.5 q0 -199 -120.5 -321.5t-305.5 -122.5q-186 0 -308 123t-122 321zM465 1657q0 58 39.5 92.5t99.5 34.5t100.5 -34.5t40.5 -92.5q0 -56 -40.5 -89.5t-100.5 -33.5t-99.5 33.5t-39.5 89.5zM856 1657q0 58 39.5 92.5t99.5 34.5q59 0 99.5 -34.5t40.5 -92.5q0 -55 -40.5 -89 t-99.5 -34q-60 0 -99.5 33.5t-39.5 89.5z" />
<glyph unicode="&#xd7;" horiz-adv-x="1054" d="M104 457l248 248l-243 243l176 178l245 -243l246 245l176 -176l-247 -245l243 -244l-176 -178l-244 243l-247 -245z" />
<glyph unicode="&#xd8;" horiz-adv-x="1777" d="M-4 0l291 283q-123 181 -123 419q0 211 94 377.5t259.5 258.5t371.5 92q255 0 440 -140l123 119h330l-293 -285q123 -181 123 -422q0 -209 -94 -374t-259 -256.5t-370 -91.5q-255 0 -440 137l-121 -117h-332zM444 702q0 -123 48 -221l638 617q-101 67 -241 67 q-193 0 -319 -127.5t-126 -335.5zM647 309q103 -65 242 -65q193 0 317.5 126t124.5 332q0 128 -47 224z" />
<glyph unicode="&#xd9;" horiz-adv-x="1472" d="M131 584v825h295v-829q0 -322 309 -322q312 0 312 322v829h294v-825q0 -137 -35.5 -246.5t-108 -190t-189.5 -124t-273 -43.5q-305 0 -454.5 161t-149.5 443zM360 1790h314l200 -260h-241z" />
<glyph unicode="&#xda;" horiz-adv-x="1472" d="M131 584v825h295v-829q0 -322 309 -322q312 0 312 322v829h294v-825q0 -137 -35.5 -246.5t-108 -190t-189.5 -124t-273 -43.5q-305 0 -454.5 161t-149.5 443zM596 1530l201 260h313l-270 -260h-244z" />
<glyph unicode="&#xdb;" horiz-adv-x="1472" d="M131 584v825h295v-829q0 -322 309 -322q312 0 312 322v829h294v-825q0 -137 -35.5 -246.5t-108 -190t-189.5 -124t-273 -43.5q-305 0 -454.5 161t-149.5 443zM373 1532h252l110 121l111 -121h252l-242 258h-242z" />
<glyph unicode="&#xdc;" horiz-adv-x="1472" d="M131 584v825h295v-829q0 -322 309 -322q312 0 312 322v829h294v-825q0 -137 -35.5 -246.5t-108 -190t-189.5 -124t-273 -43.5q-305 0 -454.5 161t-149.5 443zM401 1657q0 58 40 92.5t100 34.5t100.5 -34.5t40.5 -92.5q0 -56 -40.5 -89.5t-100.5 -33.5t-100 33.5t-40 89.5 zM793 1657q0 58 39.5 92.5t99.5 34.5q59 0 99 -34.5t40 -92.5q0 -55 -40 -89t-99 -34q-60 0 -99.5 33.5t-39.5 89.5z" />
<glyph unicode="&#xdd;" horiz-adv-x="1392" d="M2 1409h320l378 -637l373 637h318l-553 -891v-518h-281v516zM557 1530l201 260h313l-270 -260h-244z" />
<glyph unicode="&#xde;" horiz-adv-x="1355" d="M145 0v1409h279v-207h311q260 0 414 -127.5t154 -369.5q0 -159 -72.5 -272t-199 -168.5t-296.5 -55.5h-311v-209h-279zM424 471h289q139 0 217 58t78 176q0 235 -295 235h-289v-469z" />
<glyph unicode="&#xdf;" horiz-adv-x="1396" d="M35 838v247h209q44 158 176.5 251.5t339.5 93.5q202 0 319 -104.5t117 -258.5q0 -111 -84 -225l-51 -68q-21 -28 -30 -42t-17 -31.5t-8 -32.5q0 -26 21 -46.5t79 -58.5l76 -51q155 -103 155 -250q0 -130 -88.5 -206t-255.5 -76q-186 0 -348 81v232q71 -41 169.5 -73 t170.5 -32q43 0 71.5 16t28.5 52q0 32 -27 57.5t-100 67.5l-65 41q-73 45 -109 90t-36 113q0 45 18 86t53 94l51 78q64 101 64 159q0 65 -48.5 106.5t-142.5 41.5q-121 0 -188.5 -67t-67.5 -191v-932h-264v838h-188z" />
<glyph unicode="&#xe0;" horiz-adv-x="1114" d="M68 281q0 148 125 238.5t319 90.5q133 0 225 -39v56q0 110 -65 163.5t-172 53.5q-116 0 -228.5 -48.5t-185.5 -121.5v270q62 62 185 112t264 50q78 0 146 -16t127 -51.5t101 -89t66 -132.5t24 -178v-639h-245v121q-56 -61 -142.5 -101t-191.5 -40q-164 0 -258 79t-94 222 zM160 1548h313l201 -319h-242zM311 295q0 -115 158 -115q70 0 142.5 23t125.5 59v150q-74 22 -166 22q-123 0 -191.5 -36.5t-68.5 -102.5z" />
<glyph unicode="&#xe1;" horiz-adv-x="1114" d="M68 281q0 148 125 238.5t319 90.5q133 0 225 -39v56q0 110 -65 163.5t-172 53.5q-116 0 -228.5 -48.5t-185.5 -121.5v270q62 62 185 112t264 50q78 0 146 -16t127 -51.5t101 -89t66 -132.5t24 -178v-639h-245v121q-56 -61 -142.5 -101t-191.5 -40q-164 0 -258 79t-94 222 zM311 295q0 -115 158 -115q70 0 142.5 23t125.5 59v150q-74 22 -166 22q-123 0 -191.5 -36.5t-68.5 -102.5zM395 1229l201 319h313l-270 -319h-244z" />
<glyph unicode="&#xe2;" horiz-adv-x="1114" d="M68 281q0 148 125 238.5t319 90.5q133 0 225 -39v56q0 110 -65 163.5t-172 53.5q-116 0 -228.5 -48.5t-185.5 -121.5v270q62 62 185 112t264 50q78 0 146 -16t127 -51.5t101 -89t66 -132.5t24 -178v-639h-245v121q-56 -61 -142.5 -101t-191.5 -40q-164 0 -258 79t-94 222 zM172 1229l242 319h241l242 -319h-252l-110 168l-111 -168h-252zM311 295q0 -115 158 -115q70 0 142.5 23t125.5 59v150q-74 22 -166 22q-123 0 -191.5 -36.5t-68.5 -102.5z" />
<glyph unicode="&#xe3;" horiz-adv-x="1114" d="M68 281q0 148 125 238.5t319 90.5q133 0 225 -39v56q0 110 -65 163.5t-172 53.5q-116 0 -228.5 -48.5t-185.5 -121.5v270q62 62 185 112t264 50q78 0 146 -16t127 -51.5t101 -89t66 -132.5t24 -178v-639h-245v121q-56 -61 -142.5 -101t-191.5 -40q-164 0 -258 79t-94 222 zM193 1214v183q86 125 194 125q35 0 77.5 -16.5t76 -37t74 -37t73.5 -16.5q93 0 189 123v-184q-84 -123 -193 -123q-54 0 -154.5 53t-148.5 53q-39 0 -77 -21t-61 -44.5t-50 -57.5zM311 295q0 -115 158 -115q70 0 142.5 23t125.5 59v150q-74 22 -166 22q-123 0 -191.5 -36.5 t-68.5 -102.5z" />
<glyph unicode="&#xe4;" horiz-adv-x="1114" d="M68 281q0 148 125 238.5t319 90.5q133 0 225 -39v56q0 110 -65 163.5t-172 53.5q-116 0 -228.5 -48.5t-185.5 -121.5v270q62 62 185 112t264 50q78 0 146 -16t127 -51.5t101 -89t66 -132.5t24 -178v-639h-245v121q-56 -61 -142.5 -101t-191.5 -40q-164 0 -258 79t-94 222 zM199 1378q0 57 40.5 98.5t98.5 41.5t99.5 -41.5t41.5 -98.5q0 -58 -41 -98.5t-100 -40.5q-58 0 -98.5 40.5t-40.5 98.5zM311 295q0 -115 158 -115q70 0 142.5 23t125.5 59v150q-74 22 -166 22q-123 0 -191.5 -36.5t-68.5 -102.5zM590 1378q0 57 40.5 98.5t98.5 41.5 q57 0 98 -41.5t41 -98.5q0 -58 -41 -98.5t-98 -40.5q-59 0 -99 40.5t-40 98.5z" />
<glyph unicode="&#xe5;" horiz-adv-x="1114" d="M68 281q0 148 125 238.5t319 90.5q133 0 225 -39v56q0 110 -65 163.5t-172 53.5q-116 0 -228.5 -48.5t-185.5 -121.5v270q62 62 185 112t264 50q78 0 146 -16t127 -51.5t101 -89t66 -132.5t24 -178v-639h-245v121q-56 -61 -142.5 -101t-191.5 -40q-164 0 -258 79t-94 222 zM291 1444q0 99 72 169t176 70q105 0 177 -70t72 -169q0 -100 -72 -171t-177 -71q-104 0 -176 71t-72 171zM311 295q0 -115 158 -115q70 0 142.5 23t125.5 59v150q-74 22 -166 22q-123 0 -191.5 -36.5t-68.5 -102.5zM438 1444q0 -45 30.5 -75t72.5 -30t72 30t30 75 q0 44 -30 74t-72 30t-72.5 -30t-30.5 -74z" />
<glyph unicode="&#xe6;" horiz-adv-x="1826" d="M68 283q0 148 120 237.5t312 89.5q136 0 237 -37v54q0 110 -66.5 163.5t-176.5 53.5q-112 0 -218.5 -48t-177.5 -122v270q63 63 181.5 112.5t257.5 49.5q239 0 358 -139q142 139 369 139t352 -136t125 -380v-123h-740q30 -240 345 -240q106 0 207 26t171 64v-231 q-58 -45 -172.5 -75.5t-236.5 -30.5q-297 0 -453 182q-67 -78 -181.5 -130t-252.5 -52q-168 0 -264 82t-96 221zM311 297q0 -60 44.5 -88.5t121.5 -28.5q189 0 309 105q-23 54 -36 125q-81 24 -179 24q-126 0 -193 -35.5t-67 -101.5zM999 637h484q-2 115 -60 180.5 t-174 65.5q-112 0 -177 -66.5t-73 -179.5z" />
<glyph unicode="&#xe7;" horiz-adv-x="1079" d="M76 543q0 164 77 293t210.5 199.5t298.5 70.5q218 0 348 -90v-262q-151 104 -338 104q-149 0 -239.5 -85t-90.5 -230q0 -141 91 -228.5t237 -87.5q189 0 340 107v-262q-104 -68 -248 -86l-150 -373l-215 84l187 287q-223 25 -365.5 180.5t-142.5 378.5z" />
<glyph unicode="&#xe8;" horiz-adv-x="1165" d="M76 543q0 258 144.5 410.5t383.5 152.5q226 0 350.5 -136t124.5 -380v-123h-735q27 -240 340 -240q106 0 207.5 26t171.5 64v-231q-58 -45 -173 -75.5t-237 -30.5q-263 0 -420 148t-157 415zM203 1548h313l201 -319h-242zM342 637h479q-2 115 -59.5 180.5t-173.5 65.5 q-111 0 -174.5 -66.5t-71.5 -179.5z" />
<glyph unicode="&#xe9;" horiz-adv-x="1165" d="M76 543q0 258 144.5 410.5t383.5 152.5q226 0 350.5 -136t124.5 -380v-123h-735q27 -240 340 -240q106 0 207.5 26t171.5 64v-231q-58 -45 -173 -75.5t-237 -30.5q-263 0 -420 148t-157 415zM342 637h479q-2 115 -59.5 180.5t-173.5 65.5q-111 0 -174.5 -66.5 t-71.5 -179.5zM438 1229l201 319h313l-270 -319h-244z" />
<glyph unicode="&#xea;" horiz-adv-x="1165" d="M76 543q0 258 144.5 410.5t383.5 152.5q226 0 350.5 -136t124.5 -380v-123h-735q27 -240 340 -240q106 0 207.5 26t171.5 64v-231q-58 -45 -173 -75.5t-237 -30.5q-263 0 -420 148t-157 415zM215 1229l242 319h241l242 -319h-252l-110 168l-111 -168h-252zM342 637h479 q-2 115 -59.5 180.5t-173.5 65.5q-111 0 -174.5 -66.5t-71.5 -179.5z" />
<glyph unicode="&#xeb;" horiz-adv-x="1165" d="M76 543q0 258 144.5 410.5t383.5 152.5q226 0 350.5 -136t124.5 -380v-123h-735q27 -240 340 -240q106 0 207.5 26t171.5 64v-231q-58 -45 -173 -75.5t-237 -30.5q-263 0 -420 148t-157 415zM244 1378q0 57 40.5 98.5t98.5 41.5t99.5 -41.5t41.5 -98.5q0 -58 -41 -98.5 t-100 -40.5t-99 40.5t-40 98.5zM342 637h479q-2 115 -59.5 180.5t-173.5 65.5q-111 0 -174.5 -66.5t-71.5 -179.5zM635 1378q0 57 40.5 98.5t98.5 41.5q57 0 98 -41.5t41 -98.5q0 -58 -41 -98.5t-98 -40.5q-58 0 -98.5 40.5t-40.5 98.5z" />
<glyph unicode="&#xec;" horiz-adv-x="507" d="M-121 1548h314l200 -319h-241zM121 0v1085h264v-1085h-264z" />
<glyph unicode="&#xed;" horiz-adv-x="507" d="M115 1229l200 319h314l-271 -319h-243zM121 0v1085h264v-1085h-264z" />
<glyph unicode="&#xee;" horiz-adv-x="507" d="M-109 1229h252l111 168l111 -168h251l-241 319h-242zM121 0v1085h264v-1085h-264z" />
<glyph unicode="&#xef;" horiz-adv-x="507" d="M-82 1378q0 57 40.5 98.5t98.5 41.5t100 -41.5t42 -98.5q0 -58 -41.5 -98.5t-100.5 -40.5t-99 40.5t-40 98.5zM121 0v1085h264v-1085h-264zM309 1378q0 57 41 98.5t99 41.5q57 0 98 -41.5t41 -98.5q0 -58 -41 -98.5t-98 -40.5q-59 0 -99.5 40.5t-40.5 98.5z" />
<glyph unicode="&#xf0;" horiz-adv-x="1300" d="M76 473q0 190 131 315t338 125q195 0 338 -112q-76 154 -238 319l-229 -116h-238l385 194q-139 128 -272 211h385q72 -46 123 -90l178 90h237l-329 -168q142 -140 232.5 -317.5t90.5 -376.5q0 -263 -151.5 -415t-415.5 -152q-257 0 -411 133t-154 360zM369 473 q0 -106 72.5 -167.5t189.5 -61.5q126 0 204 80.5t78 228.5q0 31 -2 43q-132 90 -286 90q-116 0 -186 -58t-70 -155z" />
<glyph unicode="&#xf1;" horiz-adv-x="1255" d="M121 0v1085h248v-133q75 66 178.5 110t222.5 44q186 0 278.5 -108.5t92.5 -301.5v-696h-264v629q0 106 -55.5 163.5t-164.5 57.5q-136 0 -272 -68v-782h-264zM289 1214v183q86 125 194 125q35 0 77.5 -16.5t76 -37t74 -37t73.5 -16.5q93 0 189 123v-184 q-84 -123 -193 -123q-54 0 -154.5 53t-148.5 53q-39 0 -77 -21t-61 -44.5t-50 -57.5z" />
<glyph unicode="&#xf2;" horiz-adv-x="1300" d="M76 543q0 -158 74 -286.5t205.5 -202.5t293.5 -74q163 0 295.5 74t206.5 202.5t74 286.5q0 245 -163 404t-413 159q-248 0 -410.5 -159t-162.5 -404zM274 1548h314l200 -319h-241zM340 543q0 139 88.5 227t220.5 88q134 0 224 -88t90 -227q0 -137 -90.5 -226.5 t-223.5 -89.5q-132 0 -220.5 89.5t-88.5 226.5z" />
<glyph unicode="&#xf3;" horiz-adv-x="1300" d="M76 543q0 -158 74 -286.5t205.5 -202.5t293.5 -74q163 0 295.5 74t206.5 202.5t74 286.5q0 245 -163 404t-413 159q-248 0 -410.5 -159t-162.5 -404zM340 543q0 139 88.5 227t220.5 88q134 0 224 -88t90 -227q0 -137 -90.5 -226.5t-223.5 -89.5q-132 0 -220.5 89.5 t-88.5 226.5zM510 1229l201 319h313l-270 -319h-244z" />
<glyph unicode="&#xf4;" horiz-adv-x="1300" d="M76 543q0 -158 74 -286.5t205.5 -202.5t293.5 -74q163 0 295.5 74t206.5 202.5t74 286.5q0 245 -163 404t-413 159q-248 0 -410.5 -159t-162.5 -404zM287 1229h252l110 168l111 -168h252l-242 319h-242zM340 543q0 139 88.5 227t220.5 88q134 0 224 -88t90 -227 q0 -137 -90.5 -226.5t-223.5 -89.5q-132 0 -220.5 89.5t-88.5 226.5z" />
<glyph unicode="&#xf5;" horiz-adv-x="1300" d="M76 543q0 -158 74 -286.5t205.5 -202.5t293.5 -74q163 0 295.5 74t206.5 202.5t74 286.5q0 245 -163 404t-413 159q-248 0 -410.5 -159t-162.5 -404zM307 1214v183q86 125 195 125q35 0 77.5 -16.5t76 -37t74 -37t73.5 -16.5q39 0 77 21t61 44.5t50 57.5v-184 q-84 -123 -192 -123q-54 0 -154.5 53t-148.5 53q-93 0 -189 -123zM340 543q0 139 88.5 227t220.5 88q134 0 224 -88t90 -227q0 -137 -90.5 -226.5t-223.5 -89.5q-132 0 -220.5 89.5t-88.5 226.5z" />
<glyph unicode="&#xf6;" horiz-adv-x="1300" d="M76 543q0 -158 74 -286.5t205.5 -202.5t293.5 -74q163 0 295.5 74t206.5 202.5t74 286.5q0 245 -163 404t-413 159q-248 0 -410.5 -159t-162.5 -404zM315 1378q0 57 41 98.5t99 41.5t99.5 -41.5t41.5 -98.5q0 -58 -41 -98.5t-100 -40.5t-99.5 40.5t-40.5 98.5zM340 543 q0 139 88.5 227t220.5 88q134 0 224 -88t90 -227q0 -137 -90.5 -226.5t-223.5 -89.5q-132 0 -220.5 89.5t-88.5 226.5zM707 1378q0 57 40.5 98.5t98.5 41.5q57 0 98 -41.5t41 -98.5q0 -58 -41 -98.5t-98 -40.5q-58 0 -98.5 40.5t-40.5 98.5z" />
<glyph unicode="&#xf7;" horiz-adv-x="1056" d="M80 588v239h897v-239h-897zM356 301q0 71 50 121.5t120 50.5t121 -50.5t51 -121.5q0 -70 -50.5 -120t-121.5 -50q-70 0 -120 49.5t-50 120.5zM356 1108q0 71 50 121.5t120 50.5t121 -51t51 -121t-50.5 -120t-121.5 -50q-70 0 -120 50t-50 120z" />
<glyph unicode="&#xf8;" horiz-adv-x="1310" d="M-16 0l209 199q-113 148 -113 344q0 245 162.5 404t410.5 159q214 0 367 -119l102 98h205l-207 -198q111 -146 111 -344q0 -158 -74.5 -286.5t-207.5 -202.5t-296 -74q-210 0 -362 120l-105 -100h-202zM344 543q0 -92 41 -160l446 424q-79 51 -178 51q-131 0 -220 -88 t-89 -227zM479 279q77 -52 174 -52q133 0 223.5 89.5t90.5 226.5q0 94 -41 162z" />
<glyph unicode="&#xf9;" horiz-adv-x="1255" d="M115 389v696h264v-628q0 -107 54.5 -164t164.5 -57q142 0 272 67v782h263v-1085h-246v135q-74 -67 -177.5 -111t-224.5 -44q-187 0 -278.5 107.5t-91.5 301.5zM248 1548h313l201 -319h-242z" />
<glyph unicode="&#xfa;" horiz-adv-x="1255" d="M115 389v696h264v-628q0 -107 54.5 -164t164.5 -57q142 0 272 67v782h263v-1085h-246v135q-74 -67 -177.5 -111t-224.5 -44q-187 0 -278.5 107.5t-91.5 301.5zM485 1229l201 319h313l-270 -319h-244z" />
<glyph unicode="&#xfb;" horiz-adv-x="1255" d="M115 389v696h264v-628q0 -107 54.5 -164t164.5 -57q142 0 272 67v782h263v-1085h-246v135q-74 -67 -177.5 -111t-224.5 -44q-187 0 -278.5 107.5t-91.5 301.5zM260 1229l242 319h241l242 -319h-252l-110 168l-111 -168h-252z" />
<glyph unicode="&#xfc;" horiz-adv-x="1255" d="M115 389v696h264v-628q0 -107 54.5 -164t164.5 -57q142 0 272 67v782h263v-1085h-246v135q-74 -67 -177.5 -111t-224.5 -44q-187 0 -278.5 107.5t-91.5 301.5zM289 1378q0 57 40.5 98.5t98.5 41.5t99.5 -41.5t41.5 -98.5q0 -58 -41 -98.5t-100 -40.5q-58 0 -98.5 40.5 t-40.5 98.5zM680 1378q0 57 40.5 98.5t98.5 41.5q57 0 98 -41.5t41 -98.5q0 -58 -41 -98.5t-98 -40.5q-59 0 -99 40.5t-40 98.5z" />
<glyph unicode="&#xfd;" horiz-adv-x="1191" d="M20 1085h295l312 -747l291 747h292l-497 -1138q-124 -291 -387 -291q-86 0 -158.5 29.5t-120.5 70.5v250q43 -41 111.5 -74.5t152.5 -33.5q58 0 102 25.5t68 70.5l25 51zM477 1229l201 319h313l-270 -319h-244z" />
<glyph unicode="&#xfe;" horiz-adv-x="1234" d="M121 -324v1733l264 37v-428q121 88 295 88q91 0 174 -31.5t152.5 -94t111 -169t41.5 -242.5q0 -120 -34 -219t-92 -166.5t-136 -114t-164.5 -68t-179.5 -21.5q-82 0 -168 14v-318h-264zM385 238q82 -23 154 -23t132.5 18.5t110 57t77.5 105t28 155.5q0 155 -79.5 237 t-211.5 82q-111 0 -211 -57v-575z" />
<glyph unicode="&#xff;" horiz-adv-x="1191" d="M20 1085h295l312 -747l291 747h292l-497 -1138q-124 -291 -387 -291q-86 0 -158.5 29.5t-120.5 70.5v250q43 -41 111.5 -74.5t152.5 -33.5q58 0 102 25.5t68 70.5l25 51zM281 1378q0 57 40.5 98.5t98.5 41.5t99.5 -41.5t41.5 -98.5q0 -58 -41 -98.5t-100 -40.5 q-58 0 -98.5 40.5t-40.5 98.5zM672 1378q0 57 40.5 98.5t98.5 41.5q57 0 98 -41.5t41 -98.5q0 -58 -41 -98.5t-98 -40.5q-59 0 -99 40.5t-40 98.5z" />
<glyph unicode="&#x152;" horiz-adv-x="2285" d="M78 702q0 211 94 377.5t259.5 258.5t371.5 92q97 0 182 -21h1219v-262h-818q97 -133 127 -307h588v-262h-588q-24 -179 -127 -316h818v-262h-1219q-81 -20 -182 -20q-206 0 -371.5 91.5t-259.5 256.5t-94 374zM358 702q0 -206 125.5 -332t319.5 -126q192 0 317 126 t125 332q0 208 -125 335.5t-317 127.5q-195 0 -320 -127.5t-125 -335.5z" />
<glyph unicode="&#x153;" horiz-adv-x="2050" d="M76 543q0 161 75 290.5t206 201t292 71.5q130 0 241.5 -47t190.5 -133q70 87 174 133.5t234 46.5q225 0 350 -136t125 -380v-123h-737q27 -240 342 -240q106 0 207.5 26t171.5 64v-231q-58 -45 -173 -75.5t-237 -30.5q-147 0 -263.5 47t-191.5 137q-79 -88 -190.5 -136 t-243.5 -48q-244 0 -408.5 162t-164.5 401zM340 543q0 -136 90 -226t219 -90q124 0 213 80t99 205v31v32q-10 126 -98.5 204.5t-213.5 78.5q-130 0 -219.5 -88.5t-89.5 -226.5zM1225 637h481q-2 114 -61 180t-175 66q-111 0 -174 -66.5t-71 -179.5z" />
<glyph unicode="&#x178;" horiz-adv-x="1392" d="M2 1409h320l378 -637l373 637h318l-553 -891v-518h-281v516zM360 1657q0 58 40 92.5t100 34.5t100.5 -34.5t40.5 -92.5q0 -56 -40.5 -89.5t-100.5 -33.5t-100 33.5t-40 89.5zM752 1657q0 58 39.5 92.5t99.5 34.5q59 0 99 -34.5t40 -92.5q0 -55 -40 -89t-99 -34 q-60 0 -99.5 33.5t-39.5 89.5z" />
<glyph unicode="&#x2c6;" horiz-adv-x="880" d="M78 1229h252l110 168l111 -168h252l-242 319h-242z" />
<glyph unicode="&#x2dc;" horiz-adv-x="839" d="M78 1214v183q86 125 194 125q35 0 77.5 -16.5t76 -37t74 -37t73.5 -16.5q93 0 189 123v-184q-84 -123 -193 -123q-54 0 -154.5 53t-148.5 53q-39 0 -77 -21t-61 -44.5t-50 -57.5z" />
<glyph unicode="&#x2000;" horiz-adv-x="905" />
<glyph unicode="&#x2001;" horiz-adv-x="1810" />
<glyph unicode="&#x2002;" horiz-adv-x="905" />
<glyph unicode="&#x2003;" horiz-adv-x="1810" />
<glyph unicode="&#x2004;" horiz-adv-x="603" />
<glyph unicode="&#x2005;" horiz-adv-x="452" />
<glyph unicode="&#x2006;" horiz-adv-x="301" />
<glyph unicode="&#x2007;" horiz-adv-x="301" />
<glyph unicode="&#x2008;" horiz-adv-x="226" />
<glyph unicode="&#x2009;" horiz-adv-x="362" />
<glyph unicode="&#x200a;" horiz-adv-x="100" />
<glyph unicode="&#x2010;" horiz-adv-x="661" d="M76 430v225h508v-225h-508z" />
<glyph unicode="&#x2011;" horiz-adv-x="661" d="M76 430v225h508v-225h-508z" />
<glyph unicode="&#x2012;" horiz-adv-x="661" d="M76 430v225h508v-225h-508z" />
<glyph unicode="&#x2013;" horiz-adv-x="1013" d="M76 430v225h860v-225h-860z" />
<glyph unicode="&#x2014;" horiz-adv-x="1675" d="M76 430v225h1523v-225h-1523z" />
<glyph unicode="&#x2018;" horiz-adv-x="454" d="M51 956l127 453h195l-66 -453h-256z" />
<glyph unicode="&#x2019;" horiz-adv-x="454" d="M82 956l65 453h256l-129 -453h-192z" />
<glyph unicode="&#x201a;" horiz-adv-x="454" d="M82 -242l65 453h256l-129 -453h-192z" />
<glyph unicode="&#x201c;" horiz-adv-x="823" d="M51 956l127 453h195l-66 -453h-256zM420 956l129 453h192l-65 -453h-256z" />
<glyph unicode="&#x201d;" horiz-adv-x="823" d="M82 956l65 453h256l-129 -453h-192zM453 956l63 453h256l-127 -453h-192z" />
<glyph unicode="&#x201e;" horiz-adv-x="823" d="M82 -242l65 453h256l-129 -453h-192zM453 -242l63 453h256l-127 -453h-192z" />
<glyph unicode="&#x2022;" horiz-adv-x="819" d="M111 705q0 125 87.5 212t211.5 87t211.5 -87t87.5 -212t-87.5 -212t-211.5 -87t-211.5 87t-87.5 212z" />
<glyph unicode="&#x2026;" horiz-adv-x="1550" d="M66 143q0 71 50 121.5t120 50.5t121 -50.5t51 -121.5q0 -70 -50.5 -120t-121.5 -50q-70 0 -120 49.5t-50 120.5zM604 143q0 71 50 121.5t120 50.5t121 -50.5t51 -121.5q0 -70 -50.5 -120t-121.5 -50q-70 0 -120 49.5t-50 120.5zM1143 143q0 71 50 121.5t120 50.5 q71 0 121.5 -50.5t50.5 -121.5q0 -70 -50.5 -120t-121.5 -50t-120.5 49.5t-49.5 120.5z" />
<glyph unicode="&#x202f;" horiz-adv-x="362" />
<glyph unicode="&#x2039;" horiz-adv-x="626" d="M68 430l469 -258v242l-267 131l267 129v241l-469 -258v-227z" />
<glyph unicode="&#x203a;" horiz-adv-x="626" d="M88 172l469 258v227l-469 258v-241l266 -129l-266 -131v-242z" />
<glyph unicode="&#x205f;" horiz-adv-x="452" />
<glyph unicode="&#x20ac;" horiz-adv-x="1402" d="M20 461v192h170q-2 16 -2 49q0 42 2 62h-170v192h205q67 223 246 348.5t422 125.5q139 0 239.5 -31.5t194.5 -87.5v-289q-196 145 -418 145q-126 0 -222.5 -54t-149.5 -157h434v-192h-486q-2 -20 -2 -62q0 -33 2 -49h486v-192h-439q50 -107 149 -164t228 -57 q222 0 418 139v-289q-98 -55 -197 -85t-237 -30q-246 0 -426 128.5t-246 357.5h-201z" />
<glyph unicode="&#x2122;" horiz-adv-x="915" d="M94 1288v80h297v-80h-104v-227h-88v227h-105zM446 1061v307h111l78 -215l76 215h110v-307h-82v188l-61 -188h-88l-60 188v-188h-84z" />
<glyph unicode="&#x25fc;" horiz-adv-x="1085" d="M0 0v1085h1085v-1085h-1085z" />
<glyph unicode="&#xfb03;" horiz-adv-x="1898" d="M35 854v231h149q5 118 59 201.5t138.5 122.5t191.5 39q88 0 152 -27v-213q-59 25 -117 25q-70 0 -111.5 -37t-47.5 -111h393q3 99 35.5 172.5t86 114.5t117 60.5t136.5 19.5q38 0 112 -12v-213q-36 10 -80 10q-143 0 -143 -145v-7h655v-1085h-262v854h-393v-854h-264v854 h-393v-854h-265v854h-149zM1450 1352q0 66 47.5 102.5t132.5 36.5t131.5 -36.5t46.5 -102.5t-47 -104t-131 -38t-132 38t-48 104z" />
<glyph unicode="&#xfb04;" horiz-adv-x="1888" d="M35 854v231h149q5 118 59 201.5t138.5 122.5t191.5 39q88 0 152 -27v-213q-59 25 -117 25q-70 0 -111.5 -37t-47.5 -111h393q5 119 63 202.5t145.5 121t194.5 37.5q81 0 152.5 -16t113.5 -37l250 53v-1446h-262v1192q-99 47 -207 47q-85 0 -133.5 -35t-52.5 -119h215 v-231h-215v-854h-264v854h-393v-854h-265v854h-149z" />
</font>
</defs>
</svg>
