<?xml version="1.0" standalone="no"?>
<!DOCTYPE svg PUBLIC "-//W3C//DTD SVG 1.1//EN" "http://www.w3.org/Graphics/SVG/1.1/DTD/svg11.dtd" >
<svg xmlns="http://www.w3.org/2000/svg" xmlns:xlink="http://www.w3.org/1999/xlink" version="1.1">
<metadata></metadata>
<defs>
<font id="roundoregular" horiz-adv-x="1236" >
<font-face units-per-em="2048" ascent="1536" descent="-512" />
<missing-glyph horiz-adv-x="430" />
<glyph unicode="&#xfb01;" horiz-adv-x="1124" d="M63 969v116h162v37q0 71 18 126.5t47.5 90.5t71 58t84.5 32t91 9q46 0 108 -15v-112q-54 14 -98 14q-191 0 -191 -192v-48h590v-1085h-131v969h-459v-969h-131v969h-162zM770 1350q0 40 28 65t74 25t74.5 -25t28.5 -65t-28.5 -65t-74.5 -25t-74 25t-28 65z" />
<glyph unicode="&#xfb02;" horiz-adv-x="1122" d="M63 969v116h162v21q0 88 28.5 153.5t77.5 102t107 53.5t125 17q74 0 145 -16.5t113 -37.5l125 58v-1436h-131v1270q-115 53 -235 53q-224 0 -224 -201v-37h258v-116h-258v-969h-131v969h-162z" />
<glyph horiz-adv-x="0" />
<glyph horiz-adv-x="682" />
<glyph horiz-adv-x="0" />
<glyph horiz-adv-x="0" />
<glyph unicode="&#xd;" horiz-adv-x="430" />
<glyph unicode=" "  horiz-adv-x="430" />
<glyph unicode="&#x09;" horiz-adv-x="430" />
<glyph unicode="&#xa0;" horiz-adv-x="430" />
<glyph unicode="!" horiz-adv-x="530" d="M164 86q0 41 29.5 71.5t70.5 30.5q43 0 74 -30.5t31 -71.5t-31 -71.5t-74 -30.5q-41 0 -70.5 30.5t-29.5 71.5zM178 1409h172q0 -157 -15.5 -505t-15.5 -468h-110q0 119 -15.5 467.5t-15.5 505.5z" />
<glyph unicode="&#x22;" horiz-adv-x="575" d="M96 1409h121l-16 -403h-92zM358 1409h121l-16 -403h-90z" />
<glyph unicode="#" horiz-adv-x="1275" d="M39 375l20 102h228l73 365h-233l18 102h238l74 367h116l-73 -367h391l74 367h114l-73 -367h231l-18 -102h-236l-74 -365h242l-21 -102h-241l-76 -375h-115l76 375h-391l-76 -375h-117l76 375h-227zM403 477h392l73 365h-391z" />
<glyph unicode="$" horiz-adv-x="1185" d="M74 1053q0 117 62.5 203t163.5 128.5t228 45.5v167h125v-174q224 -25 359 -127v-149q-87 63 -211 108t-258 45q-156 0 -241 -66t-85 -171q0 -48 16.5 -86t40.5 -63.5t68.5 -49.5t82.5 -38.5t101 -34.5l156 -50q68 -22 115 -40.5t96.5 -44t81 -54t58 -66t38.5 -86 t12 -108.5q0 -166 -118 -261t-312 -104v-167h-125v172q-128 11 -243 52t-197 97v143q104 -72 247 -121t286 -49q163 0 243 62.5t80 171.5q0 57 -18 97.5t-60.5 72t-92 53t-132.5 49.5l-195 62q-63 19 -111 38.5t-99.5 51.5t-85 70.5t-55 95t-21.5 125.5z" />
<glyph unicode="%" horiz-adv-x="1527" d="M80 1092q0 -152 88 -245t221 -93t221 93t88 245q0 154 -88 246t-223 92q-132 0 -219.5 -92.5t-87.5 -245.5zM182 1096q0 106 58 171.5t147 65.5q91 0 149 -65.5t58 -171.5q0 -109 -58 -176.5t-149 -67.5q-89 0 -147 67.5t-58 176.5zM250 0l911 1409h123l-907 -1409h-127z M840 317q0 -153 87.5 -245t221.5 -92q135 0 222 91.5t87 245.5q0 153 -87.5 245.5t-221.5 92.5q-133 0 -221 -93t-88 -245zM944 319q0 108 57.5 174t147.5 66t147.5 -66.5t57.5 -173.5q0 -108 -57.5 -174.5t-147.5 -66.5t-147.5 66.5t-57.5 174.5z" />
<glyph unicode="&#x26;" horiz-adv-x="1597" d="M104 401q0 148 94 257t248 161q-122 154 -122 326q0 176 119.5 277.5t304.5 101.5q169 0 313 -72v-143q-146 86 -305 86q-133 0 -213 -73t-80 -187q0 -71 29 -139t72.5 -124t119.5 -135l715 -737h-166l-201 205q-86 -100 -209 -162.5t-268 -62.5q-204 0 -327.5 118 t-123.5 303zM242 410q0 -134 89.5 -220t237.5 -86q117 0 219 52t166 129l-358 366q-12 13 -36 38t-36 38q-126 -33 -204 -117t-78 -200zM1040 692v111h494v-111h-494z" />
<glyph unicode="'" horiz-adv-x="313" d="M96 1409h121l-16 -403h-92z" />
<glyph unicode="(" horiz-adv-x="563" d="M90 678q0 -132 32 -258.5t86 -227.5t106.5 -173.5t111.5 -135.5h102q-47 60 -77 102t-79.5 127t-79.5 161.5t-53.5 185.5t-23.5 219t23.5 219t53.5 185.5t79.5 161.5t79.5 127t77 102h-102q-59 -61 -111.5 -134.5t-106.5 -174t-86 -227.5t-32 -259z" />
<glyph unicode=")" horiz-adv-x="563" d="M35 -117h100q60 62 113 135.5t107 174t86 227t32 258.5t-32 259t-86 227.5t-107.5 174t-112.5 134.5h-100q47 -60 77 -102t79.5 -127t79.5 -161.5t53.5 -185.5t23.5 -219t-23.5 -219t-53.5 -185.5t-79.5 -161.5t-79.5 -127t-77 -102z" />
<glyph unicode="*" horiz-adv-x="913" d="M90 1161l39 117l289 -121l-23 313h123l-24 -313l290 119l39 -117l-305 -72l203 -241l-100 -72l-164 268l-166 -266l-101 70l205 239z" />
<glyph unicode="+" horiz-adv-x="1034" d="M121 645v119h334v356h125v-356h335v-119h-335v-356h-125v356h-334z" />
<glyph unicode="," horiz-adv-x="292" d="M-23 -248l113 424h148l-156 -424h-105z" />
<glyph unicode="-" horiz-adv-x="608" d="M66 483v119h477v-119h-477z" />
<glyph unicode="." horiz-adv-x="315" d="M55 86q0 41 30 71.5t71 30.5q43 0 73.5 -30.5t30.5 -71.5t-30.5 -71.5t-73.5 -30.5q-41 0 -71 30.5t-30 71.5z" />
<glyph unicode="/" horiz-adv-x="876" d="M35 -61l692 1624h117l-692 -1624h-117z" />
<glyph unicode="0" horiz-adv-x="1425" d="M152 705q0 -147 29.5 -268t81 -204.5t122.5 -141t153.5 -84.5t174.5 -27q116 0 215.5 43.5t177.5 129.5t123 228t45 324t-45 323.5t-123 227.5t-178 130t-215 44q-92 0 -174.5 -27t-153.5 -84.5t-122.5 -141.5t-81 -205t-29.5 -267zM291 705q0 288 117.5 441.5 t304.5 153.5t304.5 -153.5t117.5 -441.5q0 -290 -117.5 -444.5t-304.5 -154.5t-304.5 154.5t-117.5 444.5z" />
<glyph unicode="1" horiz-adv-x="636" d="M59 1288l56 121h329v-1409h-133v1288h-252z" />
<glyph unicode="2" horiz-adv-x="1132" d="M76 0v102l555 541q60 58 90 89t68.5 76.5t56 78.5t30.5 75t13 87q0 115 -76 186.5t-211 71.5q-251 0 -481 -220v146q33 30 74 58.5t104 62.5t144.5 55t166.5 21q187 0 301.5 -100t114.5 -275q0 -58 -17 -114t-40.5 -99t-68.5 -96t-80 -87.5t-97 -91.5l-471 -444h786v-123 h-962z" />
<glyph unicode="3" horiz-adv-x="1112" d="M59 121q77 -60 191 -100.5t252 -40.5q124 0 224.5 34t164.5 93.5t98.5 136.5t34.5 164q0 183 -123.5 298t-339.5 115h-155l565 463v125h-869v-123h689l-558 -485v-86h297q168 0 262.5 -83.5t94.5 -217.5q0 -136 -103.5 -224t-291.5 -88q-135 0 -247.5 47t-185.5 111v-139 z" />
<glyph unicode="4" horiz-adv-x="1333" d="M57 326v102l809 981h135v-963h283v-120h-283v-326h-135v326h-809zM215 446h651v787z" />
<glyph unicode="5" horiz-adv-x="1202" d="M117 143v142q90 -74 219.5 -128.5t269.5 -54.5q60 0 113 10.5t101.5 34t83 58t55 86t20.5 115.5q0 87 -34 151.5t-94.5 101.5t-135 54.5t-164.5 17.5h-373l76 678h770v-123h-655l-50 -434h259q90 0 168 -15t146.5 -49.5t117 -85.5t76.5 -126.5t28 -169.5 q0 -88 -27.5 -160t-74.5 -120.5t-111.5 -82t-136 -48.5t-150.5 -15q-160 0 -287.5 50t-209.5 113z" />
<glyph unicode="6" horiz-adv-x="1271" d="M113 551q0 116 39 233.5t99 211t137 177.5t148.5 141t137.5 95h196q-67 -38 -145.5 -97.5t-165.5 -142.5t-162.5 -191t-113.5 -218q71 77 177 125.5t238 48.5q97 0 182.5 -31.5t150.5 -89t102.5 -146t37.5 -196.5q0 -224 -145.5 -357.5t-376.5 -133.5q-116 0 -213.5 36 t-169.5 106t-112.5 179.5t-40.5 249.5zM250 547q0 -220 112 -332.5t291 -112.5q171 0 277 98.5t106 268.5q0 165 -102.5 257.5t-257.5 92.5q-245 0 -416 -182q-10 -52 -10 -90z" />
<glyph unicode="7" horiz-adv-x="1064" d="M39 1286v123h985v-113l-700 -1296h-152l707 1286h-840z" />
<glyph unicode="8" horiz-adv-x="1261" d="M100 389q0 129 74.5 227.5t216.5 147.5q-107 42 -165 123.5t-58 181.5q0 158 126 259.5t337 101.5q214 0 340.5 -102.5t126.5 -262.5q0 -99 -59 -179.5t-165 -121.5q139 -49 214 -148t75 -225q0 -177 -142 -294t-390 -117q-124 0 -225.5 32t-168 88t-102 130t-35.5 159z M233 397q0 -133 108 -217t290 -84t289.5 84.5t107.5 218.5q0 138 -107.5 224t-289.5 86t-290 -87t-108 -225zM299 1063q0 -114 91 -184t241 -70q152 0 243 69t91 185q0 113 -91 181.5t-243 68.5q-151 0 -241.5 -68t-90.5 -182z" />
<glyph unicode="9" horiz-adv-x="1269" d="M98 938q0 224 145.5 358t377.5 134q238 0 386 -148t148 -424q0 -116 -39 -233.5t-99 -211t-136.5 -177.5t-148.5 -141t-138 -95h-195q53 29 113 71.5t132.5 106t135.5 133t119.5 158.5t87.5 178q-71 -76 -177.5 -124t-238.5 -48q-97 0 -182.5 31.5t-150.5 89t-102.5 146 t-37.5 196.5zM233 940q0 -165 103 -257.5t258 -92.5q250 0 418 186q8 39 8 86q0 112 -31 198.5t-86.5 139.5t-128 80t-158.5 27q-171 0 -277 -98.5t-106 -268.5z" />
<glyph unicode=":" horiz-adv-x="315" d="M55 86q0 41 30 71.5t71 30.5q43 0 73.5 -30.5t30.5 -71.5t-30.5 -71.5t-73.5 -30.5q-41 0 -71 30.5t-30 71.5zM55 842q0 42 29.5 72t71.5 30q43 0 73.5 -29.5t30.5 -72.5q0 -41 -30.5 -71t-73.5 -30q-41 0 -71 30t-30 71z" />
<glyph unicode=";" horiz-adv-x="317" d="M-23 -248l113 424h148l-156 -424h-105zM57 842q0 42 30.5 72t72.5 30t72 -30t30 -72q0 -41 -30.5 -71t-71.5 -30t-72 30t-31 71z" />
<glyph unicode="&#x3c;" horiz-adv-x="1034" d="M121 651v111l794 352v-131l-649 -276l649 -279v-131z" />
<glyph unicode="=" horiz-adv-x="1034" d="M121 479v119h794v-119h-794zM121 811v119h794v-119h-794z" />
<glyph unicode="&#x3e;" horiz-adv-x="1034" d="M121 252v133l649 322l-649 319v133l794 -397v-111z" />
<glyph unicode="?" horiz-adv-x="1075" d="M66 1081v152q33 30 75 58.5t106 62.5t148 55t172 21q118 0 209.5 -39t147 -120t55.5 -194q0 -106 -55 -180t-152 -135l-254 -162v-160h-117v203l258 170q58 37 92.5 66.5t61.5 77.5t27 104q0 108 -77.5 173.5t-209.5 65.5q-77 0 -154 -21.5t-140 -57t-109.5 -70 t-83.5 -70.5zM371 86q0 41 30.5 71.5t71.5 30.5t71.5 -30.5t30.5 -71.5t-30.5 -71.5t-71.5 -30.5t-71.5 30.5t-30.5 71.5z" />
<glyph unicode="@" horiz-adv-x="1515" d="M117 596q0 216 93 381t254 252.5t365 87.5q265 0 419.5 -149t154.5 -400v-500h-113v146q-199 -164 -413 -164q-156 0 -242 76t-86 198q0 139 121 224.5t329 85.5q160 0 279 -39q-5 185 -127 295t-324 110q-169 0 -302 -71.5t-210 -208.5t-77 -320q0 -299 172 -470 t452 -171q284 0 461 154v-133q-189 -138 -461 -138q-220 0 -388 89.5t-262.5 261t-94.5 403.5zM674 530q0 -92 64 -136t165 -44q173 0 375 137v215q-113 37 -250 37q-177 0 -265.5 -55t-88.5 -154z" />
<glyph unicode="A" horiz-adv-x="1411" d="M14 0l607 1409h170l606 -1409h-150l-196 465h-693l-196 -465h-148zM410 586h589l-294 694z" />
<glyph unicode="B" horiz-adv-x="1368" d="M190 0v1409h553q96 0 173.5 -19t137.5 -59t93 -108t33 -160q0 -126 -77 -208.5t-198 -106.5q177 -23 271 -118t94 -249q0 -190 -131 -285.5t-357 -95.5h-592zM326 127h446q161 0 256.5 66t95.5 210q0 140 -100 208.5t-268 68.5h-430v-553zM326 797h393q143 0 230 62.5 t87 182.5q0 240 -303 240h-407v-485z" />
<glyph unicode="C" horiz-adv-x="1382" d="M113 702q0 209 95 376t260 259.5t368 92.5q266 0 485 -138v-145q-223 156 -481 156q-252 0 -419 -169t-167 -432q0 -173 76.5 -309.5t210 -211.5t299.5 -75q258 0 481 156v-147q-219 -138 -485 -138q-203 0 -368 91.5t-260 258t-95 375.5z" />
<glyph unicode="D" horiz-adv-x="1525" d="M190 0v1409h463q224 0 397 -88t268 -248.5t95 -370.5q0 -208 -95 -367.5t-268 -247t-397 -87.5h-463zM326 127h327q281 0 452 157.5t171 417.5q0 262 -171 421t-452 159h-327v-1155z" />
<glyph unicode="E" horiz-adv-x="1263" d="M190 0v1409h973v-127h-837v-504h735v-127h-735v-524h837v-127h-973z" />
<glyph unicode="F" horiz-adv-x="1230" d="M190 0v1409h969v-127h-833v-543h731v-127h-731v-612h-136z" />
<glyph unicode="G" horiz-adv-x="1482" d="M113 702q0 158 55.5 294t153.5 231t235.5 149t296.5 54q273 0 492 -138v-145q-226 156 -488 156q-267 0 -435.5 -167.5t-168.5 -433.5q0 -264 168.5 -430t435.5 -166q189 0 352 78v455h-503v117h639v-641q-219 -138 -488 -138q-215 0 -385 92t-265 257.5t-95 375.5z" />
<glyph unicode="H" horiz-adv-x="1507" d="M190 0v1409h136v-627h856v627h137v-1409h-137v655h-856v-655h-136z" />
<glyph unicode="I" horiz-adv-x="516" d="M190 0v1409h136v-1409h-136z" />
<glyph unicode="J" horiz-adv-x="1085" d="M35 131q81 -65 193 -109.5t241 -44.5q200 0 322 111t122 328v993h-137v-993q0 -157 -84.5 -232t-224.5 -75q-123 0 -240 50t-192 122v-150z" />
<glyph unicode="K" horiz-adv-x="1282" d="M190 0v1409h136v-631h315l430 631h156l-473 -678l510 -731h-160l-455 657h-323v-657h-136z" />
<glyph unicode="L" horiz-adv-x="1181" d="M190 0v1409h136v-1282h817v-127h-953z" />
<glyph unicode="M" horiz-adv-x="1957" d="M190 0v1409h183l606 -1272l606 1272h182v-1409h-135v1186l-577 -1186h-152l-577 1186v-1186h-136z" />
<glyph unicode="N" horiz-adv-x="1486" d="M176 0v1409h133l858 -1176v1176h138v-1409h-129l-863 1171v-1171h-137z" />
<glyph unicode="O" horiz-adv-x="1652" d="M113 702q0 -208 93 -373.5t256 -257t365 -91.5q149 0 280.5 53.5t226.5 148t149.5 229.5t54.5 291q0 210 -93.5 377t-255.5 259t-362 92q-202 0 -365 -92t-256 -259t-93 -377zM254 702q0 172 74.5 307.5t205 210t293.5 74.5q245 0 407.5 -166t162.5 -426 q0 -257 -162.5 -422t-407.5 -165q-162 0 -292.5 74t-205.5 208.5t-75 304.5z" />
<glyph unicode="P" horiz-adv-x="1323" d="M190 0v1409h547q231 0 369.5 -114.5t138.5 -336.5q0 -212 -139.5 -327t-368.5 -115h-411v-516h-136zM326 645h403q170 0 272.5 79t102.5 234q0 165 -101 244.5t-274 79.5h-403v-637z" />
<glyph unicode="Q" horiz-adv-x="1652" d="M113 702q0 210 93 377t256 259t365 92q200 0 362 -92t255.5 -259t93.5 -377q0 -283 -170 -483l254 -219h-168l-164 141q-194 -161 -463 -161q-202 0 -365 91.5t-256 256.5t-93 374zM254 702q0 -170 75 -304.5t205.5 -208.5t292.5 -74q208 0 357 118l-461 402h168 l373 -324q133 158 133 391q0 260 -162.5 426t-407.5 166q-163 0 -293.5 -74.5t-205 -210t-74.5 -307.5z" />
<glyph unicode="R" horiz-adv-x="1368" d="M190 0v1409h566q234 0 364.5 -103t130.5 -311q0 -189 -126.5 -290t-344.5 -101h-45l533 -604h-170l-518 604h-254v-604h-136zM326 715h426q170 0 265 70.5t95 209.5q0 287 -360 287h-426v-567z" />
<glyph unicode="S" horiz-adv-x="1202" d="M100 1055q0 119 64.5 206t170 129t236.5 42q148 0 270 -40t197 -94v-151q-85 63 -210 108t-259 45q-156 0 -240.5 -65t-84.5 -170q0 -47 16.5 -85t40.5 -64t68.5 -49.5t83 -38.5t100.5 -35l152 -50q83 -27 137.5 -49t109.5 -55.5t86 -72t50.5 -94.5t19.5 -128 q0 -175 -128.5 -269.5t-336.5 -94.5q-152 0 -291.5 43t-238.5 108v143q105 -71 247 -119.5t283 -48.5q163 0 244.5 62.5t81.5 169.5q0 57 -18.5 99t-61 74t-93 55t-132.5 50l-191 62q-65 21 -111 39.5t-99.5 50t-86 69t-54.5 93.5t-22 125z" />
<glyph unicode="T" horiz-adv-x="1159" d="M18 1282v127h1123v-127h-494v-1282h-135v1282h-494z" />
<glyph unicode="U" horiz-adv-x="1484" d="M172 584v825h141v-827q0 -219 107 -344t321 -125q216 0 323 125t107 344v827h142v-825q0 -136 -34 -245t-102.5 -190t-179 -125t-256.5 -44q-145 0 -255 44t-178 125t-102 190t-34 245z" />
<glyph unicode="V" horiz-adv-x="1404" d="M18 1409h156l528 -1270l531 1270h156l-607 -1409h-159z" />
<glyph unicode="W" horiz-adv-x="2076" d="M45 1409h158l325 -1255l430 1255h160l428 -1253l326 1253h158l-396 -1409h-170l-426 1247l-426 -1247h-172z" />
<glyph unicode="X" horiz-adv-x="1267" d="M33 1409h160l446 -616l436 616h160l-506 -696l504 -713h-154l-450 639l-443 -639h-151l504 717z" />
<glyph unicode="Y" horiz-adv-x="1245" d="M8 1409h154l463 -711l458 711h154l-547 -838v-571h-135v571z" />
<glyph unicode="Z" horiz-adv-x="1351" d="M78 0v115l962 1167h-893v127h1072v-115l-969 -1167h1024v-127h-1196z" />
<glyph unicode="[" horiz-adv-x="606" d="M195 -117v1590h356v-113h-234v-1364h234v-113h-356z" />
<glyph unicode="\" horiz-adv-x="876" d="M35 1563h117l692 -1624h-119z" />
<glyph unicode="]" horiz-adv-x="600" d="M59 -4h236v1364h-236v113h357v-1590h-357v113z" />
<glyph unicode="^" horiz-adv-x="876" d="M29 614l356 795h109l352 -795h-129l-279 650l-278 -650h-131z" />
<glyph unicode="_" horiz-adv-x="837" d="M-16 -41h870v-102h-870v102z" />
<glyph unicode="`" horiz-adv-x="591" d="M113 1548h166l200 -319h-125z" />
<glyph unicode="a" horiz-adv-x="1107" d="M102 260q0 144 126 237t343 93q145 0 254 -37v131q0 78 -24.5 136.5t-67 92t-95 50t-114.5 16.5q-126 0 -232 -52t-181 -132v139q62 67 176.5 119.5t249.5 52.5q85 0 158 -23.5t132 -72t93 -132.5t34 -196v-682h-120v164q-74 -80 -175.5 -132t-220.5 -52 q-162 0 -249 75.5t-87 204.5zM227 266q0 -92 63 -136t165 -44q191 0 370 164v213q-109 33 -217 33q-186 0 -283.5 -63.5t-97.5 -166.5z" />
<glyph unicode="b" horiz-adv-x="1226" d="M162 61v1348l131 27v-457q65 52 158.5 89.5t199.5 37.5q210 0 340.5 -144.5t130.5 -396.5q0 -142 -42 -255t-116 -184t-172 -108.5t-212 -37.5q-203 0 -418 81zM293 145q150 -47 282 -47q189 0 300.5 117t111.5 344q0 196 -99 311t-263 115q-181 0 -332 -119v-721z" />
<glyph unicode="c" horiz-adv-x="1085" d="M104 543q0 168 77.5 298t210 198.5t298.5 68.5q189 0 305 -78v-133q-117 86 -301 86q-200 0 -328 -120.5t-128 -319.5q0 -196 128.5 -317.5t325.5 -121.5q177 0 303 89v-132q-121 -81 -307 -81q-164 0 -297 70.5t-210 199.5t-77 293z" />
<glyph unicode="d" horiz-adv-x="1226" d="M104 514q0 142 44.5 256t122.5 186.5t181.5 111t223.5 38.5q130 0 258 -41v344l131 27v-1436h-121v115q-63 -55 -156.5 -95t-205.5 -40q-210 0 -344 140.5t-134 393.5zM240 520q0 -197 99 -309.5t269 -112.5q97 0 181 35t145 84v723q-128 47 -254 47 q-199 0 -319.5 -121.5t-120.5 -345.5z" />
<glyph unicode="e" horiz-adv-x="1181" d="M104 543q0 264 139 414.5t363 150.5q222 0 342.5 -142.5t120.5 -406.5v-63h-831q10 -193 127.5 -292.5t304.5 -99.5q104 0 209 23t161 59v-120q-59 -40 -166.5 -63t-214.5 -23q-162 0 -285.5 62t-196.5 190.5t-73 310.5zM238 592h702q-5 194 -91 296.5t-247 102.5 q-158 0 -258 -105t-106 -294z" />
<glyph unicode="f" horiz-adv-x="733" d="M63 969v116h162v21q0 85 26.5 150.5t72.5 103.5t101.5 57t119.5 19q73 0 132 -21t93 -47v-115q-93 70 -213 70q-95 0 -148 -57t-53 -156v-25h306v-116h-306v-969h-131v969h-162z" />
<glyph unicode="g" horiz-adv-x="1220" d="M104 539q0 135 43.5 243.5t120.5 178.5t179.5 107.5t222.5 37.5q112 0 203.5 -24t187.5 -64v-879q0 -123 -38 -217.5t-105.5 -151.5t-155 -85.5t-191.5 -28.5q-220 0 -415 115v137q201 -129 405 -129q172 0 270.5 89.5t98.5 258.5v63q-62 -53 -155.5 -91t-201.5 -38 q-213 0 -341 126.5t-128 351.5zM240 551q0 -178 96.5 -274.5t261.5 -96.5q178 0 332 121v635q-132 51 -262 51q-194 0 -311 -115t-117 -321z" />
<glyph unicode="h" d="M162 0v1409l131 27v-484q196 154 409 154q175 0 278 -103.5t103 -306.5v-696h-129v674q0 153 -78.5 230t-211.5 77q-170 0 -371 -127v-854h-131z" />
<glyph unicode="i" horiz-adv-x="458" d="M127 1350q0 40 29 65t73 25q46 0 75.5 -25t29.5 -65t-29.5 -65t-75.5 -25q-44 0 -73 25t-29 65zM164 0v1085h131v-1085h-131z" />
<glyph unicode="j" horiz-adv-x="454" d="M6 -238q80 31 117 81t37 132v1110h129v-1112q0 -129 -63.5 -206.5t-170.5 -110.5zM121 1350q0 38 29 63t75 25t74.5 -25t28.5 -63q0 -40 -28.5 -65t-74.5 -25t-75 25t-29 65z" />
<glyph unicode="k" horiz-adv-x="1073" d="M162 0v1409l131 27v-768h221l365 417h155l-428 -475l426 -610h-151l-375 547h-213v-547h-131z" />
<glyph unicode="l" horiz-adv-x="454" d="M162 0v1409l131 27v-1436h-131z" />
<glyph unicode="m" horiz-adv-x="1945" d="M162 0v1085h123v-139q91 71 185 115.5t212 44.5q231 0 319 -178q203 178 433 178q167 0 263.5 -101t96.5 -298v-707h-131v684q0 147 -73 222t-195 75q-176 0 -367 -131q14 -55 14 -127v-723h-129v684q0 147 -73 222t-197 75q-158 0 -350 -127v-854h-131z" />
<glyph unicode="n" d="M162 0v1085h123v-141q200 162 417 162q175 0 278 -103.5t103 -306.5v-696h-129v674q0 153 -78.5 230t-211.5 77q-170 0 -371 -127v-854h-131z" />
<glyph unicode="o" horiz-adv-x="1318" d="M104 543q0 -158 71 -286.5t198.5 -202.5t285.5 -74t285.5 74t198.5 202.5t71 286.5q0 119 -42 223.5t-114.5 179t-176 117.5t-222.5 43t-222.5 -43t-176 -117.5t-114.5 -179t-42 -223.5zM236 543q0 190 119.5 315t303.5 125q185 0 304.5 -125t119.5 -315 q0 -189 -119.5 -315t-304.5 -126q-183 0 -303 126t-120 315z" />
<glyph unicode="p" horiz-adv-x="1226" d="M162 -324v1409h123v-114q154 135 362 135q101 0 187.5 -35t150.5 -101.5t100.5 -169t36.5 -229.5q0 -141 -44.5 -255t-122.5 -186.5t-181 -111t-223 -38.5q-133 0 -258 40v-344h-131zM293 145q132 -47 254 -47q199 0 319.5 121.5t120.5 345.5q0 197 -99.5 309.5 t-269.5 112.5q-175 0 -325 -121v-721z" />
<glyph unicode="q" horiz-adv-x="1241" d="M104 520q0 142 42.5 255t116.5 184.5t172 109t212 37.5q208 0 434 -82v-1348h-131v433q-66 -52 -164.5 -90.5t-210.5 -38.5q-210 0 -340.5 145t-130.5 395zM240 526q0 -196 99 -311t263 -115q192 0 348 119v721q-143 47 -299 47q-187 0 -299 -119t-112 -342z" />
<glyph unicode="r" horiz-adv-x="839" d="M162 0v1085h123v-167q188 188 370 188q77 0 144 -39v-137q-74 51 -176 51q-80 0 -171 -46.5t-159 -107.5v-827h-131z" />
<glyph unicode="s" horiz-adv-x="978" d="M90 84v135q82 -54 201 -93.5t237 -39.5q119 0 182.5 40.5t63.5 133.5q0 82 -55 123t-178 78l-166 49q-62 18 -109 40.5t-88.5 57.5t-63.5 86t-22 117q0 128 103 212.5t276 84.5q109 0 211.5 -29t167.5 -71v-138q-66 49 -172 85t-211 36t-176.5 -46t-71.5 -130 q0 -35 12.5 -64t32 -49t54 -38t67 -30.5t82.5 -27.5l154 -47q131 -39 204.5 -108t73.5 -187q0 -143 -98 -219t-275 -76q-124 0 -242 34.5t-194 80.5z" />
<glyph unicode="t" horiz-adv-x="833" d="M49 969v35l266 286h33v-205h404v-116h-404v-672q0 -197 195 -197q123 0 219 66v-119q-99 -67 -244 -67q-301 0 -301 307v682h-168z" />
<glyph unicode="u" d="M152 389v696h131v-673q0 -153 78.5 -230.5t211.5 -77.5q179 0 371 129v852h131v-1085h-123v141q-199 -161 -417 -161q-177 0 -280 103t-103 306z" />
<glyph unicode="v" horiz-adv-x="1099" d="M18 1085h142l393 -964l389 964h141l-456 -1085h-152z" />
<glyph unicode="w" horiz-adv-x="1720" d="M43 1085h143l285 -956l315 956h148l315 -956l287 956h141l-350 -1085h-149l-318 930l-317 -930h-150z" />
<glyph unicode="x" horiz-adv-x="1028" d="M25 0l395 553l-391 532h153l330 -454l328 454h153l-391 -528l395 -557h-153l-334 483l-332 -483h-153z" />
<glyph unicode="y" horiz-adv-x="1134" d="M43 1085h145l392 -919l391 919h143l-522 -1185q-55 -127 -128.5 -185.5t-174.5 -58.5q-73 0 -133 26.5t-95 59.5v137q33 -39 93.5 -70.5t128.5 -31.5q125 0 188 139l47 104z" />
<glyph unicode="z" horiz-adv-x="1101" d="M86 0v92l705 871h-664v122h848v-92l-707 -870h748v-123h-930z" />
<glyph unicode="{" horiz-adv-x="595" d="M35 629v100l31 6q36 7 55.5 13t45.5 21.5t38 43t12 68.5v411q0 89 53.5 135t139.5 46q66 0 139 -35v-113q-64 33 -113 33q-42 0 -69 -22.5t-27 -69.5v-392q0 -85 -48.5 -134.5t-103.5 -61.5q54 -10 103 -60t49 -135v-393q0 -47 27 -69.5t69 -22.5q52 0 113 35v-115 q-67 -33 -139 -35q-86 2 -139.5 47.5t-53.5 132.5v414q0 33 -9.5 58t-22 38.5t-36.5 24t-39 14t-44 9.5z" />
<glyph unicode="|" horiz-adv-x="514" d="M195 -324v1733h124v-1733h-124z" />
<glyph unicode="}" horiz-adv-x="595" d="M47 33q61 -35 113 -35q42 0 69 22.5t27 69.5v393q0 86 48.5 136t103.5 59q-56 11 -104 61t-48 135v392q0 47 -27 69.5t-69 22.5q-49 0 -113 -33v113q72 35 139 35q84 0 137.5 -46.5t53.5 -134.5v-411q0 -41 12.5 -68.5t38.5 -43t46 -21.5t56 -13l31 -6v-100l-31 -8 q-30 -6 -44.5 -9.5t-39.5 -14t-37 -24t-22 -38.5t-10 -58v-414q0 -87 -53.5 -132.5t-137.5 -47.5q-72 2 -139 35v115z" />
<glyph unicode="~" horiz-adv-x="1034" d="M121 610v129q88 107 201 107q47 0 91.5 -16.5t80.5 -40t71 -47t77 -40t85 -16.5q88 0 188 100v-131q-92 -92 -198 -92q-46 0 -91 16.5t-81.5 40t-72.5 47t-78.5 40t-84.5 16.5q-105 0 -188 -113z" />
<glyph unicode="&#xa1;" horiz-adv-x="530" d="M164 999q0 42 29.5 72.5t70.5 30.5q43 0 74 -31t31 -72t-31 -71.5t-74 -30.5q-41 0 -70.5 30.5t-29.5 71.5zM178 -324q0 157 15.5 505.5t15.5 467.5h110q0 -120 15.5 -468t15.5 -505h-172z" />
<glyph unicode="&#xa2;" horiz-adv-x="1071" d="M104 543q0 224 131.5 373t342.5 184v174h120v-166q174 -3 295 -84v-127q-53 40 -132.5 63t-168.5 23q-200 0 -328 -120.5t-128 -319.5q0 -196 128.5 -317.5t327.5 -121.5q86 0 165 24.5t136 64.5v-127q-132 -86 -295 -86v-164h-120v172q-210 34 -342 185.5t-132 369.5z " />
<glyph unicode="&#xa3;" horiz-adv-x="1169" d="M70 625v102h186q-72 166 -72 305q0 171 122.5 284.5t338.5 113.5q262 0 471 -183v-151q-219 204 -461 204q-166 0 -246.5 -79.5t-80.5 -200.5t73 -293h459v-102h-416q52 -129 52 -215q0 -48 -16 -90t-48 -77.5t-62 -60.5t-75 -55h831v-127h-1038v102q57 31 97.5 57.5 t86 65t69.5 83t24 93.5q0 81 -64 224h-231z" />
<glyph unicode="&#xa4;" horiz-adv-x="1144" d="M78 260l143 137q-76 116 -76 252q0 135 76 248l-143 139l86 88l141 -133q117 96 266 96q152 0 271 -98l141 135l86 -88l-145 -141q71 -110 71 -246q0 -139 -73 -248l147 -141l-86 -90l-143 137q-116 -98 -269 -98q-149 0 -266 96l-141 -135zM268 649q0 -133 87 -226 t216 -93q128 0 214.5 93t86.5 226q0 132 -86.5 225t-214.5 93q-129 0 -216 -93t-87 -225z" />
<glyph unicode="&#xa5;" horiz-adv-x="1257" d="M14 1409h164l451 -631l452 631h162l-532 -719h489v-104h-504v-172h504v-103h-504v-311h-135v311h-504v103h504v172h-504v104h488z" />
<glyph unicode="&#xa6;" horiz-adv-x="514" d="M195 -324v705h124v-705h-124zM195 705v704h124v-704h-124z" />
<glyph unicode="&#xa7;" horiz-adv-x="1050" d="M117 96v135q71 -50 193 -91.5t229 -41.5q258 0 258 172q0 44 -15.5 76.5t-50 56t-72 39t-98.5 33.5l-166 51q-137 39 -207.5 109.5t-70.5 193.5q0 128 96 209q-76 73 -76 193q0 129 99 211t282 82q108 0 211 -30t168 -73v-137q-67 50 -172 85.5t-211 35.5 q-116 0 -182 -44t-66 -130q0 -44 15 -76t50 -55.5t74.5 -39.5t106.5 -36l158 -47q276 -80 276 -303q0 -137 -96 -211q76 -76 76 -193q0 -137 -102.5 -213.5t-288.5 -76.5q-109 0 -228.5 36t-189.5 80zM231 829q0 -87 54.5 -129.5t185.5 -81.5l170 -51q67 -19 121 -45 q31 23 50 64t19 90q0 45 -15.5 78t-49 56.5t-69 38.5t-91.5 32l-184 55q-70 19 -121 45q-31 -24 -50.5 -65.5t-19.5 -86.5z" />
<glyph unicode="&#xa8;" horiz-adv-x="743" d="M113 1384q0 34 24.5 59t59.5 25t60.5 -25t25.5 -59q0 -35 -25.5 -59.5t-60.5 -24.5t-59.5 24.5t-24.5 59.5zM463 1384q0 34 24.5 59t59.5 25q34 0 59 -25t25 -59q0 -35 -25 -59.5t-59 -24.5q-35 0 -59.5 24.5t-24.5 59.5z" />
<glyph unicode="&#xa9;" horiz-adv-x="1755" d="M96 705q0 -212 103.5 -392t283.5 -285.5t394 -105.5q160 0 305.5 62.5t249.5 167.5t165.5 249.5t61.5 303.5t-61.5 304t-165.5 249.5t-249 166.5t-306 62q-160 0 -305 -62t-249.5 -167t-165.5 -249.5t-61 -303.5zM195 705q0 186 90.5 343t247.5 249t344 92 q188 0 345.5 -92t248 -249t90.5 -343t-90.5 -343.5t-248 -249.5t-345.5 -92q-140 0 -267 54.5t-217.5 147t-144 219t-53.5 264.5zM467 705q0 -199 133 -326t334 -127q144 0 246 65v113q-101 -70 -244 -70q-153 0 -252.5 95.5t-99.5 249.5q0 156 99.5 250t252.5 94 q151 0 244 -70v115q-99 63 -246 63q-201 0 -334 -125.5t-133 -326.5z" />
<glyph unicode="&#xaa;" horiz-adv-x="587" d="M113 1092q0 58 50.5 95.5t137.5 37.5q59 0 102 -15v35q0 59 -32 87t-84 28q-94 0 -164 -74v74q28 28 74.5 49t101.5 21q78 0 127 -41.5t49 -128.5v-275h-69v66q-68 -72 -158 -72q-66 0 -100.5 30.5t-34.5 82.5zM182 1094q0 -29 21.5 -43.5t54.5 -14.5q74 0 145 64v59 q-36 12 -84 12q-65 0 -101 -21.5t-36 -55.5z" />
<glyph unicode="&#xab;" horiz-adv-x="962" d="M82 481l358 -198v127l-254 133l254 133v127l-358 -199v-123zM502 481l358 -198v127l-254 133l254 133v127l-358 -199v-123z" />
<glyph unicode="&#xad;" horiz-adv-x="608" d="M66 483v119h477v-119h-477z" />
<glyph unicode="&#xae;" horiz-adv-x="935" d="M119 1098q0 148 101 249t247 101t248 -101t102 -249q0 -147 -102.5 -248.5t-247.5 -101.5t-246.5 101.5t-101.5 248.5zM186 1098q0 -121 81 -202t200 -81q120 0 201.5 81t81.5 202q0 122 -81 202t-202 80q-119 0 -200 -80t-81 -202zM350 944v307h139q56 0 87.5 -25 t31.5 -73q0 -73 -73 -92l81 -117h-84l-69 111h-43v-111h-70zM420 1116h69q46 0 46 35q0 39 -46 39h-69v-74z" />
<glyph unicode="&#xaf;" horiz-adv-x="780" d="M113 1335v107h555v-107h-555z" />
<glyph unicode="&#xb0;" horiz-adv-x="970" d="M184 1143q0 -124 78 -205.5t199 -81.5q122 0 200 81.5t78 205.5q0 125 -78 206t-200 81q-121 0 -199 -81t-78 -206zM276 1143q0 85 52 141.5t133 56.5q82 0 133 -56t51 -142q0 -85 -51 -141t-133 -56q-81 0 -133 56.5t-52 140.5z" />
<glyph unicode="&#xb1;" horiz-adv-x="1034" d="M121 260v121h334v303h-334v121h334v344h125v-344h335v-121h-335v-303h335v-121h-794z" />
<glyph unicode="&#xb2;" horiz-adv-x="630" d="M92 657v74l248 252q48 46 74 83.5t26 74.5q0 41 -27 67.5t-89 26.5q-60 0 -129 -35t-97 -67v106q39 34 105.5 61t132.5 27q103 0 155 -50.5t52 -123.5q0 -110 -135 -223l-189 -185h346v-88h-473z" />
<glyph unicode="&#xb3;" horiz-adv-x="626" d="M90 702v107q89 -72 209 -72q65 0 103 37t38 90q0 55 -40.5 87t-114.5 32h-99v53l217 191h-290v86h409v-78l-221 -186h37q94 0 149.5 -54.5t55.5 -134.5q0 -90 -64.5 -152.5t-175.5 -62.5q-120 0 -213 57z" />
<glyph unicode="&#xb4;" horiz-adv-x="591" d="M113 1229l200 319h166l-241 -319h-125z" />
<glyph unicode="&#xb5;" horiz-adv-x="1245" d="M162 -324v1409h131v-673q0 -153 78 -230.5t211 -77.5q168 0 372 132v849h129v-1085h-120v139q-206 -159 -420 -159q-96 0 -172 36.5t-117 110.5l47 -451h-139z" />
<glyph unicode="&#xb6;" horiz-adv-x="909" d="M84 915q0 153 70.5 266.5t189 170.5t268.5 57h105v-1210q0 -127 -63.5 -205t-170.5 -111l-49 107q79 30 115.5 80t36.5 131v245q-28 -4 -51 -4q-204 0 -327.5 125.5t-123.5 347.5z" />
<glyph unicode="&#xb7;" horiz-adv-x="366" d="M94 586q0 36 26 62t62 26q38 0 64 -26t26 -62q0 -38 -26 -64t-64 -26q-37 0 -62.5 26t-25.5 64z" />
<glyph unicode="&#xb8;" horiz-adv-x="501" d="M113 -311l180 311h96l-160 -358z" />
<glyph unicode="&#xb9;" horiz-adv-x="606" d="M147 1212l41 101h195v-656h-107v555h-129z" />
<glyph unicode="&#xba;" horiz-adv-x="667" d="M113 1204q0 -96 62.5 -160.5t158.5 -64.5t158.5 64.5t62.5 160.5q0 97 -62.5 161.5t-158.5 64.5t-158.5 -64.5t-62.5 -161.5zM186 1204q0 68 42 113t106 45q65 0 107 -45t42 -113t-41.5 -112.5t-107.5 -44.5q-64 0 -106 44.5t-42 112.5z" />
<glyph unicode="&#xbb;" horiz-adv-x="962" d="M102 283l359 198v123l-359 199v-127l254 -133l-254 -133v-127zM522 283l359 198v123l-359 199v-127l256 -133l-256 -133v-127z" />
<glyph unicode="&#xbc;" horiz-adv-x="1490" d="M129 1212l41 101h195v-656h-107v555h-129zM168 0l911 1409h109l-907 -1409h-113zM825 143v86l359 426h94v-426h96v-86h-96v-143h-98v143h-355zM924 229h256v299z" />
<glyph unicode="&#xbd;" horiz-adv-x="1462" d="M129 1212l41 101h195v-656h-107v555h-129zM154 0l911 1409h109l-908 -1409h-112zM870 0v74l248 252q49 47 75 83.5t26 73.5q0 41 -27.5 68t-89.5 27q-60 0 -128 -35.5t-97 -67.5v107q39 34 105 61t132 27q103 0 155 -50.5t52 -123.5q0 -111 -135 -224l-189 -184h346v-88 h-473z" />
<glyph unicode="&#xbe;" horiz-adv-x="1548" d="M129 702v107q89 -72 209 -72q65 0 103 37t38 90q0 55 -40.5 87t-114.5 32h-99v53l217 191h-290v86h409v-78l-221 -186h37q94 0 149.5 -54.5t55.5 -134.5q0 -90 -64.5 -152.5t-175.5 -62.5q-120 0 -213 57zM254 0l911 1409h109l-907 -1409h-113zM883 143v86l358 426h94 v-426h97v-86h-97v-143h-98v143h-354zM981 229h256v299z" />
<glyph unicode="&#xbf;" horiz-adv-x="1062" d="M96 8q0 73 30 135t72.5 102t104.5 79l254 161v160h117v-203l-258 -170q-43 -27 -70.5 -49t-55 -52.5t-41 -66.5t-13.5 -79q0 -110 76.5 -175t209.5 -65q77 0 154.5 21.5t140.5 57t109.5 70t83.5 70.5v-151q-31 -29 -74 -58.5t-107 -63t-148.5 -54.5t-172.5 -21 q-118 0 -209.5 38.5t-147 119.5t-55.5 194zM500 999q0 41 31 72t73 31q40 0 70.5 -31t30.5 -72t-30.5 -71.5t-70.5 -30.5q-43 0 -73.5 30.5t-30.5 71.5z" />
<glyph unicode="&#xc0;" horiz-adv-x="1411" d="M14 0l607 1409h170l606 -1409h-150l-196 465h-693l-196 -465h-148zM410 586h589l-294 694zM416 1790h166l200 -258h-125z" />
<glyph unicode="&#xc1;" horiz-adv-x="1411" d="M14 0l607 1409h170l606 -1409h-150l-196 465h-693l-196 -465h-148zM410 586h589l-294 694zM631 1532l200 258h166l-241 -258h-125z" />
<glyph unicode="&#xc2;" horiz-adv-x="1411" d="M14 0l607 1409h170l606 -1409h-150l-196 465h-693l-196 -465h-148zM393 1532l248 258h127l248 -258h-131l-180 174l-181 -174h-131zM410 586h589l-294 694z" />
<glyph unicode="&#xc3;" horiz-adv-x="1411" d="M14 0l607 1409h170l606 -1409h-150l-196 465h-693l-196 -465h-148zM410 586h589l-294 694zM412 1561v108q70 98 157 98q38 0 78 -18t68 -40t65 -40t70 -18q91 0 149 110v-112q-65 -95 -153 -95q-38 0 -78.5 18.5t-69.5 40t-66.5 40t-70.5 18.5q-84 0 -149 -110z" />
<glyph unicode="&#xc4;" horiz-adv-x="1411" d="M14 0l607 1409h170l606 -1409h-150l-196 465h-693l-196 -465h-148zM410 586h589l-294 694zM446 1659q0 35 24 57.5t60 22.5t61 -22.5t25 -57.5q0 -33 -25 -55.5t-61 -22.5t-60 22t-24 56zM797 1659q0 35 24 57.5t60 22.5q35 0 59.5 -22.5t24.5 -57.5q0 -33 -25 -55.5 t-59 -22.5q-36 0 -60 22t-24 56z" />
<glyph unicode="&#xc5;" horiz-adv-x="1411" d="M14 0l584 1356q-53 28 -85 78.5t-32 111.5q0 90 65.5 153.5t160.5 63.5q94 0 158.5 -63.5t64.5 -153.5q0 -61 -31.5 -111.5t-85.5 -78.5l584 -1356h-150l-196 465h-693l-196 -465h-148zM410 586h589l-294 694zM569 1546q0 -57 41.5 -96t98.5 -39q55 0 94 38.5t39 96.5 t-39 96.5t-94 38.5q-57 0 -98.5 -39t-41.5 -96z" />
<glyph unicode="&#xc6;" horiz-adv-x="2142" d="M6 0l1000 1409h1036v-127h-838v-506h735v-127h-735v-522h838v-127h-973v518h-532l-367 -518h-164zM621 639h448v635z" />
<glyph unicode="&#xc7;" horiz-adv-x="1382" d="M113 702q0 209 95 376t260 259.5t368 92.5q266 0 485 -138v-145q-223 156 -481 156q-252 0 -419 -169t-167 -432q0 -173 76.5 -309.5t210 -211.5t299.5 -75q258 0 481 156v-147q-171 -108 -360 -129l-154 -344l-117 47l168 288h-22q-203 0 -368 91.5t-260 258t-95 375.5z " />
<glyph unicode="&#xc8;" horiz-adv-x="1263" d="M190 0v1409h973v-127h-837v-504h735v-127h-735v-524h837v-127h-973zM385 1790h166l201 -258h-125z" />
<glyph unicode="&#xc9;" horiz-adv-x="1263" d="M190 0v1409h973v-127h-837v-504h735v-127h-735v-524h837v-127h-973zM602 1532l201 258h166l-242 -258h-125z" />
<glyph unicode="&#xca;" horiz-adv-x="1263" d="M190 0v1409h973v-127h-837v-504h735v-127h-735v-524h837v-127h-973zM365 1532l247 258h127l248 -258h-131l-180 174l-180 -174h-131z" />
<glyph unicode="&#xcb;" horiz-adv-x="1263" d="M190 0v1409h973v-127h-837v-504h735v-127h-735v-524h837v-127h-973zM418 1659q0 35 24 57.5t60 22.5t61 -22.5t25 -57.5q0 -33 -25 -55.5t-61 -22.5t-60 22t-24 56zM768 1659q0 35 24 57.5t60 22.5q35 0 59.5 -22.5t24.5 -57.5q0 -33 -25 -55.5t-59 -22.5q-36 0 -60 22 t-24 56z" />
<glyph unicode="&#xcc;" horiz-adv-x="516" d="M-33 1790h166l201 -258h-125zM190 0v1409h136v-1409h-136z" />
<glyph unicode="&#xcd;" horiz-adv-x="516" d="M182 1532l201 258h166l-242 -258h-125zM190 0v1409h136v-1409h-136z" />
<glyph unicode="&#xce;" horiz-adv-x="516" d="M-53 1532h131l180 174l180 -174h131l-247 258h-127zM190 0v1409h136v-1409h-136z" />
<glyph unicode="&#xcf;" horiz-adv-x="516" d="M-2 1659q0 35 24 57.5t60 22.5t61 -22.5t25 -57.5q0 -33 -25 -55.5t-61 -22.5t-60 22t-24 56zM190 0v1409h136v-1409h-136zM348 1659q0 35 24 57.5t60 22.5q35 0 59.5 -22.5t24.5 -57.5q0 -33 -25 -55.5t-59 -22.5q-36 0 -60 22t-24 56z" />
<glyph unicode="&#xd0;" horiz-adv-x="1527" d="M18 645v119h175v645h464q224 0 396.5 -88t267 -248.5t94.5 -370.5q0 -208 -94.5 -367.5t-267 -247t-396.5 -87.5h-464v645h-175zM328 127h329q280 0 451.5 158t171.5 417q0 262 -171.5 421t-451.5 159h-329v-518h510v-119h-510v-518z" />
<glyph unicode="&#xd1;" horiz-adv-x="1486" d="M176 0v1409h133l858 -1176v1176h138v-1409h-129l-863 1171v-1171h-137zM446 1561v108q70 98 158 98q38 0 78 -18t68 -40t65 -40t70 -18q91 0 149 110v-112q-65 -95 -153 -95q-38 0 -78.5 18.5t-69.5 40t-66.5 40t-70.5 18.5q-85 0 -150 -110z" />
<glyph unicode="&#xd2;" horiz-adv-x="1652" d="M113 702q0 -208 93 -373.5t256 -257t365 -91.5q149 0 280.5 53.5t226.5 148t149.5 229.5t54.5 291q0 210 -93.5 377t-255.5 259t-362 92q-202 0 -365 -92t-256 -259t-93 -377zM254 702q0 172 74.5 307.5t205 210t293.5 74.5q245 0 407.5 -166t162.5 -426 q0 -257 -162.5 -422t-407.5 -165q-162 0 -292.5 74t-205.5 208.5t-75 304.5zM535 1790h165l201 -258h-125z" />
<glyph unicode="&#xd3;" horiz-adv-x="1652" d="M113 702q0 -208 93 -373.5t256 -257t365 -91.5q149 0 280.5 53.5t226.5 148t149.5 229.5t54.5 291q0 210 -93.5 377t-255.5 259t-362 92q-202 0 -365 -92t-256 -259t-93 -377zM254 702q0 172 74.5 307.5t205 210t293.5 74.5q245 0 407.5 -166t162.5 -426 q0 -257 -162.5 -422t-407.5 -165q-162 0 -292.5 74t-205.5 208.5t-75 304.5zM750 1532l200 258h166l-242 -258h-124z" />
<glyph unicode="&#xd4;" horiz-adv-x="1652" d="M113 702q0 -208 93 -373.5t256 -257t365 -91.5q149 0 280.5 53.5t226.5 148t149.5 229.5t54.5 291q0 210 -93.5 377t-255.5 259t-362 92q-202 0 -365 -92t-256 -259t-93 -377zM254 702q0 172 74.5 307.5t205 210t293.5 74.5q245 0 407.5 -166t162.5 -426 q0 -257 -162.5 -422t-407.5 -165q-162 0 -292.5 74t-205.5 208.5t-75 304.5zM514 1532h131l180 174l181 -174h131l-248 258h-127z" />
<glyph unicode="&#xd5;" horiz-adv-x="1652" d="M113 702q0 -208 93 -373.5t256 -257t365 -91.5q149 0 280.5 53.5t226.5 148t149.5 229.5t54.5 291q0 210 -93.5 377t-255.5 259t-362 92q-202 0 -365 -92t-256 -259t-93 -377zM254 702q0 172 74.5 307.5t205 210t293.5 74.5q245 0 407.5 -166t162.5 -426 q0 -257 -162.5 -422t-407.5 -165q-162 0 -292.5 74t-205.5 208.5t-75 304.5zM530 1561v108q70 98 158 98q38 0 78 -18t68 -40t65 -40t70 -18q91 0 149 110v-112q-65 -95 -153 -95q-38 0 -78.5 18.5t-69.5 40t-66.5 40t-70.5 18.5q-85 0 -150 -110z" />
<glyph unicode="&#xd6;" horiz-adv-x="1652" d="M113 702q0 -208 93 -373.5t256 -257t365 -91.5q149 0 280.5 53.5t226.5 148t149.5 229.5t54.5 291q0 210 -93.5 377t-255.5 259t-362 92q-202 0 -365 -92t-256 -259t-93 -377zM254 702q0 172 74.5 307.5t205 210t293.5 74.5q245 0 407.5 -166t162.5 -426 q0 -257 -162.5 -422t-407.5 -165q-162 0 -292.5 74t-205.5 208.5t-75 304.5zM565 1659q0 35 24 57.5t60 22.5t61 -22.5t25 -57.5q0 -33 -25 -55.5t-61 -22.5t-60 22t-24 56zM915 1659q0 35 24 57.5t60 22.5q35 0 59.5 -22.5t24.5 -57.5q0 -33 -25 -55.5t-59 -22.5 q-36 0 -60 22t-24 56z" />
<glyph unicode="&#xd7;" horiz-adv-x="1030" d="M174 446l256 256l-256 256l88 89l256 -254l256 256l86 -86l-256 -256l254 -254l-88 -91l-256 256l-256 -256z" />
<glyph unicode="&#xd8;" horiz-adv-x="1759" d="M72 0l247 240q-153 196 -153 462q0 158 55 294t150 231t227 149t283 54q283 0 481 -179l164 158h164l-250 -242q153 -196 153 -465q0 -156 -55 -291t-149.5 -229.5t-226.5 -148t-281 -53.5q-140 0 -265 46.5t-219 131.5l-161 -158h-164zM303 702q0 -216 115 -368l848 823 q-157 141 -385 141q-164 0 -295.5 -74.5t-207 -211t-75.5 -310.5zM494 250q161 -139 387 -139q248 0 411.5 165.5t163.5 425.5q0 217 -113 371z" />
<glyph unicode="&#xd9;" horiz-adv-x="1484" d="M172 584v825h141v-827q0 -219 107 -344t321 -125q216 0 323 125t107 344v827h142v-825q0 -136 -34 -245t-102.5 -190t-179 -125t-256.5 -44q-145 0 -255 44t-178 125t-102 190t-34 245zM453 1790h165l201 -258h-125z" />
<glyph unicode="&#xda;" horiz-adv-x="1484" d="M172 584v825h141v-827q0 -219 107 -344t321 -125q216 0 323 125t107 344v827h142v-825q0 -136 -34 -245t-102.5 -190t-179 -125t-256.5 -44q-145 0 -255 44t-178 125t-102 190t-34 245zM668 1532l200 258h166l-241 -258h-125z" />
<glyph unicode="&#xdb;" horiz-adv-x="1484" d="M172 584v825h141v-827q0 -219 107 -344t321 -125q216 0 323 125t107 344v827h142v-825q0 -136 -34 -245t-102.5 -190t-179 -125t-256.5 -44q-145 0 -255 44t-178 125t-102 190t-34 245zM430 1532h131l180 174l181 -174h131l-248 258h-127z" />
<glyph unicode="&#xdc;" horiz-adv-x="1484" d="M172 584v825h141v-827q0 -219 107 -344t321 -125q216 0 323 125t107 344v827h142v-825q0 -136 -34 -245t-102.5 -190t-179 -125t-256.5 -44q-145 0 -255 44t-178 125t-102 190t-34 245zM483 1659q0 35 24 57.5t60 22.5t61 -22.5t25 -57.5q0 -33 -25 -55.5t-61 -22.5 t-60 22t-24 56zM834 1659q0 35 24 57.5t60 22.5q34 0 58.5 -22.5t24.5 -57.5q0 -33 -24.5 -55.5t-58.5 -22.5q-36 0 -60 22t-24 56z" />
<glyph unicode="&#xdd;" horiz-adv-x="1245" d="M8 1409h154l463 -711l458 711h154l-547 -838v-571h-135v571zM547 1532l201 258h165l-241 -258h-125z" />
<glyph unicode="&#xde;" horiz-adv-x="1323" d="M190 0v1409h136v-227h381q245 0 391.5 -121.5t146.5 -358.5q0 -227 -148 -350t-390 -123h-381v-229h-136zM326 356h372q186 0 296 87.5t110 258.5q0 180 -109 266.5t-297 86.5h-372v-699z" />
<glyph unicode="&#xdf;" horiz-adv-x="1357" d="M63 963v122h191q36 165 160.5 255t308.5 90q179 0 288 -92t109 -244q0 -129 -88 -234l-71 -84q-40 -45 -58 -75.5t-18 -61.5q0 -39 32.5 -70.5t96.5 -66.5l76 -41q167 -95 167 -236q0 -117 -82 -181t-221 -64q-101 0 -201 28.5t-169 67.5v125q68 -44 172.5 -78.5 t193.5 -34.5q77 0 128.5 31t51.5 104q0 52 -32 87t-111 77l-67 35q-80 42 -122 86.5t-42 114.5q0 49 22 89t68 95l76 96q69 88 69 180q0 96 -71 161t-201 65q-170 0 -259 -93.5t-89 -259.5v-956h-131v952v11h-177z" />
<glyph unicode="&#xe0;" horiz-adv-x="1107" d="M102 260q0 144 126 237t343 93q145 0 254 -37v131q0 78 -24.5 136.5t-67 92t-95 50t-114.5 16.5q-126 0 -232 -52t-181 -132v139q62 67 176.5 119.5t249.5 52.5q85 0 158 -23.5t132 -72t93 -132.5t34 -196v-682h-120v164q-74 -80 -175.5 -132t-220.5 -52 q-162 0 -249 75.5t-87 204.5zM227 266q0 -92 63 -136t165 -44q191 0 370 164v213q-109 33 -217 33q-186 0 -283.5 -63.5t-97.5 -166.5zM240 1548h166l200 -319h-125z" />
<glyph unicode="&#xe1;" horiz-adv-x="1107" d="M102 260q0 144 126 237t343 93q145 0 254 -37v131q0 78 -24.5 136.5t-67 92t-95 50t-114.5 16.5q-126 0 -232 -52t-181 -132v139q62 67 176.5 119.5t249.5 52.5q85 0 158 -23.5t132 -72t93 -132.5t34 -196v-682h-120v164q-74 -80 -175.5 -132t-220.5 -52 q-162 0 -249 75.5t-87 204.5zM227 266q0 -92 63 -136t165 -44q191 0 370 164v213q-109 33 -217 33q-186 0 -283.5 -63.5t-97.5 -166.5zM457 1229l200 319h166l-241 -319h-125z" />
<glyph unicode="&#xe2;" horiz-adv-x="1107" d="M102 260q0 144 126 237t343 93q145 0 254 -37v131q0 78 -24.5 136.5t-67 92t-95 50t-114.5 16.5q-126 0 -232 -52t-181 -132v139q62 67 176.5 119.5t249.5 52.5q85 0 158 -23.5t132 -72t93 -132.5t34 -196v-682h-120v164q-74 -80 -175.5 -132t-220.5 -52 q-162 0 -249 75.5t-87 204.5zM217 1229l248 319h127l248 -319h-131l-181 229l-180 -229h-131zM227 266q0 -92 63 -136t165 -44q191 0 370 164v213q-109 33 -217 33q-186 0 -283.5 -63.5t-97.5 -166.5z" />
<glyph unicode="&#xe3;" horiz-adv-x="1107" d="M102 260q0 144 126 237t343 93q145 0 254 -37v131q0 78 -24.5 136.5t-67 92t-95 50t-114.5 16.5q-126 0 -232 -52t-181 -132v139q62 67 176.5 119.5t249.5 52.5q85 0 158 -23.5t132 -72t93 -132.5t34 -196v-682h-120v164q-74 -80 -175.5 -132t-220.5 -52 q-162 0 -249 75.5t-87 204.5zM227 266q0 -92 63 -136t165 -44q191 0 370 164v213q-109 33 -217 33q-186 0 -283.5 -63.5t-97.5 -166.5zM236 1280v117q68 96 157 96q38 0 78 -18t68 -39.5t65 -39.5t70 -18q91 0 149 111v-121q-63 -92 -153 -92q-38 0 -78.5 18t-69.5 39.5 t-66.5 39.5t-70.5 18q-83 0 -149 -111z" />
<glyph unicode="&#xe4;" horiz-adv-x="1107" d="M102 260q0 144 126 237t343 93q145 0 254 -37v131q0 78 -24.5 136.5t-67 92t-95 50t-114.5 16.5q-126 0 -232 -52t-181 -132v139q62 67 176.5 119.5t249.5 52.5q85 0 158 -23.5t132 -72t93 -132.5t34 -196v-682h-120v164q-74 -80 -175.5 -132t-220.5 -52 q-162 0 -249 75.5t-87 204.5zM227 266q0 -92 63 -136t165 -44q191 0 370 164v213q-109 33 -217 33q-186 0 -283.5 -63.5t-97.5 -166.5zM270 1384q0 34 24.5 59t59.5 25t60.5 -25t25.5 -59q0 -35 -25.5 -59.5t-60.5 -24.5t-59.5 24.5t-24.5 59.5zM621 1384q0 34 24.5 59 t59.5 25q34 0 58.5 -25t24.5 -59q0 -35 -24.5 -59.5t-58.5 -24.5q-35 0 -59.5 24.5t-24.5 59.5z" />
<glyph unicode="&#xe5;" horiz-adv-x="1107" d="M102 260q0 144 126 237t343 93q145 0 254 -37v131q0 78 -24.5 136.5t-67 92t-95 50t-114.5 16.5q-126 0 -232 -52t-181 -132v139q62 67 176.5 119.5t249.5 52.5q85 0 158 -23.5t132 -72t93 -132.5t34 -196v-682h-120v164q-74 -80 -175.5 -132t-220.5 -52 q-162 0 -249 75.5t-87 204.5zM227 266q0 -92 63 -136t165 -44q191 0 370 164v213q-109 33 -217 33q-186 0 -283.5 -63.5t-97.5 -166.5zM319 1407q0 90 65.5 153.5t158.5 63.5q96 0 160.5 -63.5t64.5 -153.5t-64.5 -153.5t-160.5 -63.5q-93 0 -158.5 63.5t-65.5 153.5z M408 1407q0 -57 41 -95t96 -38q56 0 95.5 37.5t39.5 95.5t-39.5 96.5t-95.5 38.5q-55 0 -96 -39t-41 -96z" />
<glyph unicode="&#xe6;" horiz-adv-x="1900" d="M102 266q0 143 121 233.5t344 90.5q151 0 258 -35v129q0 152 -82.5 223.5t-216.5 71.5q-226 0 -399 -188v139q64 70 171.5 123t242.5 53q131 0 228.5 -51.5t145.5 -159.5q66 103 172 158t238 55q222 0 342.5 -142.5t120.5 -406.5v-63h-834q10 -193 129 -292.5t308 -99.5 q103 0 207.5 23t160.5 59v-120q-59 -40 -165.5 -63t-213.5 -23q-156 0 -278 58.5t-193 172.5q-79 -106 -197.5 -168.5t-265.5 -62.5q-167 0 -255.5 78.5t-88.5 207.5zM227 272q0 -95 65 -140.5t171 -45.5q245 0 409 199q-34 78 -43 178q-109 33 -221 33q-193 0 -287 -61.5 t-94 -162.5zM954 592h705q-5 195 -90.5 297t-247.5 102q-158 0 -259.5 -105t-107.5 -294z" />
<glyph unicode="&#xe7;" horiz-adv-x="1085" d="M104 543q0 168 77.5 298t210 198.5t298.5 68.5q189 0 305 -78v-133q-117 86 -301 86q-200 0 -328 -120.5t-128 -319.5q0 -196 128.5 -317.5t325.5 -121.5q177 0 303 89v-132q-88 -61 -233 -77l-152 -342l-116 47l168 291q-157 6 -284 77.5t-200.5 198.5t-73.5 287z" />
<glyph unicode="&#xe8;" horiz-adv-x="1181" d="M104 543q0 264 139 414.5t363 150.5q222 0 342.5 -142.5t120.5 -406.5v-63h-831q10 -193 127.5 -292.5t304.5 -99.5q104 0 209 23t161 59v-120q-59 -40 -166.5 -63t-214.5 -23q-162 0 -285.5 62t-196.5 190.5t-73 310.5zM238 592h702q-5 194 -91 296.5t-247 102.5 q-158 0 -258 -105t-106 -294zM297 1548h166l201 -319h-125z" />
<glyph unicode="&#xe9;" horiz-adv-x="1181" d="M104 543q0 264 139 414.5t363 150.5q222 0 342.5 -142.5t120.5 -406.5v-63h-831q10 -193 127.5 -292.5t304.5 -99.5q104 0 209 23t161 59v-120q-59 -40 -166.5 -63t-214.5 -23q-162 0 -285.5 62t-196.5 190.5t-73 310.5zM238 592h702q-5 194 -91 296.5t-247 102.5 q-158 0 -258 -105t-106 -294zM514 1229l201 319h166l-242 -319h-125z" />
<glyph unicode="&#xea;" horiz-adv-x="1181" d="M104 543q0 264 139 414.5t363 150.5q222 0 342.5 -142.5t120.5 -406.5v-63h-831q10 -193 127.5 -292.5t304.5 -99.5q104 0 209 23t161 59v-120q-59 -40 -166.5 -63t-214.5 -23q-162 0 -285.5 62t-196.5 190.5t-73 310.5zM238 592h702q-5 194 -91 296.5t-247 102.5 q-158 0 -258 -105t-106 -294zM276 1229l248 319h127l248 -319h-131l-180 229l-180 -229h-132z" />
<glyph unicode="&#xeb;" horiz-adv-x="1181" d="M104 543q0 264 139 414.5t363 150.5q222 0 342.5 -142.5t120.5 -406.5v-63h-831q10 -193 127.5 -292.5t304.5 -99.5q104 0 209 23t161 59v-120q-59 -40 -166.5 -63t-214.5 -23q-162 0 -285.5 62t-196.5 190.5t-73 310.5zM238 592h702q-5 194 -91 296.5t-247 102.5 q-158 0 -258 -105t-106 -294zM328 1384q0 34 24.5 59t59.5 25t60.5 -25t25.5 -59q0 -35 -25.5 -59.5t-60.5 -24.5t-59.5 24.5t-24.5 59.5zM678 1384q0 34 24.5 59t59.5 25q34 0 59 -25t25 -59q0 -35 -25 -59.5t-59 -24.5q-35 0 -59.5 24.5t-24.5 59.5z" />
<glyph unicode="&#xec;" horiz-adv-x="454" d="M-63 1548h165l201 -319h-125zM162 0v1085h131v-1085h-131z" />
<glyph unicode="&#xed;" horiz-adv-x="454" d="M154 1229l200 319h166l-241 -319h-125zM162 0v1085h131v-1085h-131z" />
<glyph unicode="&#xee;" horiz-adv-x="454" d="M-84 1229h131l180 229l181 -229h131l-248 319h-127zM162 0v1085h131v-1085h-131z" />
<glyph unicode="&#xef;" horiz-adv-x="454" d="M-33 1384q0 34 24.5 59t59.5 25t60.5 -25t25.5 -59q0 -35 -25.5 -59.5t-60.5 -24.5t-59.5 24.5t-24.5 59.5zM162 0v1085h131v-1085h-131zM317 1384q0 34 24.5 59t59.5 25q34 0 59 -25t25 -59q0 -35 -25 -59.5t-59 -24.5q-35 0 -59.5 24.5t-24.5 59.5z" />
<glyph unicode="&#xf0;" horiz-adv-x="1275" d="M104 467q0 134 65 235.5t172 153t237 51.5q137 0 246 -50.5t180 -129.5q-66 221 -289 444l-262 -145h-142l351 195q-129 118 -254 188h194q81 -46 172 -125l225 125h142l-314 -174q146 -141 241 -318.5t95 -371.5q0 -138 -40.5 -246.5t-112.5 -177.5t-169.5 -105 t-213.5 -36q-232 0 -377.5 131t-145.5 356zM246 467q0 -166 105 -262t274 -96q176 0 286.5 110.5t110.5 327.5q0 33 -6 67q-168 179 -410 179q-154 0 -257 -87.5t-103 -238.5z" />
<glyph unicode="&#xf1;" d="M162 0v1085h123v-141q200 162 417 162q175 0 278 -103.5t103 -306.5v-696h-129v674q0 153 -78.5 230t-211.5 77q-170 0 -371 -127v-854h-131zM330 1280v117q68 96 157 96q38 0 78 -18t68 -39.5t65 -39.5t70 -18q92 0 150 111v-121q-63 -92 -154 -92q-38 0 -78.5 18 t-69.5 39.5t-66.5 39.5t-70.5 18q-83 0 -149 -111z" />
<glyph unicode="&#xf2;" horiz-adv-x="1318" d="M104 543q0 -158 71 -286.5t198.5 -202.5t285.5 -74t285.5 74t198.5 202.5t71 286.5q0 119 -42 223.5t-114.5 179t-176 117.5t-222.5 43t-222.5 -43t-176 -117.5t-114.5 -179t-42 -223.5zM236 543q0 190 119.5 315t303.5 125q185 0 304.5 -125t119.5 -315 q0 -189 -119.5 -315t-304.5 -126q-183 0 -303 126t-120 315zM369 1548h166l200 -319h-125z" />
<glyph unicode="&#xf3;" horiz-adv-x="1318" d="M104 543q0 -158 71 -286.5t198.5 -202.5t285.5 -74t285.5 74t198.5 202.5t71 286.5q0 119 -42 223.5t-114.5 179t-176 117.5t-222.5 43t-222.5 -43t-176 -117.5t-114.5 -179t-42 -223.5zM236 543q0 190 119.5 315t303.5 125q185 0 304.5 -125t119.5 -315 q0 -189 -119.5 -315t-304.5 -126q-183 0 -303 126t-120 315zM586 1229l200 319h166l-241 -319h-125z" />
<glyph unicode="&#xf4;" horiz-adv-x="1318" d="M104 543q0 -158 71 -286.5t198.5 -202.5t285.5 -74t285.5 74t198.5 202.5t71 286.5q0 119 -42 223.5t-114.5 179t-176 117.5t-222.5 43t-222.5 -43t-176 -117.5t-114.5 -179t-42 -223.5zM236 543q0 190 119.5 315t303.5 125q185 0 304.5 -125t119.5 -315 q0 -189 -119.5 -315t-304.5 -126q-183 0 -303 126t-120 315zM348 1229h131l180 229l181 -229h131l-248 319h-127z" />
<glyph unicode="&#xf5;" horiz-adv-x="1318" d="M104 543q0 -158 71 -286.5t198.5 -202.5t285.5 -74t285.5 74t198.5 202.5t71 286.5q0 119 -42 223.5t-114.5 179t-176 117.5t-222.5 43t-222.5 -43t-176 -117.5t-114.5 -179t-42 -223.5zM236 543q0 190 119.5 315t303.5 125q185 0 304.5 -125t119.5 -315 q0 -189 -119.5 -315t-304.5 -126q-183 0 -303 126t-120 315zM365 1280v117q68 96 157 96q38 0 78 -18t68 -39.5t65 -39.5t70 -18q91 0 149 111v-121q-63 -92 -153 -92q-38 0 -78.5 18t-69.5 39.5t-66.5 39.5t-70.5 18q-83 0 -149 -111z" />
<glyph unicode="&#xf6;" horiz-adv-x="1318" d="M104 543q0 -158 71 -286.5t198.5 -202.5t285.5 -74t285.5 74t198.5 202.5t71 286.5q0 119 -42 223.5t-114.5 179t-176 117.5t-222.5 43t-222.5 -43t-176 -117.5t-114.5 -179t-42 -223.5zM236 543q0 190 119.5 315t303.5 125q185 0 304.5 -125t119.5 -315 q0 -189 -119.5 -315t-304.5 -126q-183 0 -303 126t-120 315zM399 1384q0 34 24.5 59t59.5 25t60.5 -25t25.5 -59q0 -35 -25.5 -59.5t-60.5 -24.5t-59.5 24.5t-24.5 59.5zM750 1384q0 34 24.5 59t59.5 25q34 0 59 -25t25 -59q0 -35 -25 -59.5t-59 -24.5q-35 0 -59.5 24.5 t-24.5 59.5z" />
<glyph unicode="&#xf7;" horiz-adv-x="1034" d="M121 645v121h794v-121h-794zM410 334q0 41 30.5 71.5t71.5 30.5t71.5 -30.5t30.5 -71.5t-30.5 -72t-71.5 -31t-71.5 31t-30.5 72zM410 1075q0 41 30.5 72t71.5 31t71.5 -31t30.5 -72t-30.5 -71.5t-71.5 -30.5t-71.5 30.5t-30.5 71.5z" />
<glyph unicode="&#xf8;" horiz-adv-x="1347" d="M74 0l172 174q-127 152 -127 369q0 119 42 223.5t114.5 179t175.5 117.5t221 43q218 0 370 -133l111 112h121l-172 -174q127 -152 127 -368q0 -158 -71 -286.5t-199 -202.5t-287 -74q-215 0 -367 133l-112 -113h-119zM250 543q0 -159 88 -277l614 617q-117 100 -280 100 q-183 0 -302.5 -125.5t-119.5 -314.5zM395 205q115 -103 277 -103q186 0 306 126t120 315q0 156 -88 278z" />
<glyph unicode="&#xf9;" d="M152 389v696h131v-673q0 -153 78.5 -230.5t211.5 -77.5q179 0 371 129v852h131v-1085h-123v141q-199 -161 -417 -161q-177 0 -280 103t-103 306zM324 1548h165l201 -319h-125z" />
<glyph unicode="&#xfa;" d="M152 389v696h131v-673q0 -153 78.5 -230.5t211.5 -77.5q179 0 371 129v852h131v-1085h-123v141q-199 -161 -417 -161q-177 0 -280 103t-103 306zM541 1229l200 319h166l-241 -319h-125z" />
<glyph unicode="&#xfb;" d="M152 389v696h131v-673q0 -153 78.5 -230.5t211.5 -77.5q179 0 371 129v852h131v-1085h-123v141q-199 -161 -417 -161q-177 0 -280 103t-103 306zM301 1229l248 319h127l248 -319h-131l-181 229l-180 -229h-131z" />
<glyph unicode="&#xfc;" d="M152 389v696h131v-673q0 -153 78.5 -230.5t211.5 -77.5q179 0 371 129v852h131v-1085h-123v141q-199 -161 -417 -161q-177 0 -280 103t-103 306zM354 1384q0 34 24.5 59t59.5 25t60.5 -25t25.5 -59q0 -35 -25.5 -59.5t-60.5 -24.5t-59.5 24.5t-24.5 59.5zM705 1384 q0 34 24 59t59 25q34 0 59 -25t25 -59q0 -35 -25 -59.5t-59 -24.5q-35 0 -59 24.5t-24 59.5z" />
<glyph unicode="&#xfd;" horiz-adv-x="1134" d="M43 1085h145l392 -919l391 919h143l-522 -1185q-55 -127 -128.5 -185.5t-174.5 -58.5q-73 0 -133 26.5t-95 59.5v137q33 -39 93.5 -70.5t128.5 -31.5q125 0 188 139l47 104zM506 1229l201 319h165l-241 -319h-125z" />
<glyph unicode="&#xfe;" horiz-adv-x="1226" d="M162 -324v1733l131 27v-457q155 127 354 127q101 0 187.5 -35t150.5 -101.5t100.5 -169t36.5 -229.5q0 -141 -44.5 -255t-122.5 -186.5t-181 -111t-223 -38.5q-133 0 -258 40v-344h-131zM293 145q132 -47 254 -47q199 0 319.5 121.5t120.5 345.5q0 197 -99.5 309.5 t-269.5 112.5q-175 0 -325 -121v-721z" />
<glyph unicode="&#xff;" horiz-adv-x="1134" d="M43 1085h145l392 -919l391 919h143l-522 -1185q-55 -127 -128.5 -185.5t-174.5 -58.5q-73 0 -133 26.5t-95 59.5v137q33 -39 93.5 -70.5t128.5 -31.5q125 0 188 139l47 104zM319 1384q0 34 24.5 59t59.5 25t60.5 -25t25.5 -59q0 -35 -25.5 -59.5t-60.5 -24.5t-59.5 24.5 t-24.5 59.5zM670 1384q0 34 24.5 59t59.5 25q34 0 59 -25t25 -59q0 -35 -25 -59.5t-59 -24.5q-35 0 -59.5 24.5t-24.5 59.5z" />
<glyph unicode="&#x152;" horiz-adv-x="2344" d="M113 702q0 210 93 377t256 259t365 92q93 0 179 -21h1239v-127h-973q112 -88 180.5 -217.5t81.5 -286.5h608v-127h-606q-9 -163 -78.5 -298t-185.5 -226h973v-127h-1239q-81 -20 -179 -20q-202 0 -365 91.5t-256 256.5t-93 374zM250 702q0 -260 163.5 -425.5 t413.5 -165.5q248 0 412 165.5t164 425.5q0 174 -75.5 310.5t-206.5 211t-294 74.5q-123 0 -229.5 -43.5t-183 -121t-120.5 -189.5t-44 -242z" />
<glyph unicode="&#x153;" horiz-adv-x="2158" d="M104 543q0 158 73 287.5t200 202.5t282 73t282 -73.5t200 -201.5q60 133 175.5 205t268.5 72q220 0 340.5 -143t120.5 -406v-63h-832q10 -193 128 -292.5t307 -99.5q104 0 208 23t160 59v-120q-58 -40 -165 -63t-214 -23q-170 0 -300 71t-195 207q-72 -128 -200 -203 t-284 -75q-154 0 -281.5 73.5t-200.5 203t-73 286.5zM236 543q0 -187 122 -314t301 -127q181 0 302.5 126.5t121.5 314.5q0 189 -121 314.5t-303 125.5q-179 0 -301 -126t-122 -314zM1214 592h703q-5 194 -91 296.5t-247 102.5q-158 0 -258.5 -105t-106.5 -294z" />
<glyph unicode="&#x178;" horiz-adv-x="1245" d="M8 1409h154l463 -711l458 711h154l-547 -838v-571h-135v571zM362 1659q0 35 24 57.5t60 22.5t61 -22.5t25 -57.5q0 -33 -25 -55.5t-61 -22.5t-60 22t-24 56zM713 1659q0 35 24 57.5t60 22.5q35 0 59.5 -22.5t24.5 -57.5q0 -33 -25 -55.5t-59 -22.5q-36 0 -60 22t-24 56z " />
<glyph unicode="&#x2c6;" horiz-adv-x="847" d="M113 1229h131l180 229l180 -229h131l-248 319h-127z" />
<glyph unicode="&#x2dc;" horiz-adv-x="815" d="M113 1280v117q68 96 157 96q38 0 78 -18t68 -39.5t65 -39.5t70 -18q91 0 149 111v-121q-63 -92 -153 -92q-38 0 -78.5 18t-69.5 39.5t-66.5 39.5t-70.5 18q-83 0 -149 -111z" />
<glyph unicode="&#x2000;" horiz-adv-x="895" />
<glyph unicode="&#x2001;" horiz-adv-x="1790" />
<glyph unicode="&#x2002;" horiz-adv-x="895" />
<glyph unicode="&#x2003;" horiz-adv-x="1790" />
<glyph unicode="&#x2004;" horiz-adv-x="596" />
<glyph unicode="&#x2005;" horiz-adv-x="447" />
<glyph unicode="&#x2006;" horiz-adv-x="298" />
<glyph unicode="&#x2007;" horiz-adv-x="298" />
<glyph unicode="&#x2008;" horiz-adv-x="223" />
<glyph unicode="&#x2009;" horiz-adv-x="358" />
<glyph unicode="&#x200a;" horiz-adv-x="99" />
<glyph unicode="&#x2010;" horiz-adv-x="608" d="M66 483v119h477v-119h-477z" />
<glyph unicode="&#x2011;" horiz-adv-x="608" d="M66 483v119h477v-119h-477z" />
<glyph unicode="&#x2012;" horiz-adv-x="608" d="M66 483v119h477v-119h-477z" />
<glyph unicode="&#x2013;" horiz-adv-x="991" d="M66 483v119h860v-119h-860z" />
<glyph unicode="&#x2014;" horiz-adv-x="1581" d="M66 483v119h1450v-119h-1450z" />
<glyph unicode="&#x2018;" horiz-adv-x="346" d="M49 1014l139 395h97l-95 -395h-141z" />
<glyph unicode="&#x2019;" horiz-adv-x="346" d="M59 1014l97 395h139l-139 -395h-97z" />
<glyph unicode="&#x201a;" horiz-adv-x="346" d="M59 -250l97 395h139l-139 -395h-97z" />
<glyph unicode="&#x201c;" horiz-adv-x="632" d="M49 1014l139 395h97l-95 -395h-141zM336 1014l139 395h96l-94 -395h-141z" />
<glyph unicode="&#x201d;" horiz-adv-x="632" d="M59 1014l97 395h139l-139 -395h-97zM348 1014l94 395h140l-140 -395h-94z" />
<glyph unicode="&#x201e;" horiz-adv-x="632" d="M59 -250l97 395h139l-139 -395h-97zM348 -250l94 395h140l-140 -395h-94z" />
<glyph unicode="&#x2022;" horiz-adv-x="647" d="M84 705q0 100 70 169.5t170 69.5t169.5 -69.5t69.5 -169.5t-69.5 -170t-169.5 -70t-170 70t-70 170z" />
<glyph unicode="&#x2026;" horiz-adv-x="1167" d="M55 86q0 41 30 71.5t71 30.5q43 0 73.5 -30.5t30.5 -71.5t-30.5 -71.5t-73.5 -30.5q-41 0 -71 30.5t-30 71.5zM481 86q0 41 31 71.5t72 30.5t71.5 -30.5t30.5 -71.5t-30.5 -71.5t-71.5 -30.5t-72 30.5t-31 71.5zM909 86q0 41 30 71.5t71 30.5q42 0 72 -30t30 -72t-30 -72 t-72 -30q-41 0 -71 30.5t-30 71.5z" />
<glyph unicode="&#x202f;" horiz-adv-x="358" />
<glyph unicode="&#x2039;" horiz-adv-x="542" d="M82 481l358 -198v127l-254 133l254 133v127l-358 -199v-123z" />
<glyph unicode="&#x203a;" horiz-adv-x="542" d="M102 283l359 198v123l-359 199v-127l254 -133l-254 -133v-127z" />
<glyph unicode="&#x205f;" horiz-adv-x="447" />
<glyph unicode="&#x20ac;" horiz-adv-x="1456" d="M18 528v103h201q-2 23 -2 71q0 35 4 101h-203v104h220q56 248 234 385.5t427 137.5q248 0 451 -138v-145q-202 156 -447 156q-190 0 -329 -103t-191 -293h582v-104h-600q-7 -58 -7 -101q0 -48 2 -71h605v-103h-588q45 -202 186.5 -312t339.5 -110q139 0 243 38t204 104 v-148q-100 -60 -204 -91.5t-247 -31.5q-257 0 -438 145.5t-230 405.5h-213z" />
<glyph unicode="&#x2122;" horiz-adv-x="944" d="M119 1223v61h291v-61h-113v-246h-66v246h-112zM469 977v307h90l90 -240l88 240h90v-307h-65v209l-78 -209h-72l-77 209v-209h-66z" />
<glyph unicode="&#x25fc;" horiz-adv-x="1085" d="M0 0v1085h1085v-1085h-1085z" />
<glyph unicode="&#xfb03;" horiz-adv-x="1714" d="M63 969v116h162v21q0 85 26.5 150.5t72 103.5t100.5 57t117 19q89 0 161 -33v-115q-72 35 -149 35q-94 0 -145.5 -57t-51.5 -156v-25h459v37q0 88 26.5 152t72 98.5t97.5 50t113 15.5q47 0 109 -15v-112q-54 14 -96 14q-191 0 -191 -192v-48h588v-1085h-131v969h-457 v-969h-131v969h-459v-969h-131v969h-162zM1358 1350q0 40 29 65t75 25t74.5 -25t28.5 -65t-28.5 -65t-74.5 -25t-75 25t-29 65z" />
<glyph unicode="&#xfb04;" horiz-adv-x="1710" d="M63 969v116h162v21q0 85 26.5 150.5t72 103.5t100.5 57t117 19q89 0 161 -33v-115q-72 35 -149 35q-94 0 -145.5 -57t-51.5 -156v-25h459v21q0 88 28 153.5t77 102t106.5 53.5t124.5 17q74 0 145 -16.5t113 -37.5l125 58v-1436h-131v1270q-115 53 -236 53 q-221 0 -221 -201v-37h258v-116h-258v-969h-131v969h-459v-969h-131v969h-162z" />
</font>
</defs>
</svg>
